<svg xmlns="http://www.w3.org/2000/svg" xmlns:xlink="http://www.w3.org/1999/xlink" width="738.025" height="729.038" viewBox="0 0 738.025 729.038">
  <defs>
    <linearGradient id="linear-gradient" x1="-0.05" y1="0.546" x2="0.954" y2="0.546" gradientUnits="objectBoundingBox">
      <stop offset="0" stop-color="#f0ad65"/>
      <stop offset="1" stop-color="#ff615b"/>
    </linearGradient>
  </defs>
  <g id="Grupo_91931" data-name="Grupo 91931" transform="translate(-428.244 -3825.793)">
    <g id="Grupo_91668" data-name="Grupo 91668" transform="translate(484.873 3898.266)" style="isolation: isolate">
      <path id="Trazado_142200" data-name="Trazado 142200" d="M407.516,718.072a313.358,313.358,0,0,1-156.728-41.861l-10.861-6.269A314.328,314.328,0,0,1,83.2,398.481V385.936A314.325,314.325,0,0,1,239.925,114.476l10.863-6.273a314.321,314.321,0,0,1,313.456,0l10.863,6.273A314.323,314.323,0,0,1,731.833,385.936v12.545A314.323,314.323,0,0,1,575.107,669.94l-10.865,6.273A313.427,313.427,0,0,1,407.516,718.072Zm0-564.43a226.055,226.055,0,0,0-113.06,30.2l-10.863,6.273a226.746,226.746,0,0,0-113.06,195.824v12.545A226.746,226.746,0,0,0,283.593,594.3l10.861,6.269a226.748,226.748,0,0,0,226.122,0l10.865-6.273A226.741,226.741,0,0,0,644.5,398.481V385.936A226.745,226.745,0,0,0,531.439,190.112l-10.863-6.273A226.114,226.114,0,0,0,407.516,153.642Z" transform="translate(-83.197 -66.342)" fill="url(#linear-gradient)"/>
    </g>
    <circle id="Elipse_4130" data-name="Elipse 4130" cx="98.512" cy="98.512" r="98.512" transform="translate(711.245 3825.793)" fill="#ff615b"/>
    <circle id="Elipse_4140" data-name="Elipse 4140" cx="98.512" cy="98.512" r="98.512" transform="translate(428.244 4031.806)" fill="#80dcab"/>
    <circle id="Elipse_4145" data-name="Elipse 4145" cx="98.512" cy="98.512" r="98.512" transform="translate(526.756 4357.806)" fill="#80dcab"/>
    <circle id="Elipse_4147" data-name="Elipse 4147" cx="98.512" cy="98.512" r="98.512" transform="translate(870.732 4357.806)" fill="#80dcab"/>
    <circle id="Elipse_4143" data-name="Elipse 4143" cx="98.512" cy="98.512" r="98.512" transform="translate(969.245 4031.806)" fill="#80dcab"/>
    <circle id="Elipse_4131" data-name="Elipse 4131" cx="82.765" cy="82.765" r="82.765" transform="translate(726.992 4007.07) rotate(-90)" fill="none" stroke="#fff" stroke-miterlimit="10" stroke-width="3"/>
    <circle id="Elipse_4141" data-name="Elipse 4141" cx="82.765" cy="82.765" r="82.765" transform="translate(443.992 4213.083) rotate(-90)" fill="none" stroke="#fff" stroke-miterlimit="10" stroke-width="3"/>
    <circle id="Elipse_4144" data-name="Elipse 4144" cx="82.765" cy="82.765" r="82.765" transform="translate(542.504 4539.083) rotate(-90)" fill="none" stroke="#fff" stroke-miterlimit="10" stroke-width="3"/>
    <circle id="Elipse_4146" data-name="Elipse 4146" cx="82.765" cy="82.765" r="82.765" transform="translate(886.48 4539.083) rotate(-90)" fill="none" stroke="#fff" stroke-miterlimit="10" stroke-width="3"/>
    <circle id="Elipse_4142" data-name="Elipse 4142" cx="82.765" cy="82.765" r="82.765" transform="translate(984.992 4213.083) rotate(-90)" fill="none" stroke="#fff" stroke-miterlimit="10" stroke-width="3"/>
    <path id="Trazado_143178" data-name="Trazado 143178" d="M14.684-13.887H9.563V0H5.449V-13.887H.422v-3.176H14.684ZM13.3-6.457a7.484,7.484,0,0,1,.738-3.381,5.28,5.28,0,0,1,2.121-2.279,6.388,6.388,0,0,1,3.246-.8,5.83,5.83,0,0,1,4.488,1.764,6.768,6.768,0,0,1,1.641,4.8v.141a6.566,6.566,0,0,1-1.646,4.705A5.846,5.846,0,0,1,19.43.234a5.912,5.912,0,0,1-4.348-1.623,6.348,6.348,0,0,1-1.77-4.4Zm3.949.246A4.718,4.718,0,0,0,17.8-3.633a1.835,1.835,0,0,0,1.629.82q2.109,0,2.156-3.246v-.4q0-3.41-2.18-3.41-1.98,0-2.145,2.941Zm14.625-9.621v3.152h2.086v2.742H31.875v5.8a1.481,1.481,0,0,0,.258,1,1.383,1.383,0,0,0,1.02.281,5.793,5.793,0,0,0,.984-.07V-.105a7.288,7.288,0,0,1-2.227.34A4.137,4.137,0,0,1,28.9-.727a3.939,3.939,0,0,1-.973-2.918V-9.937H26.309V-12.68h1.617v-3.152ZM42.656,0a4.459,4.459,0,0,1-.375-1.137A3.672,3.672,0,0,1,39.234.234,4.5,4.5,0,0,1,36.188-.85a3.45,3.45,0,0,1-1.254-2.725,3.546,3.546,0,0,1,1.523-3.117,7.761,7.761,0,0,1,4.43-1.055h1.219v-.671q0-1.755-1.512-1.755a1.236,1.236,0,0,0-1.406,1.39H35.238A3.54,3.54,0,0,1,36.8-11.767a6.575,6.575,0,0,1,3.99-1.147,5.764,5.764,0,0,1,3.832,1.184,4.115,4.115,0,0,1,1.441,3.246v5.613A5.748,5.748,0,0,0,46.605-.2V0ZM40.184-2.578a2.2,2.2,0,0,0,1.225-.316,1.983,1.983,0,0,0,.7-.715V-5.637H40.957q-2.062,0-2.062,1.852a1.131,1.131,0,0,0,.363.873A1.315,1.315,0,0,0,40.184-2.578ZM52.418,0H48.457V-18h3.961Zm6.6,0H55.055V-12.68h3.961Zm-4.2-15.961a1.778,1.778,0,0,1,.609-1.391,2.29,2.29,0,0,1,1.582-.542,2.29,2.29,0,0,1,1.582.542,1.778,1.778,0,0,1,.609,1.391,1.778,1.778,0,0,1-.609,1.391,2.29,2.29,0,0,1-1.582.542,2.29,2.29,0,0,1-1.582-.542A1.778,1.778,0,0,1,54.82-15.961Zm6.129,9.527a7.746,7.746,0,0,1,1.3-4.746,4.282,4.282,0,0,1,3.633-1.734,3.641,3.641,0,0,1,2.859,1.336V-18H72.7V0H69.152l-.2-1.359A3.739,3.739,0,0,1,65.859.234,4.274,4.274,0,0,1,62.273-1.5,7.991,7.991,0,0,1,60.949-6.434Zm3.949.246q0,3.375,1.969,3.375a1.944,1.944,0,0,0,1.875-1.1V-8.742a1.892,1.892,0,0,0-1.852-1.125q-1.828,0-1.98,2.953ZM82.09,0a4.459,4.459,0,0,1-.375-1.137A3.672,3.672,0,0,1,78.668.234,4.5,4.5,0,0,1,75.621-.85a3.45,3.45,0,0,1-1.254-2.725,3.546,3.546,0,0,1,1.523-3.117,7.761,7.761,0,0,1,4.43-1.055h1.219v-.671q0-1.755-1.512-1.755a1.236,1.236,0,0,0-1.406,1.39H74.672a3.54,3.54,0,0,1,1.564-2.985,6.575,6.575,0,0,1,3.99-1.147,5.764,5.764,0,0,1,3.832,1.184A4.115,4.115,0,0,1,85.5-8.484v5.613A5.748,5.748,0,0,0,86.039-.2V0ZM79.617-2.578a2.2,2.2,0,0,0,1.225-.316,1.983,1.983,0,0,0,.7-.715V-5.637H80.391q-2.062,0-2.062,1.852a1.131,1.131,0,0,0,.363.873A1.315,1.315,0,0,0,79.617-2.578Zm7.57-3.855a7.746,7.746,0,0,1,1.3-4.746,4.282,4.282,0,0,1,3.633-1.734,3.641,3.641,0,0,1,2.859,1.336V-18h3.961V0H95.391l-.2-1.359A3.739,3.739,0,0,1,92.1.234,4.274,4.274,0,0,1,88.512-1.5,7.991,7.991,0,0,1,87.188-6.434Zm3.949.246q0,3.375,1.969,3.375a1.944,1.944,0,0,0,1.875-1.1V-8.742a1.892,1.892,0,0,0-1.852-1.125q-1.828,0-1.98,2.953Z" transform="translate(760 3933)" fill="#fff"/>
    <path id="Trazado_143182" data-name="Trazado 143182" d="M-38.678-7.242h-6.469v4.078h7.641V0H-49.26V-17.062h11.777v3.176h-7.664v3.6h6.469Zm7.8-1.945,1.84-3.492h4.1L-28.271-6.5l3.5,6.5h-4.125l-1.992-3.75L-32.842,0H-36.99l3.516-6.5L-36.8-12.68h4.148ZM-16.518,0a4.459,4.459,0,0,1-.375-1.137A3.672,3.672,0,0,1-19.939.234,4.5,4.5,0,0,1-22.986-.85,3.45,3.45,0,0,1-24.24-3.574a3.546,3.546,0,0,1,1.523-3.117,7.761,7.761,0,0,1,4.43-1.055h1.219v-.671q0-1.755-1.512-1.755a1.236,1.236,0,0,0-1.406,1.39h-3.949a3.54,3.54,0,0,1,1.564-2.985,6.575,6.575,0,0,1,3.99-1.147,5.764,5.764,0,0,1,3.832,1.184,4.115,4.115,0,0,1,1.441,3.246v5.613A5.748,5.748,0,0,0-12.568-.2V0ZM-18.99-2.578a2.2,2.2,0,0,0,1.225-.316,1.983,1.983,0,0,0,.7-.715V-5.637h-1.148q-2.062,0-2.062,1.852a1.131,1.131,0,0,0,.363.873A1.315,1.315,0,0,0-18.99-2.578Zm13.43-.234a1.756,1.756,0,0,0,1.289-.451,1.654,1.654,0,0,0,.445-1.26h3.7A4.384,4.384,0,0,1-1.617-1.1,5.558,5.558,0,0,1-5.467.234,5.627,5.627,0,0,1-9.826-1.5,6.834,6.834,0,0,1-11.42-6.3v-.164a7.723,7.723,0,0,1,.709-3.393,5.162,5.162,0,0,1,2.045-2.262A6.1,6.1,0,0,1-5.5-12.914a5.488,5.488,0,0,1,3.926,1.371A4.863,4.863,0,0,1-.123-7.828h-3.7a2.168,2.168,0,0,0-.48-1.512A1.658,1.658,0,0,0-5.6-9.867q-1.535,0-1.793,1.957A13.809,13.809,0,0,0-7.471-6.2a5.424,5.424,0,0,0,.457,2.648A1.582,1.582,0,0,0-5.561-2.812ZM6.146-15.832v3.152H8.232v2.742H6.146v5.8a1.481,1.481,0,0,0,.258,1,1.383,1.383,0,0,0,1.02.281,5.793,5.793,0,0,0,.984-.07V-.105a7.288,7.288,0,0,1-2.227.34A4.137,4.137,0,0,1,3.17-.727,3.939,3.939,0,0,1,2.2-3.645V-9.937H.58V-12.68H2.2v-3.152ZM13.951,0H9.99V-12.68h3.961Zm-4.2-15.961a1.778,1.778,0,0,1,.609-1.391,2.29,2.29,0,0,1,1.582-.542,2.29,2.29,0,0,1,1.582.542,1.778,1.778,0,0,1,.609,1.391,1.778,1.778,0,0,1-.609,1.391,2.29,2.29,0,0,1-1.582.542,2.29,2.29,0,0,1-1.582-.542A1.778,1.778,0,0,1,9.756-15.961Zm11.227.129v3.152h2.086v2.742H20.982v5.8a1.481,1.481,0,0,0,.258,1,1.383,1.383,0,0,0,1.02.281,5.793,5.793,0,0,0,.984-.07V-.105a7.288,7.288,0,0,1-2.227.34,4.137,4.137,0,0,1-3.012-.961,3.939,3.939,0,0,1-.973-2.918V-9.937H15.416V-12.68h1.617v-3.152ZM32.174-1.371A4.072,4.072,0,0,1,28.787.234,3.993,3.993,0,0,1,25.629-.979a5.1,5.1,0,0,1-1.072-3.486V-12.68h3.949v8.238a1.419,1.419,0,0,0,1.582,1.629,2.064,2.064,0,0,0,1.934-.973V-12.68h3.973V0h-3.7Zm5.484-5.062a7.746,7.746,0,0,1,1.3-4.746,4.282,4.282,0,0,1,3.633-1.734,3.641,3.641,0,0,1,2.859,1.336V-18h3.961V0H45.861l-.2-1.359A3.739,3.739,0,0,1,42.568.234,4.274,4.274,0,0,1,38.982-1.5,7.991,7.991,0,0,1,37.658-6.434Zm3.949.246q0,3.375,1.969,3.375a1.944,1.944,0,0,0,1.875-1.1V-8.742A1.892,1.892,0,0,0,43.6-9.867q-1.828,0-1.98,2.953Zm-77.227,17.3H-40.74V25h-4.113V11.113h-5.027V7.938h14.262Zm6.645,14.121a6.518,6.518,0,0,1-4.723-1.74,6.009,6.009,0,0,1-1.8-4.529v-.328a7.787,7.787,0,0,1,.721-3.434,5.274,5.274,0,0,1,2.1-2.3,6.35,6.35,0,0,1,3.281-.814,5.489,5.489,0,0,1,4.219,1.658,6.516,6.516,0,0,1,1.547,4.623V19.9h-7.852a2.846,2.846,0,0,0,.926,1.676,2.755,2.755,0,0,0,1.852.609,3.549,3.549,0,0,0,2.93-1.312l1.8,2.133a5.045,5.045,0,0,1-2.092,1.623A7.069,7.069,0,0,1-28.975,25.234Zm-.445-10.1q-1.734,0-2.062,2.3H-27.5v-.3a1.956,1.956,0,0,0-.48-1.471A1.912,1.912,0,0,0-29.42,15.133Zm11.109-2.812.129,1.488a4.36,4.36,0,0,1,3.621-1.723A3.21,3.21,0,0,1-11.314,14a4.22,4.22,0,0,1,3.727-1.91q3.855,0,3.961,4.664V25H-7.588V17a2.417,2.417,0,0,0-.328-1.418,1.4,1.4,0,0,0-1.2-.445,1.871,1.871,0,0,0-1.746,1.043l.012.164V25h-3.961V17.02a2.541,2.541,0,0,0-.316-1.441,1.393,1.393,0,0,0-1.207-.445,1.894,1.894,0,0,0-1.734,1.043V25h-3.949V12.32ZM5.771,25A4.459,4.459,0,0,1,5.4,23.863,3.672,3.672,0,0,1,2.35,25.234,4.5,4.5,0,0,1-.7,24.15a3.45,3.45,0,0,1-1.254-2.725A3.546,3.546,0,0,1-.428,18.309,7.761,7.761,0,0,1,4,17.254H5.221v-.671q0-1.755-1.512-1.755A1.236,1.236,0,0,0,2.3,16.218H-1.646A3.54,3.54,0,0,1-.082,13.233a6.575,6.575,0,0,1,3.99-1.147A5.764,5.764,0,0,1,7.74,13.27a4.115,4.115,0,0,1,1.441,3.246v5.613A5.748,5.748,0,0,0,9.721,24.8V25ZM3.3,22.422a2.2,2.2,0,0,0,1.225-.316,1.983,1.983,0,0,0,.7-.715V19.363H4.072q-2.062,0-2.062,1.852a1.131,1.131,0,0,0,.363.873A1.315,1.315,0,0,0,3.3,22.422ZM4.283,7H8.455L5.2,10.68l-3.223-.006ZM15.967,9.168V12.32h2.086v2.742H15.967v5.8a1.481,1.481,0,0,0,.258,1,1.383,1.383,0,0,0,1.02.281,5.793,5.793,0,0,0,.984-.07v2.824a7.288,7.288,0,0,1-2.227.34,4.137,4.137,0,0,1-3.012-.961,3.939,3.939,0,0,1-.973-2.918V15.063H10.4V12.32h1.617V9.168ZM23.771,25H19.811V12.32h3.961Zm-4.2-15.961a1.778,1.778,0,0,1,.609-1.391,2.579,2.579,0,0,1,3.164,0,1.778,1.778,0,0,1,.609,1.391,1.778,1.778,0,0,1-.609,1.391,2.579,2.579,0,0,1-3.164,0A1.778,1.778,0,0,1,19.576,9.039ZM31.564,22.188a1.756,1.756,0,0,0,1.289-.451,1.654,1.654,0,0,0,.445-1.26H37A4.384,4.384,0,0,1,35.508,23.9a5.558,5.558,0,0,1-3.85,1.336A5.627,5.627,0,0,1,27.3,23.5a6.834,6.834,0,0,1-1.594-4.8v-.164a7.723,7.723,0,0,1,.709-3.393,5.162,5.162,0,0,1,2.045-2.262,6.1,6.1,0,0,1,3.164-.791,5.488,5.488,0,0,1,3.926,1.371A4.863,4.863,0,0,1,37,17.172H33.3a2.168,2.168,0,0,0-.48-1.512,1.658,1.658,0,0,0-1.289-.527q-1.535,0-1.793,1.957a13.809,13.809,0,0,0-.082,1.711,5.424,5.424,0,0,0,.457,2.648A1.582,1.582,0,0,0,31.564,22.188ZM45.814,25a4.459,4.459,0,0,1-.375-1.137,3.672,3.672,0,0,1-3.047,1.371,4.5,4.5,0,0,1-3.047-1.084,3.45,3.45,0,0,1-1.254-2.725,3.546,3.546,0,0,1,1.523-3.117,7.761,7.761,0,0,1,4.43-1.055h1.219v-.671q0-1.755-1.512-1.755a1.236,1.236,0,0,0-1.406,1.39H38.4a3.54,3.54,0,0,1,1.564-2.985,6.575,6.575,0,0,1,3.99-1.147,5.764,5.764,0,0,1,3.832,1.184,4.115,4.115,0,0,1,1.441,3.246v5.613a5.748,5.748,0,0,0,.539,2.672V25Zm-2.473-2.578a2.2,2.2,0,0,0,1.225-.316,1.983,1.983,0,0,0,.7-.715V19.363H44.115q-2.062,0-2.062,1.852a1.131,1.131,0,0,0,.363.873A1.315,1.315,0,0,0,43.342,22.422Z" transform="translate(521 4135)" fill="#12263f"/>
    <path id="Trazado_143181" data-name="Trazado 143181" d="M-38.678-7.242h-6.469v4.078h7.641V0H-49.26V-17.062h11.777v3.176h-7.664v3.6h6.469Zm7.8-1.945,1.84-3.492h4.1L-28.271-6.5l3.5,6.5h-4.125l-1.992-3.75L-32.842,0H-36.99l3.516-6.5L-36.8-12.68h4.148ZM-16.518,0a4.459,4.459,0,0,1-.375-1.137A3.672,3.672,0,0,1-19.939.234,4.5,4.5,0,0,1-22.986-.85,3.45,3.45,0,0,1-24.24-3.574a3.546,3.546,0,0,1,1.523-3.117,7.761,7.761,0,0,1,4.43-1.055h1.219v-.671q0-1.755-1.512-1.755a1.236,1.236,0,0,0-1.406,1.39h-3.949a3.54,3.54,0,0,1,1.564-2.985,6.575,6.575,0,0,1,3.99-1.147,5.764,5.764,0,0,1,3.832,1.184,4.115,4.115,0,0,1,1.441,3.246v5.613A5.748,5.748,0,0,0-12.568-.2V0ZM-18.99-2.578a2.2,2.2,0,0,0,1.225-.316,1.983,1.983,0,0,0,.7-.715V-5.637h-1.148q-2.062,0-2.062,1.852a1.131,1.131,0,0,0,.363.873A1.315,1.315,0,0,0-18.99-2.578Zm13.43-.234a1.756,1.756,0,0,0,1.289-.451,1.654,1.654,0,0,0,.445-1.26h3.7A4.384,4.384,0,0,1-1.617-1.1,5.558,5.558,0,0,1-5.467.234,5.627,5.627,0,0,1-9.826-1.5,6.834,6.834,0,0,1-11.42-6.3v-.164a7.723,7.723,0,0,1,.709-3.393,5.162,5.162,0,0,1,2.045-2.262A6.1,6.1,0,0,1-5.5-12.914a5.488,5.488,0,0,1,3.926,1.371A4.863,4.863,0,0,1-.123-7.828h-3.7a2.168,2.168,0,0,0-.48-1.512A1.658,1.658,0,0,0-5.6-9.867q-1.535,0-1.793,1.957A13.809,13.809,0,0,0-7.471-6.2a5.424,5.424,0,0,0,.457,2.648A1.582,1.582,0,0,0-5.561-2.812ZM6.146-15.832v3.152H8.232v2.742H6.146v5.8a1.481,1.481,0,0,0,.258,1,1.383,1.383,0,0,0,1.02.281,5.793,5.793,0,0,0,.984-.07V-.105a7.288,7.288,0,0,1-2.227.34A4.137,4.137,0,0,1,3.17-.727,3.939,3.939,0,0,1,2.2-3.645V-9.937H.58V-12.68H2.2v-3.152ZM13.951,0H9.99V-12.68h3.961Zm-4.2-15.961a1.778,1.778,0,0,1,.609-1.391,2.29,2.29,0,0,1,1.582-.542,2.29,2.29,0,0,1,1.582.542,1.778,1.778,0,0,1,.609,1.391,1.778,1.778,0,0,1-.609,1.391,2.29,2.29,0,0,1-1.582.542,2.29,2.29,0,0,1-1.582-.542A1.778,1.778,0,0,1,9.756-15.961Zm11.227.129v3.152h2.086v2.742H20.982v5.8a1.481,1.481,0,0,0,.258,1,1.383,1.383,0,0,0,1.02.281,5.793,5.793,0,0,0,.984-.07V-.105a7.288,7.288,0,0,1-2.227.34,4.137,4.137,0,0,1-3.012-.961,3.939,3.939,0,0,1-.973-2.918V-9.937H15.416V-12.68h1.617v-3.152ZM32.174-1.371A4.072,4.072,0,0,1,28.787.234,3.993,3.993,0,0,1,25.629-.979a5.1,5.1,0,0,1-1.072-3.486V-12.68h3.949v8.238a1.419,1.419,0,0,0,1.582,1.629,2.064,2.064,0,0,0,1.934-.973V-12.68h3.973V0h-3.7Zm5.484-5.062a7.746,7.746,0,0,1,1.3-4.746,4.282,4.282,0,0,1,3.633-1.734,3.641,3.641,0,0,1,2.859,1.336V-18h3.961V0H45.861l-.2-1.359A3.739,3.739,0,0,1,42.568.234,4.274,4.274,0,0,1,38.982-1.5,7.991,7.991,0,0,1,37.658-6.434Zm3.949.246q0,3.375,1.969,3.375a1.944,1.944,0,0,0,1.875-1.1V-8.742A1.892,1.892,0,0,0,43.6-9.867q-1.828,0-1.98,2.953ZM-42.814,9.168V12.32h2.086v2.742h-2.086v5.8a1.481,1.481,0,0,0,.258,1,1.383,1.383,0,0,0,1.02.281,5.793,5.793,0,0,0,.984-.07v2.824a7.288,7.288,0,0,1-2.227.34,4.137,4.137,0,0,1-3.012-.961,3.939,3.939,0,0,1-.973-2.918V15.063h-1.617V12.32h1.617V9.168Zm9.773,16.066a6.518,6.518,0,0,1-4.723-1.74,6.009,6.009,0,0,1-1.8-4.529v-.328a7.787,7.787,0,0,1,.721-3.434,5.274,5.274,0,0,1,2.1-2.3,6.35,6.35,0,0,1,3.281-.814,5.489,5.489,0,0,1,4.219,1.658A6.516,6.516,0,0,1-27.7,18.367V19.9h-7.852a2.846,2.846,0,0,0,.926,1.676,2.755,2.755,0,0,0,1.852.609,3.549,3.549,0,0,0,2.93-1.312l1.8,2.133a5.045,5.045,0,0,1-2.092,1.623A7.069,7.069,0,0,1-33.041,25.234Zm-.445-10.1q-1.734,0-2.062,2.3h3.984v-.3a1.956,1.956,0,0,0-.48-1.471A1.912,1.912,0,0,0-33.486,15.133Zm11.109-2.812.129,1.488a4.36,4.36,0,0,1,3.621-1.723A3.21,3.21,0,0,1-15.381,14a4.22,4.22,0,0,1,3.727-1.91q3.855,0,3.961,4.664V25h-3.961V17a2.417,2.417,0,0,0-.328-1.418,1.4,1.4,0,0,0-1.2-.445,1.871,1.871,0,0,0-1.746,1.043l.012.164V25h-3.961V17.02a2.541,2.541,0,0,0-.316-1.441,1.393,1.393,0,0,0-1.207-.445,1.894,1.894,0,0,0-1.734,1.043V25H-26.08V12.32ZM6.334,18.754A7.646,7.646,0,0,1,5,23.471a4.264,4.264,0,0,1-3.592,1.764,3.655,3.655,0,0,1-2.871-1.277v5.918H-5.408V12.32h3.691l.117,1.172a3.656,3.656,0,0,1,2.988-1.406,4.3,4.3,0,0,1,3.645,1.729,7.741,7.741,0,0,1,1.3,4.752Zm-3.949-.246q0-3.375-1.969-3.375a1.859,1.859,0,0,0-1.875,1.008v4.992a1.919,1.919,0,0,0,1.9,1.055q1.887,0,1.945-3.258Zm5.191.035a7.484,7.484,0,0,1,.738-3.381,5.28,5.28,0,0,1,2.121-2.279,6.388,6.388,0,0,1,3.246-.8A5.83,5.83,0,0,1,18.17,13.85a6.768,6.768,0,0,1,1.641,4.8v.141a6.566,6.566,0,0,1-1.646,4.705,5.846,5.846,0,0,1-4.459,1.74,5.912,5.912,0,0,1-4.348-1.623,6.348,6.348,0,0,1-1.77-4.4Zm3.949.246a4.718,4.718,0,0,0,.551,2.578,1.835,1.835,0,0,0,1.629.82q2.109,0,2.156-3.246v-.4q0-3.41-2.18-3.41-1.98,0-2.145,2.941Zm17.7-2.895-1.3-.094a2.336,2.336,0,0,0-2.391,1.172V25H21.58V12.32h3.7l.129,1.629a3.058,3.058,0,0,1,2.777-1.863,3.851,3.851,0,0,1,1.1.141ZM37.436,25a4.459,4.459,0,0,1-.375-1.137,3.672,3.672,0,0,1-3.047,1.371,4.5,4.5,0,0,1-3.047-1.084,3.45,3.45,0,0,1-1.254-2.725,3.546,3.546,0,0,1,1.523-3.117,7.761,7.761,0,0,1,4.43-1.055h1.219v-.671q0-1.755-1.512-1.755a1.236,1.236,0,0,0-1.406,1.39H30.018a3.54,3.54,0,0,1,1.564-2.985,6.575,6.575,0,0,1,3.99-1.147A5.764,5.764,0,0,1,39.4,13.27a4.115,4.115,0,0,1,1.441,3.246v5.613a5.748,5.748,0,0,0,.539,2.672V25Zm-2.473-2.578a2.2,2.2,0,0,0,1.225-.316,1.983,1.983,0,0,0,.7-.715V19.363H35.736q-2.062,0-2.062,1.852a1.131,1.131,0,0,0,.363.873A1.315,1.315,0,0,0,34.963,22.422ZM47.2,25H43.236V7H47.2Z" transform="translate(625.269 4453.318)" fill="#12263f"/>
    <path id="Trazado_143180" data-name="Trazado 143180" d="M-54.949-7.242h-6.469v4.078h7.641V0H-65.531V-17.062h11.777v3.176h-7.664v3.6h6.469Zm7.8-1.945,1.84-3.492h4.1L-44.543-6.5l3.5,6.5h-4.125l-1.992-3.75L-49.113,0h-4.148l3.516-6.5-3.328-6.176h4.148ZM-32.789,0a4.459,4.459,0,0,1-.375-1.137A3.672,3.672,0,0,1-36.211.234,4.5,4.5,0,0,1-39.258-.85a3.45,3.45,0,0,1-1.254-2.725,3.546,3.546,0,0,1,1.523-3.117,7.761,7.761,0,0,1,4.43-1.055h1.219v-.671q0-1.755-1.512-1.755a1.236,1.236,0,0,0-1.406,1.39h-3.949a3.54,3.54,0,0,1,1.564-2.985,6.575,6.575,0,0,1,3.99-1.147A5.764,5.764,0,0,1-30.82-11.73a4.115,4.115,0,0,1,1.441,3.246v5.613A5.748,5.748,0,0,0-28.84-.2V0Zm-2.473-2.578a2.2,2.2,0,0,0,1.225-.316,1.983,1.983,0,0,0,.7-.715V-5.637h-1.148q-2.062,0-2.062,1.852a1.131,1.131,0,0,0,.363.873A1.315,1.315,0,0,0-35.262-2.578Zm13.43-.234a1.756,1.756,0,0,0,1.289-.451,1.654,1.654,0,0,0,.445-1.26h3.7A4.384,4.384,0,0,1-17.889-1.1,5.558,5.558,0,0,1-21.738.234,5.627,5.627,0,0,1-26.1-1.5a6.834,6.834,0,0,1-1.594-4.8v-.164a7.723,7.723,0,0,1,.709-3.393,5.162,5.162,0,0,1,2.045-2.262,6.1,6.1,0,0,1,3.164-.791,5.488,5.488,0,0,1,3.926,1.371,4.863,4.863,0,0,1,1.453,3.715h-3.7a2.168,2.168,0,0,0-.48-1.512,1.658,1.658,0,0,0-1.289-.527q-1.535,0-1.793,1.957A13.809,13.809,0,0,0-23.742-6.2a5.424,5.424,0,0,0,.457,2.648A1.582,1.582,0,0,0-21.832-2.812Zm11.707-13.02v3.152h2.086v2.742h-2.086v5.8a1.481,1.481,0,0,0,.258,1,1.383,1.383,0,0,0,1.02.281,5.793,5.793,0,0,0,.984-.07V-.105a7.288,7.288,0,0,1-2.227.34A4.137,4.137,0,0,1-13.1-.727a3.939,3.939,0,0,1-.973-2.918V-9.937h-1.617V-12.68h1.617v-3.152ZM-2.32,0H-6.281V-12.68H-2.32Zm-4.2-15.961a1.778,1.778,0,0,1,.609-1.391,2.29,2.29,0,0,1,1.582-.542,2.29,2.29,0,0,1,1.582.542,1.778,1.778,0,0,1,.609,1.391,1.778,1.778,0,0,1-.609,1.391,2.29,2.29,0,0,1-1.582.542,2.29,2.29,0,0,1-1.582-.542A1.778,1.778,0,0,1-6.516-15.961Zm11.227.129v3.152H6.8v2.742H4.711v5.8a1.481,1.481,0,0,0,.258,1,1.383,1.383,0,0,0,1.02.281,5.793,5.793,0,0,0,.984-.07V-.105a7.288,7.288,0,0,1-2.227.34A4.137,4.137,0,0,1,1.734-.727,3.939,3.939,0,0,1,.762-3.645V-9.937H-.855V-12.68H.762v-3.152ZM15.9-1.371A4.072,4.072,0,0,1,12.516.234,3.993,3.993,0,0,1,9.357-.979,5.1,5.1,0,0,1,8.285-4.465V-12.68h3.949v8.238a1.419,1.419,0,0,0,1.582,1.629,2.064,2.064,0,0,0,1.934-.973V-12.68h3.973V0h-3.7Zm5.484-5.062a7.746,7.746,0,0,1,1.3-4.746,4.282,4.282,0,0,1,3.633-1.734,3.641,3.641,0,0,1,2.859,1.336V-18h3.961V0H29.59l-.2-1.359A3.739,3.739,0,0,1,26.3.234,4.274,4.274,0,0,1,22.711-1.5,7.991,7.991,0,0,1,21.387-6.434Zm3.949.246q0,3.375,1.969,3.375a1.944,1.944,0,0,0,1.875-1.1V-8.742a1.892,1.892,0,0,0-1.852-1.125q-1.828,0-1.98,2.953Zm15.527-.246a7.746,7.746,0,0,1,1.3-4.746A4.282,4.282,0,0,1,45.8-12.914a3.641,3.641,0,0,1,2.859,1.336V-18h3.961V0H49.066l-.2-1.359A3.739,3.739,0,0,1,45.773.234,4.274,4.274,0,0,1,42.188-1.5,7.991,7.991,0,0,1,40.863-6.434Zm3.949.246q0,3.375,1.969,3.375a1.944,1.944,0,0,0,1.875-1.1V-8.742A1.892,1.892,0,0,0,46.8-9.867q-1.828,0-1.98,2.953ZM61,.234a6.518,6.518,0,0,1-4.723-1.74,6.009,6.009,0,0,1-1.8-4.529v-.328A7.787,7.787,0,0,1,55.189-9.8a5.274,5.274,0,0,1,2.1-2.3,6.35,6.35,0,0,1,3.281-.814,5.489,5.489,0,0,1,4.219,1.658A6.516,6.516,0,0,1,66.34-6.633V-5.1H58.488a2.846,2.846,0,0,0,.926,1.676,2.755,2.755,0,0,0,1.852.609A3.549,3.549,0,0,0,64.2-4.125L66-1.992A5.045,5.045,0,0,1,63.908-.369,7.069,7.069,0,0,1,61,.234Zm-.445-10.1q-1.734,0-2.062,2.3h3.984v-.3a1.956,1.956,0,0,0-.48-1.471A1.912,1.912,0,0,0,60.551-9.867ZM-33.1,18.754a7.646,7.646,0,0,1-1.33,4.717,4.264,4.264,0,0,1-3.592,1.764,3.655,3.655,0,0,1-2.871-1.277v5.918h-3.949V12.32h3.691l.117,1.172a3.656,3.656,0,0,1,2.988-1.406A4.3,4.3,0,0,1-34.4,13.814a7.741,7.741,0,0,1,1.3,4.752Zm-3.949-.246q0-3.375-1.969-3.375a1.859,1.859,0,0,0-1.875,1.008v4.992a1.919,1.919,0,0,0,1.9,1.055q1.887,0,1.945-3.258Zm5.191.035a7.484,7.484,0,0,1,.738-3.381A5.28,5.28,0,0,1-29,12.883a6.388,6.388,0,0,1,3.246-.8,5.83,5.83,0,0,1,4.488,1.764,6.768,6.768,0,0,1,1.641,4.8v.141a6.566,6.566,0,0,1-1.646,4.705,5.846,5.846,0,0,1-4.459,1.74,5.912,5.912,0,0,1-4.348-1.623,6.348,6.348,0,0,1-1.77-4.4Zm3.949.246a4.718,4.718,0,0,0,.551,2.578,1.835,1.835,0,0,0,1.629.82q2.109,0,2.156-3.246v-.4q0-3.41-2.18-3.41-1.98,0-2.145,2.941Zm16.664,2.648a.912.912,0,0,0-.527-.809,8.021,8.021,0,0,0-2-.633,9.138,9.138,0,0,1-2.437-.861,4.083,4.083,0,0,1-1.465-1.295,3.092,3.092,0,0,1-.5-1.746,3.5,3.5,0,0,1,1.441-2.877,5.938,5.938,0,0,1,3.773-1.131,6.579,6.579,0,0,1,4.031,1.137,3.555,3.555,0,0,1,1.523,2.988h-3.961q0-1.523-1.605-1.523a1.591,1.591,0,0,0-1.043.346,1.07,1.07,0,0,0-.422.861.982.982,0,0,0,.516.855,4.872,4.872,0,0,0,1.646.539,14.228,14.228,0,0,1,1.986.5q2.859.984,2.859,3.527a3.321,3.321,0,0,1-1.541,2.824,6.758,6.758,0,0,1-3.99,1.09,6.9,6.9,0,0,1-2.906-.586,4.86,4.86,0,0,1-1.992-1.594,3.609,3.609,0,0,1-.715-2.121h3.691a1.526,1.526,0,0,0,.586,1.283,2.41,2.41,0,0,0,1.441.4,1.9,1.9,0,0,0,1.213-.328A1.05,1.05,0,0,0-11.244,21.438ZM-1.424,25H-5.385V12.32h3.961Zm-4.2-15.961A1.778,1.778,0,0,1-5.01,7.648a2.29,2.29,0,0,1,1.582-.542,2.29,2.29,0,0,1,1.582.542,1.778,1.778,0,0,1,.609,1.391,1.778,1.778,0,0,1-.609,1.391,2.29,2.29,0,0,1-1.582.542A2.29,2.29,0,0,1-5.01,10.43,1.778,1.778,0,0,1-5.619,9.039ZM6.369,22.188a1.756,1.756,0,0,0,1.289-.451,1.654,1.654,0,0,0,.445-1.26h3.7A4.384,4.384,0,0,1,10.313,23.9a5.558,5.558,0,0,1-3.85,1.336A5.627,5.627,0,0,1,2.1,23.5,6.834,6.834,0,0,1,.51,18.7v-.164a7.723,7.723,0,0,1,.709-3.393,5.162,5.162,0,0,1,2.045-2.262,6.1,6.1,0,0,1,3.164-.791,5.488,5.488,0,0,1,3.926,1.371,4.863,4.863,0,0,1,1.453,3.715H8.1a2.168,2.168,0,0,0-.48-1.512,1.658,1.658,0,0,0-1.289-.527q-1.535,0-1.793,1.957A13.809,13.809,0,0,0,4.459,18.8a5.424,5.424,0,0,0,.457,2.648A1.582,1.582,0,0,0,6.369,22.188ZM17.643,25H13.682V12.32h3.961Zm-4.2-15.961a1.778,1.778,0,0,1,.609-1.391,2.29,2.29,0,0,1,1.582-.542,2.29,2.29,0,0,1,1.582.542,1.778,1.778,0,0,1,.609,1.391,1.778,1.778,0,0,1-.609,1.391,2.29,2.29,0,0,1-1.582.542,2.29,2.29,0,0,1-1.582-.542A1.778,1.778,0,0,1,13.447,9.039Zm6.129,9.5a7.484,7.484,0,0,1,.738-3.381,5.28,5.28,0,0,1,2.121-2.279,6.388,6.388,0,0,1,3.246-.8A5.83,5.83,0,0,1,30.17,13.85a6.768,6.768,0,0,1,1.641,4.8v.141a6.566,6.566,0,0,1-1.646,4.705,5.846,5.846,0,0,1-4.459,1.74,5.912,5.912,0,0,1-4.348-1.623,6.348,6.348,0,0,1-1.77-4.4Zm3.949.246a4.718,4.718,0,0,0,.551,2.578,1.835,1.835,0,0,0,1.629.82q2.109,0,2.156-3.246v-.4q0-3.41-2.18-3.41-1.98,0-2.145,2.941ZM26.221,7h4.172l-3.258,3.68-3.223-.006Zm10.957,5.32.129,1.488a4.3,4.3,0,0,1,3.621-1.723,3.618,3.618,0,0,1,2.959,1.184A5.635,5.635,0,0,1,44.9,16.832V25H40.939V17a2.14,2.14,0,0,0-.387-1.412,1.789,1.789,0,0,0-1.406-.451,1.883,1.883,0,0,0-1.723.914V25H33.475V12.32Z" transform="translate(970.245 4453.318)" fill="#12263f"/>
    <path id="Trazado_143179" data-name="Trazado 143179" d="M-55.2-5.777a6.231,6.231,0,0,1-.961,3.146A5.8,5.8,0,0,1-58.629-.516a8.4,8.4,0,0,1-3.627.75,6.7,6.7,0,0,1-5.3-2.191,9.048,9.048,0,0,1-1.934-6.187v-.844a10.328,10.328,0,0,1,.873-4.389A6.615,6.615,0,0,1-66.1-16.283a7.013,7.013,0,0,1,3.8-1.025,7.354,7.354,0,0,1,4.992,1.635,6.459,6.459,0,0,1,2.145,4.506h-4.1a3.056,3.056,0,0,0-.785-2.238,3.229,3.229,0,0,0-2.25-.68,2.457,2.457,0,0,0-2.25,1.148A7.381,7.381,0,0,0-65.3-9.27v1.207a8.167,8.167,0,0,0,.686,3.9,2.509,2.509,0,0,0,2.361,1.172,3.159,3.159,0,0,0,2.168-.668,2.835,2.835,0,0,0,.8-2.121Zm1.266-.68A7.484,7.484,0,0,1-53.2-9.838a5.28,5.28,0,0,1,2.121-2.279,6.388,6.388,0,0,1,3.246-.8,5.83,5.83,0,0,1,4.488,1.764,6.768,6.768,0,0,1,1.641,4.8v.141a6.566,6.566,0,0,1-1.646,4.705A5.846,5.846,0,0,1-47.807.234a5.912,5.912,0,0,1-4.348-1.623,6.348,6.348,0,0,1-1.77-4.4Zm3.949.246a4.718,4.718,0,0,0,.551,2.578,1.835,1.835,0,0,0,1.629.82q2.109,0,2.156-3.246v-.4q0-3.41-2.18-3.41-1.98,0-2.145,2.941Zm13.652-6.469.129,1.488a4.3,4.3,0,0,1,3.621-1.723,3.618,3.618,0,0,1,2.959,1.184,5.635,5.635,0,0,1,1.014,3.563V0h-3.961V-8a2.14,2.14,0,0,0-.387-1.412,1.789,1.789,0,0,0-1.406-.451,1.883,1.883,0,0,0-1.723.914V0h-3.949V-12.68Zm16.547,9.117a.912.912,0,0,0-.527-.809,8.021,8.021,0,0,0-2-.633,9.138,9.138,0,0,1-2.437-.861A4.083,4.083,0,0,1-26.221-7.16a3.092,3.092,0,0,1-.5-1.746,3.5,3.5,0,0,1,1.441-2.877,5.938,5.938,0,0,1,3.773-1.131,6.579,6.579,0,0,1,4.031,1.137,3.555,3.555,0,0,1,1.523,2.988h-3.961q0-1.523-1.605-1.523a1.591,1.591,0,0,0-1.043.346,1.07,1.07,0,0,0-.422.861.982.982,0,0,0,.516.855,4.872,4.872,0,0,0,1.646.539,14.228,14.228,0,0,1,1.986.5q2.859.984,2.859,3.527A3.321,3.321,0,0,1-17.52-.855,6.758,6.758,0,0,1-21.51.234a6.9,6.9,0,0,1-2.906-.586,4.86,4.86,0,0,1-1.992-1.594,3.609,3.609,0,0,1-.715-2.121h3.691a1.526,1.526,0,0,0,.586,1.283,2.41,2.41,0,0,0,1.441.4,1.9,1.9,0,0,0,1.213-.328A1.05,1.05,0,0,0-19.787-3.562ZM-9.967,0h-3.961V-12.68h3.961Zm-4.2-15.961a1.778,1.778,0,0,1,.609-1.391,2.29,2.29,0,0,1,1.582-.542,2.29,2.29,0,0,1,1.582.542,1.778,1.778,0,0,1,.609,1.391,1.778,1.778,0,0,1-.609,1.391,2.29,2.29,0,0,1-1.582.542,2.29,2.29,0,0,1-1.582-.542A1.778,1.778,0,0,1-14.162-15.961ZM-.9-3.562a.912.912,0,0,0-.527-.809,8.021,8.021,0,0,0-2-.633,9.138,9.138,0,0,1-2.437-.861A4.083,4.083,0,0,1-7.33-7.16a3.092,3.092,0,0,1-.5-1.746,3.5,3.5,0,0,1,1.441-2.877,5.938,5.938,0,0,1,3.773-1.131,6.579,6.579,0,0,1,4.031,1.137A3.555,3.555,0,0,1,2.936-8.789H-1.025q0-1.523-1.605-1.523a1.591,1.591,0,0,0-1.043.346,1.07,1.07,0,0,0-.422.861.982.982,0,0,0,.516.855,4.872,4.872,0,0,0,1.646.539,14.228,14.228,0,0,1,1.986.5q2.859.984,2.859,3.527A3.321,3.321,0,0,1,1.371-.855,6.758,6.758,0,0,1-2.619.234,6.9,6.9,0,0,1-5.525-.352,4.86,4.86,0,0,1-7.518-1.945a3.609,3.609,0,0,1-.715-2.121h3.691a1.526,1.526,0,0,0,.586,1.283,2.41,2.41,0,0,0,1.441.4A1.9,1.9,0,0,0-1.3-2.707,1.05,1.05,0,0,0-.9-3.562ZM9.357-15.832v3.152h2.086v2.742H9.357v5.8a1.481,1.481,0,0,0,.258,1,1.383,1.383,0,0,0,1.02.281,5.793,5.793,0,0,0,.984-.07V-.105a7.288,7.288,0,0,1-2.227.34A4.137,4.137,0,0,1,6.381-.727a3.939,3.939,0,0,1-.973-2.918V-9.937H3.791V-12.68H5.408v-3.152ZM19.131.234a6.518,6.518,0,0,1-4.723-1.74,6.009,6.009,0,0,1-1.8-4.529v-.328A7.787,7.787,0,0,1,13.324-9.8a5.274,5.274,0,0,1,2.1-2.3,6.35,6.35,0,0,1,3.281-.814,5.489,5.489,0,0,1,4.219,1.658,6.516,6.516,0,0,1,1.547,4.623V-5.1H16.623a2.846,2.846,0,0,0,.926,1.676,2.755,2.755,0,0,0,1.852.609,3.549,3.549,0,0,0,2.93-1.312l1.8,2.133A5.045,5.045,0,0,1,22.043-.369,7.069,7.069,0,0,1,19.131.234Zm-.445-10.1q-1.734,0-2.062,2.3h3.984v-.3a1.956,1.956,0,0,0-.48-1.471A1.912,1.912,0,0,0,18.686-9.867Zm11-2.812.129,1.488a4.3,4.3,0,0,1,3.621-1.723A3.618,3.618,0,0,1,36.4-11.73a5.635,5.635,0,0,1,1.014,3.563V0H33.451V-8a2.14,2.14,0,0,0-.387-1.412,1.789,1.789,0,0,0-1.406-.451,1.883,1.883,0,0,0-1.723.914V0H25.986V-12.68Zm15.27,9.867a1.756,1.756,0,0,0,1.289-.451,1.654,1.654,0,0,0,.445-1.26h3.7A4.384,4.384,0,0,1,48.9-1.1,5.558,5.558,0,0,1,45.053.234,5.627,5.627,0,0,1,40.693-1.5,6.834,6.834,0,0,1,39.1-6.3v-.164a7.723,7.723,0,0,1,.709-3.393,5.162,5.162,0,0,1,2.045-2.262,6.1,6.1,0,0,1,3.164-.791,5.488,5.488,0,0,1,3.926,1.371A4.863,4.863,0,0,1,50.4-7.828h-3.7a2.168,2.168,0,0,0-.48-1.512,1.658,1.658,0,0,0-1.289-.527q-1.535,0-1.793,1.957A13.809,13.809,0,0,0,43.049-6.2a5.424,5.424,0,0,0,.457,2.648A1.582,1.582,0,0,0,44.959-2.812ZM56.232,0H52.271V-12.68h3.961Zm-4.2-15.961a1.778,1.778,0,0,1,.609-1.391,2.29,2.29,0,0,1,1.582-.542,2.29,2.29,0,0,1,1.582.542,1.778,1.778,0,0,1,.609,1.391,1.778,1.778,0,0,1-.609,1.391,2.29,2.29,0,0,1-1.582.542,2.29,2.29,0,0,1-1.582-.542A1.778,1.778,0,0,1,52.037-15.961ZM65.807,0a4.459,4.459,0,0,1-.375-1.137A3.672,3.672,0,0,1,62.385.234,4.5,4.5,0,0,1,59.338-.85a3.45,3.45,0,0,1-1.254-2.725,3.546,3.546,0,0,1,1.523-3.117,7.761,7.761,0,0,1,4.43-1.055h1.219v-.671q0-1.755-1.512-1.755a1.236,1.236,0,0,0-1.406,1.39H58.389a3.54,3.54,0,0,1,1.564-2.985,6.575,6.575,0,0,1,3.99-1.147,5.764,5.764,0,0,1,3.832,1.184,4.115,4.115,0,0,1,1.441,3.246v5.613A5.748,5.748,0,0,0,69.756-.2V0ZM63.334-2.578a2.2,2.2,0,0,0,1.225-.316,1.983,1.983,0,0,0,.7-.715V-5.637H64.107q-2.062,0-2.062,1.852a1.131,1.131,0,0,0,.363.873A1.315,1.315,0,0,0,63.334-2.578ZM-30.645,21.836h7.16V25H-34.758V7.938h4.113Zm8.215-3.293a7.484,7.484,0,0,1,.738-3.381,5.28,5.28,0,0,1,2.121-2.279,6.388,6.388,0,0,1,3.246-.8,5.83,5.83,0,0,1,4.488,1.764,6.768,6.768,0,0,1,1.641,4.8v.141a6.566,6.566,0,0,1-1.646,4.705,5.846,5.846,0,0,1-4.459,1.74,5.912,5.912,0,0,1-4.348-1.623,6.348,6.348,0,0,1-1.77-4.4Zm3.949.246a4.718,4.718,0,0,0,.551,2.578,1.835,1.835,0,0,0,1.629.82q2.109,0,2.156-3.246v-.4q0-3.41-2.18-3.41-1.98,0-2.145,2.941ZM-15.785,7h4.172l-3.258,3.68-3.223-.006Zm6.867,11.566a8.561,8.561,0,0,1,.633-3.4,5.094,5.094,0,0,1,1.816-2.279,4.788,4.788,0,0,1,2.754-.8A3.807,3.807,0,0,1-.621,13.422l.141-1.1H3.105v12.2a5.346,5.346,0,0,1-.779,2.912A5,5,0,0,1,.07,29.33a8.292,8.292,0,0,1-3.422.662,7.153,7.153,0,0,1-2.7-.527,4.876,4.876,0,0,1-2-1.371l1.652-2.32a3.621,3.621,0,0,0,2.906,1.3q2.625,0,2.625-2.7v-.4a3.708,3.708,0,0,1-2.871,1.254,4.583,4.583,0,0,1-3.75-1.775,7.356,7.356,0,0,1-1.43-4.752Zm3.961.246a4.511,4.511,0,0,0,.586,2.467,1.849,1.849,0,0,0,1.641.908,2.1,2.1,0,0,0,1.863-.855V16a2.045,2.045,0,0,0-1.84-.867,1.861,1.861,0,0,0-1.652.943A5.144,5.144,0,0,0-4.957,18.813ZM9.516,25H5.555V12.32H9.516ZM5.32,9.039A1.778,1.778,0,0,1,5.93,7.648a2.29,2.29,0,0,1,1.582-.542,2.29,2.29,0,0,1,1.582.542A1.778,1.778,0,0,1,9.7,9.039a1.778,1.778,0,0,1-.609,1.391,2.29,2.29,0,0,1-1.582.542A2.29,2.29,0,0,1,5.93,10.43,1.778,1.778,0,0,1,5.32,9.039ZM17.309,22.188a1.756,1.756,0,0,0,1.289-.451,1.654,1.654,0,0,0,.445-1.26h3.7A4.384,4.384,0,0,1,21.252,23.9a5.558,5.558,0,0,1-3.85,1.336A5.627,5.627,0,0,1,13.043,23.5a6.834,6.834,0,0,1-1.594-4.8v-.164a7.723,7.723,0,0,1,.709-3.393A5.162,5.162,0,0,1,14.2,12.877a6.1,6.1,0,0,1,3.164-.791,5.488,5.488,0,0,1,3.926,1.371,4.863,4.863,0,0,1,1.453,3.715h-3.7a2.168,2.168,0,0,0-.48-1.512,1.658,1.658,0,0,0-1.289-.527q-1.535,0-1.793,1.957A13.809,13.809,0,0,0,15.4,18.8a5.424,5.424,0,0,0,.457,2.648A1.582,1.582,0,0,0,17.309,22.188ZM31.559,25a4.459,4.459,0,0,1-.375-1.137,3.672,3.672,0,0,1-3.047,1.371A4.5,4.5,0,0,1,25.09,24.15a3.45,3.45,0,0,1-1.254-2.725,3.546,3.546,0,0,1,1.523-3.117,7.761,7.761,0,0,1,4.43-1.055h1.219v-.671q0-1.755-1.512-1.755a1.236,1.236,0,0,0-1.406,1.39H24.141a3.54,3.54,0,0,1,1.564-2.985,6.575,6.575,0,0,1,3.99-1.147,5.764,5.764,0,0,1,3.832,1.184,4.115,4.115,0,0,1,1.441,3.246v5.613a5.748,5.748,0,0,0,.539,2.672V25Zm-2.473-2.578a2.2,2.2,0,0,0,1.225-.316,1.983,1.983,0,0,0,.7-.715V19.363H29.859q-2.062,0-2.062,1.852a1.131,1.131,0,0,0,.363.873A1.315,1.315,0,0,0,29.086,22.422Z" transform="translate(1067.757 4135)" fill="#12263f"/>
  </g>
</svg>
