<svg xmlns="http://www.w3.org/2000/svg" width="102" height="103" viewBox="0 0 102 103">
  <g id="Grupo_91935" data-name="Grupo 91935" transform="translate(-754 -5701.999)">
    <ellipse id="Elipse_4104" data-name="Elipse 4104" cx="51" cy="51.5" rx="51" ry="51.5" transform="translate(754 5701.999)" fill="#f0ad65"/>
    <g id="Grupo_91670" data-name="Grupo 91670" transform="translate(-64.965 5494.429)">
      <path id="Trazado_142201" data-name="Trazado 142201" d="M837.372,271.993c.441.073.761.273.741.775-.018.463-.323.645-.742.693a.733.733,0,0,1-.657-.7C836.695,272.335,836.982,272.1,837.372,271.993Z" transform="translate(-0.045 -28.643)" fill="#12263f"/>
      <path id="Trazado_142202" data-name="Trazado 142202" d="M837.327,241.967a.835.835,0,0,1-.676-.943c.005-2.208-.03-4.417.014-6.624a3.541,3.541,0,0,1,3.783-3.574q18.522,0,37.045.011a1.215,1.215,0,0,0,1.142-.6,7.862,7.862,0,0,1,12.861.018,1.2,1.2,0,0,0,1.153.581c2.161-.024,4.326.076,6.482-.034a3.841,3.841,0,0,1,4.156,4.191c-.048,17.357-.024,34.715-.027,52.072a7.457,7.457,0,0,1-.07,1.134,3.535,3.535,0,0,1-3.358,3.025c-.213.012-.427.008-.641.008q-29.244,0-58.488.006a4.041,4.041,0,0,1-2.725-.824,3.817,3.817,0,0,1-1.33-3.157q.013-18.271.005-36.543c0-1.164.01-2.327,0-3.491a.9.9,0,0,1,.679-1.021c.569-.174.788.169.894.63a5.039,5.039,0,0,1,.048,1.136q0,19.231,0,38.462a7.873,7.873,0,0,0,.059,1.35,2.015,2.015,0,0,0,1.922,1.784c.284.027.569.018.854.018h57.626c.285,0,.57.007.855-.016a2.037,2.037,0,0,0,2.02-1.924,7.038,7.038,0,0,0,.036-.924q0-25.677,0-51.354a6.828,6.828,0,0,0-.044-1,2.023,2.023,0,0,0-2.124-1.881c-1.8-.032-3.609.024-5.411-.027-.371.069-.922-.227-1.084.205a2.678,2.678,0,0,0,.185,1.443c.042.181.243.2.41.213a6.236,6.236,0,0,0,.919-.014c1.071-.016,2.139-.014,3.208-.007,1.394.009,1.68.295,1.7,1.662,0,.166,0,.333,0,.5q0,24.539,0,49.078c0,2.076-.148,2.224-2.23,2.224H857.277a10.393,10.393,0,0,1-1.139-.025c-.55-.061-.953-.292-1.009-.906.039-.613.429-.86.981-.928a9.276,9.276,0,0,1,1.139-.029h38.884c1.376,0,1.378,0,1.378-1.362q0-23.5,0-47c0-1.324,0-1.324-1.346-1.327-.57,0-1.139.01-1.707-.01-1.386-.1-1.381-.1-1.866,1.17a37.007,37.007,0,0,1-4.414,7.622,33.494,33.494,0,0,1-2.236,2.95c-.666.769-1.118.8-1.741.014a45.823,45.823,0,0,1-6.583-10.367c-.028-.066-.054-.132-.08-.2-.491-1.277-.491-1.277-1.858-1.2-10.545.032-21.087.005-31.63.017-1.793,0-1.642-.174-1.643,1.652q0,23.328,0,46.655c0,1.376,0,1.376,1.349,1.378,2.018,0,4.037-.014,6.055.008.918.01,1.146.189,1.347.937-.24.734-.492.924-1.372.936-1.661.023-3.323.006-4.985.008-.9,0-1.8.011-2.706,0-1.2-.019-1.548-.377-1.575-1.6,0-.213,0-.427,0-.641q0-24.529,0-49.059c0-2.014.147-2.165,2.126-2.164q16.485.007,32.967.005c1.388.087,1.376.086,1.561-1.282.054-.395-.039-.588-.457-.569-.211.009-.423,0-.637,0-.381.035-.76.021-1.14.021H841.268c-.332,0-.665-.011-1,.011a1.99,1.99,0,0,0-1.924,1.685,10.455,10.455,0,0,0-.077,1.988c-.012,1.613.024,3.227-.017,4.84C838.233,241.809,837.991,242.03,837.327,241.967ZM883.6,228.5a6.294,6.294,0,0,0-4.455,8.611,48.8,48.8,0,0,0,5.637,9.022c.237.321.381.24.574-.031.717-1,1.469-1.981,2.166-3a33.409,33.409,0,0,0,3.616-6.427c1.57-3.926-1.775-8.559-6.518-8.33C884.4,228.377,884,228.416,883.6,228.5Z" fill="#12263f"/>
      <path id="Trazado_142203" data-name="Trazado 142203" d="M879.864,389.936c.075-.41.277-.7.73-.706s.647.307.737.705c-.094.393-.3.7-.738.7S879.94,390.343,879.864,389.936Z" transform="translate(-27.457 -103.119)" fill="#12263f"/>
      <path id="Trazado_142204" data-name="Trazado 142204" d="M896.135,281.528a.927.927,0,0,1-1.111-.539,9.835,9.835,0,0,0-2.081-2.509,15.83,15.83,0,0,1-4.778-8c-1.608-6.03-5.5-9.729-11.616-10.946a14.5,14.5,0,0,0-6.042,28.347,17.38,17.38,0,0,1,8.562,5.18,10.094,10.094,0,0,0,16.423-2.61,9.7,9.7,0,0,0,.933-3.84c.017-.461.094-.855.617-.985.65.015.828.382.821.983A11.35,11.35,0,0,1,889.4,297.2a11.024,11.024,0,0,1-11.63-3.417,15.226,15.226,0,0,0-7.731-4.538,15.934,15.934,0,1,1,19.385-19.577,15.2,15.2,0,0,0,4.787,8.054,10.411,10.411,0,0,1,2.047,2.541A.9.9,0,0,1,896.135,281.528Z" transform="translate(-13.652 -19.667)" fill="#12263f"/>
      <path id="Trazado_142205" data-name="Trazado 142205" d="M969.981,361.461c-.972,0-1.944-.006-2.915,0-.478,0-.875-.108-.9-.669-.023-.612.416-.744.906-.746q2.88-.012,5.759,0c.5,0,.925.177.9.761-.021.553-.439.659-.912.655C971.877,361.456,970.929,361.461,969.981,361.461Z" transform="translate(-82.283 -84.577)" fill="#12263f"/>
      <path id="Trazado_142206" data-name="Trazado 142206" d="M969.931,369.279c.972,0,1.945.007,2.917,0,.49,0,.884.155.891.687.008.57-.4.743-.919.742q-2.881,0-5.762,0c-.476,0-.871-.139-.88-.7-.01-.6.391-.736.907-.731C968.034,369.287,968.982,369.279,969.931,369.279Z" transform="translate(-82.288 -90.442)" fill="#12263f"/>
      <path id="Trazado_142207" data-name="Trazado 142207" d="M963.174,327.693c-.392-.032-.74-.143-.842-.579a.734.734,0,0,1,.44-.851c.436-.031.812.073.931.545C963.815,327.252,963.5,327.483,963.174,327.693Z" transform="translate(-79.831 -63.115)" fill="#12263f"/>
      <path id="Trazado_142208" data-name="Trazado 142208" d="M962.448,237.65a3.986,3.986,0,1,1-3.991,3.977A3.989,3.989,0,0,1,962.448,237.65Zm.011,1.424a2.563,2.563,0,0,0-.067,5.126,2.6,2.6,0,0,0,2.615-2.536A2.565,2.565,0,0,0,962.459,239.074Z" transform="translate(-77.384 -6.826)" fill="#12263f"/>
      <path id="Trazado_142209" data-name="Trazado 142209" d="M882.372,271.159a10.9,10.9,0,0,1,10.752,8.2,20.526,20.526,0,0,0,6.116,10.294,6.674,6.674,0,0,1-3.47,11.512,6.517,6.517,0,0,1-6.286-2.365,17.9,17.9,0,0,0-7.409-5.008c-.867-.314-1.762-.55-2.652-.8a11.129,11.129,0,0,1,1.1-21.687A13.889,13.889,0,0,1,882.372,271.159Zm-1.314,1.5a9.816,9.816,0,0,0-8.313,8.765,9.654,9.654,0,0,0,7.151,10.19,21.8,21.8,0,0,1,11,6.57,5.258,5.258,0,1,0,7.454-7.411,21.9,21.9,0,0,1-6.594-11.063,9.559,9.559,0,0,0-9.567-7.13A10.52,10.52,0,0,0,881.058,272.662Z" transform="translate(-22.018 -28.113)" fill="#12263f"/>
      <path id="Trazado_142210" data-name="Trazado 142210" d="M890.431,283.755a6.374,6.374,0,0,1,6.22,4.807,24.329,24.329,0,0,0,5.253,10.275,28.045,28.045,0,0,0,2.057,2.068,2.113,2.113,0,0,1,.212,3.144,2.075,2.075,0,0,1-3.144-.167,23.992,23.992,0,0,0-12.341-7.317,6.513,6.513,0,0,1,1.744-12.809Zm-1.573,1.664a5.095,5.095,0,0,0,.435,9.849,25.579,25.579,0,0,1,7.562,3.2,23.967,23.967,0,0,1,4.8,4c.145.157.29.313.435.471.321.352.688.453,1.049.1s.242-.735-.1-1.047a25.748,25.748,0,0,1-3.421-3.712,25.274,25.274,0,0,1-4.253-9.083,5.052,5.052,0,0,0-4.962-4.014A4.458,4.458,0,0,0,888.858,285.419Z" transform="translate(-29.973 -36.115)" fill="#12263f"/>
    </g>
  </g>
</svg>
