<svg xmlns="http://www.w3.org/2000/svg" xmlns:xlink="http://www.w3.org/1999/xlink" width="302" height="169.877" viewBox="0 0 302 169.877">
  <defs>
    <clipPath id="clip-path">
      <path id="Trazado_142103" data-name="Trazado 142103" d="M132.675,258.851c-1.085,2.565,3.943,11.8,3.748,14.49-.058.8-1.484,3.89-2.726,6.446a27.087,27.087,0,0,0,11.4,5.659c2.269-.123,3.955-.626,4.107-1.761.522-3.907-2.575-7.583-2.36-10.207.163-1.985,1.655-2.779,1.938-5.821.073-.784-.412-2.049-.293-2.765.341-2.057,1.845-2.7,1.994-4.583.128-1.6-7.277-4.968-7.277-4.968-3.206.123-9.907,2.019-10.537,3.51" transform="translate(-132.522 -255.341)" fill="none"/>
    </clipPath>
    <clipPath id="clip-path-2">
      <path id="Trazado_142141" data-name="Trazado 142141" d="M535.236,240.851c1.085,2.565-3.944,11.8-3.749,14.49.058.8,1.484,3.89,2.726,6.446a27.085,27.085,0,0,1-11.4,5.659c-2.269-.123-3.955-.626-4.107-1.761-.522-3.907,2.575-7.583,2.36-10.207-.162-1.985-1.655-2.779-1.938-5.821-.074-.784.411-2.049.293-2.765-.341-2.057-1.846-2.7-1.995-4.583-.128-1.6,7.277-4.968,7.277-4.968,3.206.123,9.906,2.019,10.537,3.51" transform="translate(-517.42 -237.341)" fill="none"/>
    </clipPath>
  </defs>
  <g id="Grupo_91665" data-name="Grupo 91665" transform="translate(-38.691 -67.05)">
    <path id="Trazado_142071" data-name="Trazado 142071" d="M318.129,221.762a18.15,18.15,0,0,0,4.411-2.37c6-4.47,7.964-12.473,9.228-19.852,1.5-8.737,2.591-17.69,1.189-26.443s-5.592-17.384-12.858-22.463c-8.157-5.7-18.906-6.176-28.751-4.72s-19.418,4.617-29.334,5.46c-3.435.292-7.376.1-9.622-2.517-2.122-2.471-1.892-6.14-1.339-9.35,2.365-13.726,8.443-26.8,9-40.72.189-4.739-.315-9.641-2.539-13.83a25.966,25.966,0,0,0-8.083-8.645c-11.207-8.01-25.744-10.43-39.419-8.764s-26.623,7.116-38.738,13.673c-13.361,7.231-26.039,16.1-36.48,27.206-5.131,5.456-15.993,25.222-18.1,28.74a1.934,1.934,0,0,1-3.443-1.737,24.5,24.5,0,0,0,2.121-7.644c.295-4.07-1.265-8.545-4.821-10.547-3.31-1.863-7.435-1.2-11.087-.157-18.173,5.192-33.24,18.321-44.4,33.573-9.437,12.9-16.652,28.178-16.363,44.155.241,13.287,6.7,26.909,17.558,34.1-10.141.7-17.082,2.13-17.082,3.775,0,2.344,14.084,4.244,31.458,4.244s31.458-1.9,31.458-4.244a.716.716,0,0,0-.16-.429q5.928-.936,11.792-2.226c6.425,3.431,33.227,6.006,65.32,6.006,36.886,0,66.788-3.4,66.788-7.595,0-.527-.474-1.042-1.374-1.539,10.5-.074,21.005-.485,31.488-.9,5.448-.214,10.9-.429,16.345-.755-.933.555-1.445,1.153-1.445,1.775,0,2.92,11.158,5.287,24.923,5.287s24.922-2.367,24.922-5.287C340.691,224.274,330.786,222.014,318.129,221.762Z" transform="translate(0)" fill="#dde897"/>
    <path id="Trazado_142072" data-name="Trazado 142072" d="M325.086,414.055H49.284a35.372,35.372,0,0,0,7.575,6.836c-10.141.7-17.082,2.13-17.082,3.775,0,2.344,14.084,4.244,31.458,4.244s31.458-1.9,31.458-4.244a.716.716,0,0,0-.16-.429q5.928-.936,11.792-2.226c6.425,3.431,33.227,6.006,65.32,6.006,36.886,0,66.788-3.4,66.788-7.595,0-.527-.474-1.042-1.374-1.539,10.5-.074,21.005-.485,31.488-.9,5.448-.214,10.9-.429,16.345-.755-.933.555-1.445,1.153-1.445,1.775,0,2.92,11.158,5.287,24.923,5.287s24.922-2.367,24.922-5.287C341.292,416.738,334.55,414.8,325.086,414.055Z" transform="translate(-0.601 -191.982)" fill="#f4f7dc"/>
    <g id="Grupo_91642" data-name="Grupo 91642" transform="translate(43.495 194.207)">
      <path id="Trazado_142073" data-name="Trazado 142073" d="M82.569,369.283l-7.72,6.174H49.443l7.764-6.214h.5Z" transform="translate(-49.443 -361.396)" fill="#dd7458"/>
      <path id="Trazado_142074" data-name="Trazado 142074" d="M92.8,369.283l-7.72,6.174H67.943v-6.214Z" transform="translate(-59.679 -361.396)" fill="#dd7458"/>
      <path id="Trazado_142075" data-name="Trazado 142075" d="M73.277,353.458V351.68H66.4v1.778H64.86v13.989H86.08V353.458Z" transform="translate(-57.973 -351.68)" fill="#48c9aa"/>
      <path id="Trazado_142076" data-name="Trazado 142076" d="M69.61,355.291v-1.778H62.734v1.778H61.193V369.28h21.22V355.291Z" transform="translate(-55.944 -352.694)" fill="#473484"/>
      <path id="Trazado_142077" data-name="Trazado 142077" d="M65.277,357.791v-1.778H58.4v1.778H56.86V371.78H78.08V357.791Z" transform="translate(-53.547 -354.077)" fill="#f2bf1d"/>
      <path id="Trazado_142078" data-name="Trazado 142078" d="M106.316,375.455l7.763-6.216v25.384l-7.763,6.216Z" transform="translate(-80.908 -361.394)" fill="#7c2727"/>
      <rect id="Rectángulo_35292" data-name="Rectángulo 35292" width="25.407" height="25.384" transform="translate(0 14.061)" fill="#a04c3c"/>
    </g>
    <g id="Grupo_91654" data-name="Grupo 91654" transform="translate(126.118 80.567)">
      <path id="Trazado_142079" data-name="Trazado 142079" d="M355.642,109.7l.782-10.945-20.774-1.452-4.691,2.569-.447,7.818-8.153,3.239L357.932,128.1l3.24-3.53,1.2-14.141Z" transform="translate(-283.059 -97.306)" fill="#7c2727"/>
      <path id="Trazado_142080" data-name="Trazado 142080" d="M338.023,264.372l10.237-128.11-91.634-7.322L251.29,131.9l-4.9,125.154,86.32,9.986Z" transform="translate(-241.028 -114.807)" fill="#7c2727"/>
      <rect id="Rectángulo_35293" data-name="Rectángulo 35293" width="128.518" height="91.926" transform="translate(101.871 24.135) rotate(94.569)" fill="#a04c3c"/>
      <rect id="Rectángulo_35294" data-name="Rectángulo 35294" width="105.419" height="77.024" transform="translate(93.943 28.352) rotate(94.569)" fill="#fff"/>
      <path id="Trazado_142081" data-name="Trazado 142081" d="M349.955,116.576l.987-11.616-21.717-1.846-.987,11.616-7.575-.644-1.2,14.141,36.868,3.133,1.2-14.141Z" transform="translate(-281.456 -100.52)" fill="#d66741"/>
      <text id="ISO" transform="matrix(0.996, 0.084, -0.084, 0.996, 21.774, 41.456)" fill="#343a7f" font-size="13" font-family="Montserrat-SemiBold, Montserrat" font-weight="600"><tspan x="0" y="0">ISO</tspan></text>
      <g id="Grupo_91643" data-name="Grupo 91643" transform="translate(61.973 103.552)" opacity="0.38">
        <path id="Trazado_142082" data-name="Trazado 142082" d="M385.172,356.556,373.11,381.462l6.589-2.345,1.9,6.478,11.95-26.023Z" transform="translate(-373.11 -344.29)" fill="#343a7f"/>
        <path id="Trazado_142083" data-name="Trazado 142083" d="M403.34,366.721l2.9,27.521,4.36-5.469,5.031,4.5-3.58-28.411Z" transform="translate(-389.835 -348.885)" fill="#343a7f"/>
        <path id="Trazado_142084" data-name="Trazado 142084" d="M403.175,351.222l-1.842.517-1.592,1.061-1.912-.077-1.842.517-1.794-.664-1.912-.077-1.5-1.186-1.794-.664-1.061-1.592-1.5-1.186-.517-1.842-1.061-1.592.077-1.912-.517-1.842.664-1.794.077-1.912,1.186-1.5.664-1.794,1.592-1.061,1.186-1.5,1.842-.517,1.592-1.061,1.912.077,1.842-.517,1.794.664,1.912.077,1.5,1.186,1.794.664,1.061,1.592,1.5,1.186.517,1.842L408.1,337.9l-.077,1.912.517,1.842-.664,1.794-.077,1.912-1.186,1.5-.664,1.794-1.592,1.061Z" transform="translate(-379.358 -329.099)" fill="#343a7f"/>
        <circle id="Elipse_4129" data-name="Elipse 4129" cx="9.549" cy="9.549" r="9.549" transform="translate(7.567 2.522)" fill="#343a7f"/>
      </g>
      <g id="Grupo_91645" data-name="Grupo 91645" transform="translate(60.633 103.105)">
        <path id="Trazado_142085" data-name="Trazado 142085" d="M382.172,355.556,370.11,380.462l6.589-2.345,1.9,6.478,11.95-26.023Z" transform="translate(-370.11 -343.29)" fill="#473484"/>
        <path id="Trazado_142086" data-name="Trazado 142086" d="M400.34,365.721l2.9,27.521,4.36-5.469,5.031,4.5-3.58-28.411Z" transform="translate(-386.835 -347.885)" fill="#343a7f"/>
        <path id="Trazado_142087" data-name="Trazado 142087" d="M400.175,350.222l-1.842.517-1.592,1.061-1.912-.077-1.842.517-1.794-.664-1.912-.077-1.5-1.186-1.794-.664-1.061-1.592-1.5-1.186-.517-1.842-1.061-1.592.077-1.912-.517-1.842.664-1.794.077-1.912,1.186-1.5.664-1.794,1.592-1.061,1.186-1.5,1.842-.517,1.592-1.061,1.912.077,1.842-.517,1.794.664,1.912.077,1.5,1.186,1.794.664,1.061,1.592,1.5,1.186.517,1.842L405.1,336.9l-.077,1.912.517,1.842-.664,1.794-.077,1.912-1.186,1.5-.664,1.794-1.592,1.061Z" transform="translate(-376.358 -328.099)" fill="#f2bf1d"/>
        <g id="Grupo_91644" data-name="Grupo 91644" transform="translate(7.343 2.298)">
          <path id="Trazado_142088" data-name="Trazado 142088" d="M396.32,352.788a9.773,9.773,0,1,1,9.773-9.773A9.784,9.784,0,0,1,396.32,352.788Zm0-19.1a9.326,9.326,0,1,0,9.326,9.326A9.337,9.337,0,0,0,396.32,333.69Z" transform="translate(-386.547 -333.243)" fill="#fff"/>
        </g>
      </g>
      <path id="Trazado_142089" data-name="Trazado 142089" d="M406.428,126.688l-3.239,3.574-1.2,14.141s.613-9.546,3.443-11.929Z" transform="translate(-327.113 -113.562)" fill="#6d1b1b"/>
      <g id="Grupo_91646" data-name="Grupo 91646" transform="translate(19.197 51.822)">
        <path id="Trazado_142090" data-name="Trazado 142090" d="M345.042,219.56h-.02l-67.458-5.808a.223.223,0,0,1-.2-.242.22.22,0,0,1,.242-.2l67.458,5.808a.223.223,0,0,1-.019.446Z" transform="translate(-277.36 -213.305)" fill="#6b0943"/>
      </g>
      <g id="Grupo_91647" data-name="Grupo 91647" transform="translate(18.527 56.736)">
        <path id="Trazado_142091" data-name="Trazado 142091" d="M343.542,230.56h-.02l-67.458-5.808a.223.223,0,0,1-.2-.242.219.219,0,0,1,.242-.2l67.458,5.808a.223.223,0,0,1-.019.446Z" transform="translate(-275.86 -224.305)" fill="#6b0943"/>
      </g>
      <g id="Grupo_91648" data-name="Grupo 91648" transform="translate(18.304 61.873)">
        <path id="Trazado_142092" data-name="Trazado 142092" d="M343.042,242.059h-.02l-67.458-5.808a.223.223,0,0,1-.2-.242.218.218,0,0,1,.242-.2l67.458,5.808a.223.223,0,0,1-.019.446Z" transform="translate(-275.36 -235.804)" fill="#6b0943"/>
      </g>
      <g id="Grupo_91649" data-name="Grupo 91649" transform="translate(17.634 66.788)">
        <path id="Trazado_142093" data-name="Trazado 142093" d="M341.542,253.06h-.02l-67.458-5.808a.223.223,0,0,1-.2-.242.219.219,0,0,1,.242-.2l67.458,5.808a.223.223,0,0,1-.019.446Z" transform="translate(-273.86 -246.806)" fill="#6b0943"/>
      </g>
      <g id="Grupo_91650" data-name="Grupo 91650" transform="translate(16.517 80.749)">
        <path id="Trazado_142094" data-name="Trazado 142094" d="M339.042,284.311h-.02L271.564,278.5a.223.223,0,1,1,.038-.445l67.458,5.808a.223.223,0,0,1-.019.446Z" transform="translate(-271.36 -278.057)" fill="#6b0943"/>
      </g>
      <g id="Grupo_91651" data-name="Grupo 91651" transform="translate(15.958 86.11)">
        <path id="Trazado_142095" data-name="Trazado 142095" d="M337.792,296.311h-.02L270.314,290.5a.223.223,0,1,1,.038-.445l67.458,5.808a.223.223,0,0,1-.019.446Z" transform="translate(-270.11 -290.057)" fill="#6b0943"/>
      </g>
      <g id="Grupo_91652" data-name="Grupo 91652" transform="translate(15.288 92.476)">
        <path id="Trazado_142096" data-name="Trazado 142096" d="M336.292,310.561h-.02l-67.458-5.808a.223.223,0,0,1-.2-.242.221.221,0,0,1,.242-.2l67.458,5.808a.223.223,0,0,1-.019.446Z" transform="translate(-268.61 -304.307)" fill="#6b0943"/>
      </g>
      <g id="Grupo_91653" data-name="Grupo 91653" transform="translate(14.171 112.133)">
        <path id="Trazado_142097" data-name="Trazado 142097" d="M311.79,352.662h-.019l-45.456-3.909a.223.223,0,0,1-.2-.242.221.221,0,0,1,.242-.2l45.456,3.909a.223.223,0,0,1-.019.446Z" transform="translate(-266.11 -348.306)" fill="#6b0943"/>
      </g>
    </g>
    <g id="Grupo_91659" data-name="Grupo 91659" transform="translate(70.321 133.698)">
      <g id="Grupo_91655" data-name="Grupo 91655" transform="translate(22.472 20.098)">
        <path id="Trazado_142098" data-name="Trazado 142098" d="M166.618,279.473c-.051-.044-.1-.081-.154-.13-.527-.5-5.726-9.925-6.639-15.768-.43-2.753,3.74-3.14,4.767-.574l4.855,12.818,9.016-.612a9.675,9.675,0,0,1,1.791.046,5,5,0,0,1,.86.125,1.9,1.9,0,0,0,.762-.353,20.977,20.977,0,0,1,1.9-1.367l1.737-.276c.314.545-.089,1-1.088,1.166l-.623.538,1.575-.218s1.741-.776,2.214-.884c.494-.113.636.538.076.818.677-.289,1.166.335.311.724.4-.018.448.611-.376.837,0,0,.214.153-.016.38a14.524,14.524,0,0,1-1.351.911,18.336,18.336,0,0,1-3.951.693s-2.037.113-2.193.113c-1.573.232-7.439,1.1-10.608,1.615a2.081,2.081,0,0,1-1.191.191A1.8,1.8,0,0,1,166.618,279.473Z" transform="translate(-159.795 -261.254)" fill="#efa88f"/>
        <path id="Trazado_142099" data-name="Trazado 142099" d="M166.626,279.443c-.051-.044-.1-.081-.154-.13-.527-.5-5.911-9.9-6.639-15.768-.427-3.44,4.72-2.693,5.747-.127l4.824,11.9,4.211.125a6.931,6.931,0,0,1,.577,3.724c-2,.3-4.167.634-5.7.884a2.082,2.082,0,0,1-1.191.191A1.8,1.8,0,0,1,166.626,279.443Z" transform="translate(-159.802 -261.224)" fill="#9e0861"/>
      </g>
      <path id="Trazado_142100" data-name="Trazado 142100" d="M139.73,217a6.78,6.78,0,0,0-2.853-.734c-2.71-.187-5.722.631-7.2,2.913-.965,1.493-1.144,3.409-2.2,4.838-1.175,1.59-3.339,2.45-3.959,4.327-.386,1.17-.057,2.457-.256,3.674a12.987,12.987,0,0,1-1.326,3.234,10.347,10.347,0,0,0-.942,5.776,7.633,7.633,0,0,0,2.877,5.017c1.968,1.462,4.562,1.726,7.014,1.761a8.374,8.374,0,0,0,3.748-.572,7.525,7.525,0,0,0,1.967-1.486,11.631,11.631,0,0,0,3.294-5.151c.435-1.639.332-3.374.648-5.04.564-2.983,2.435-5.593,3.02-8.572a10.5,10.5,0,0,0-2.614-9.066A4.518,4.518,0,0,0,139.73,217Z" transform="translate(-115.807 -216.236)" fill="#343a7f" fill-rule="evenodd"/>
      <path id="Trazado_142101" data-name="Trazado 142101" d="M143.129,255.341s7.405,3.368,7.278,4.968c-.15,1.884-1.653,2.526-1.995,4.583-.119.716.366,1.981.292,2.765-.283,3.041-1.775,3.836-1.938,5.821-.215,2.624,3.432,5.809,2.911,9.715-.475,3.554-14.881,2.939-16.558.083,0,0,1.383-8.355,1.487-9.789.2-2.694-3.1-12.071-2.014-14.636.631-1.491,7.331-3.387,10.536-3.51" transform="translate(-122.151 -237.871)" fill="#c63970" fill-rule="evenodd"/>
      <g id="Grupo_91657" data-name="Grupo 91657" transform="translate(10.288 17.47)">
        <g id="Grupo_91656" data-name="Grupo 91656" clip-path="url(#clip-path)">
          <path id="Trazado_142102" data-name="Trazado 142102" d="M141.718,256.483a21.8,21.8,0,0,1,2.079,4.227c.815,2.634,7.028,2.816,7.529,0a6.762,6.762,0,0,0-.376-3.914s-2.051-3.385-10.327.046" transform="translate(-137.004 -255.318)" fill="#efa88f" fill-rule="evenodd"/>
        </g>
      </g>
      <path id="Trazado_142104" data-name="Trazado 142104" d="M154.852,240.6c-.031,1.39-.171,4.58-.149,6.042.038,2.559-5.181,1.906-4.969-.312.176-1.845,1.107-4.881,1.352-6.271.331-1.882,3.807-1.261,3.766.542" transform="translate(-131.753 -228.78)" fill="#efa88f" fill-rule="evenodd"/>
      <path id="Trazado_142105" data-name="Trazado 142105" d="M151.633,240.053c-.154.874-.579,2.4-.917,3.868a2.964,2.964,0,0,0,2.542,2.309,1.752,1.752,0,0,0,2.018-1.681c.038-1.439.1-3.065.122-3.955C155.439,238.792,151.964,238.171,151.633,240.053Z" transform="translate(-132.299 -228.78)" fill="#dd7458" fill-rule="evenodd"/>
      <path id="Trazado_142106" data-name="Trazado 142106" d="M156.617,229.041a11.94,11.94,0,0,1-.13,1.614c-.383,2.537-1.617,4.336-3.56,4.307-2.741-.041-5.756-2.416-6.256-6.408-.624-4.987,1.624-6.965,4.365-7.084,3.439-.152,4.945,1.821,5.427,5.289.025.16.042.327.064.493.011.122.024.246.035.371A12.985,12.985,0,0,1,156.617,229.041Z" transform="translate(-130.003 -219.127)" fill="#efa88f" fill-rule="evenodd"/>
      <path id="Trazado_142107" data-name="Trazado 142107" d="M157.427,235.091c.176.006.309.268.3.586s-.163.569-.338.563-.31-.268-.3-.586.163-.569.338-.563" transform="translate(-135.825 -226.668)" fill="#2f1b15" fill-rule="evenodd"/>
      <path id="Trazado_142108" data-name="Trazado 142108" d="M145.193,233.351a3.574,3.574,0,0,1,1.648,2.412c-.033.927-1.1,1.173-1.419,1.12a1.825,1.825,0,0,1-1.25-1.4c-.449-2.035.652-2.177,1.022-2.131" transform="translate(-128.62 -225.701)" fill="#efa88f" fill-rule="evenodd"/>
      <path id="Trazado_142109" data-name="Trazado 142109" d="M145.153,234.242a1.939,1.939,0,0,1,1.064,1.6c-.024.666.039,1.116-.5.921a1.2,1.2,0,0,1-.789-1.029c-.035-.256-.027-1.482.281-1.462" transform="translate(-129.088 -226.198)" fill="#dd7458" fill-rule="evenodd"/>
      <path id="Trazado_142110" data-name="Trazado 142110" d="M161.637,244.9a3.428,3.428,0,0,1-1.511.289,2.561,2.561,0,0,1-1.694-.5.4.4,0,0,1,.164.006s-.137-.193-.3-.083-.054.325-.054.325a.363.363,0,0,1,.113-.217c.18.261.642.66,1.786.629a2.64,2.64,0,0,0,1.535-.423.015.015,0,0,0,0-.026A.035.035,0,0,0,161.637,244.9Z" transform="translate(-136.439 -231.919)" fill="#2f1b15" fill-rule="evenodd"/>
      <path id="Trazado_142111" data-name="Trazado 142111" d="M153.58,238.761a.816.816,0,1,1-.788-.842A.816.816,0,0,1,153.58,238.761Z" transform="translate(-132.982 -228.232)" fill="#f48282" fill-rule="evenodd"/>
      <path id="Trazado_142112" data-name="Trazado 142112" d="M151.718,423.477l2.274,3.242s2.818,1,2.521,1.845-3.39.674-4.906-.188l-1.7-1.865a2.289,2.289,0,0,0-.581,1.579.744.744,0,0,1-.9.023,7.787,7.787,0,0,0-.265-2.2,3.514,3.514,0,0,1,.461-2.811C149.175,422.464,151.718,423.477,151.718,423.477Z" transform="translate(-130.827 -330.568)" fill="#6b0943"/>
      <path id="Trazado_142113" data-name="Trazado 142113" d="M154.768,377.167l1.726.949a38.559,38.559,0,0,1-1.529,8.969c-1.323,3.986-2.923,10.7-2.923,10.7s-.684,1.107-3.414-.031c0,0,.408-14.273,2.08-17.611S154.768,377.167,154.768,377.167Z" transform="translate(-131.145 -305.265)" fill="#353860"/>
      <path id="Trazado_142114" data-name="Trazado 142114" d="M114.882,415.84l-.059,3.959s1.695,2.463.958,2.973-3.141-1.443-3.863-3.031l-.284-2.509a2.293,2.293,0,0,0-1.4.938.744.744,0,0,1-.746-.512,7.771,7.771,0,0,0,1.078-1.939,3.516,3.516,0,0,1,2.022-2.006C113.416,413.529,114.882,415.84,114.882,415.84Z" transform="translate(-109.492 -325.486)" fill="#9e0861"/>
      <path id="Trazado_142115" data-name="Trazado 142115" d="M161.4,315.856a17.152,17.152,0,0,1-8.036,2.681c-.012,1.747-.049,3.494-.064,5.242.042-.717.085-1.393.129-2.013.422,5.9.121,20.2.792,22.939.566,2.316,4.865,1.781,4.917-.329,0,0,2.575-15.449,2.793-20.712A39.8,39.8,0,0,0,161.4,315.856Z" transform="translate(-133.729 -271.351)" fill="#353860"/>
      <path id="Trazado_142116" data-name="Trazado 142116" d="M134.648,319.1c-1.211,12.927,2.588,28.629,2.588,28.629.084,2.109,4.916.783,4.839-1.619,0-.153,2.141-14.855,2.737-26.024C141.995,320.319,137.2,320.177,134.648,319.1Z" transform="translate(-123.278 -273.145)" fill="#353860"/>
      <path id="Trazado_142117" data-name="Trazado 142117" d="M130.256,375.765l.9,2.13a41.755,41.755,0,0,1-5.38,7.432c-3.076,3.251-7.686,8.989-7.686,8.989s-1.142.769-3.087-1.471c0,0,7.081-13.468,10.17-15.951S130.256,375.765,130.256,375.765Z" transform="translate(-112.539 -304.293)" fill="#353860"/>
      <path id="Trazado_142118" data-name="Trazado 142118" d="M166.31,235.386c.176.006.309.268.3.586s-.163.569-.338.563-.31-.268-.3-.586.163-.569.338-.563" transform="translate(-140.74 -226.831)" fill="#2f1b15" fill-rule="evenodd"/>
      <path id="Trazado_142119" data-name="Trazado 142119" d="M151.615,306.6" transform="translate(-132.797 -266.23)" fill="#efa88f" fill-rule="evenodd"/>
      <path id="Trazado_142120" data-name="Trazado 142120" d="M168.087,238.43a11.457,11.457,0,0,1-.13,1.613.814.814,0,0,1,.13-1.613Z" transform="translate(-141.474 -228.515)" fill="#f48282" fill-rule="evenodd"/>
      <path id="Trazado_142121" data-name="Trazado 142121" d="M162.287,234.092l-.393,1.38.5,2.361-.466.293-.944-.031,1.131-.416-.4-2.219Z" transform="translate(-137.982 -226.115)" fill="#dd7458" fill-rule="evenodd"/>
      <path id="Trazado_142122" data-name="Trazado 142122" d="M147.131,241.148a.42.42,0,1,1-.406-.434A.421.421,0,0,1,147.131,241.148Z" transform="translate(-129.851 -229.779)" fill="#c63970" fill-rule="evenodd"/>
      <path id="Trazado_142123" data-name="Trazado 142123" d="M156.679,232.818l-.11.632-.818-.039a3.423,3.423,0,0,0-1.155.142l-.662.2.856-.618a1.5,1.5,0,0,1,.835-.284Z" transform="translate(-134.08 -225.41)" fill="#343a7f" fill-rule="evenodd"/>
      <path id="Trazado_142124" data-name="Trazado 142124" d="M166.87,233.689a3.339,3.339,0,0,0-.668-.019l-.815.055-.124-.628,1.056.008a1.465,1.465,0,0,1,.488.09C166.831,233.356,166.849,233.522,166.87,233.689Z" transform="translate(-140.348 -225.565)" fill="#343a7f" fill-rule="evenodd"/>
      <g id="Grupo_91658" data-name="Grupo 91658" transform="translate(20.53 25.755)">
        <path id="Trazado_142125" data-name="Trazado 142125" d="M180.746,273.887h-16.7a3.577,3.577,0,0,0-1.294.244,8.815,8.815,0,0,0-4.193,3.109v.244l.2.244.224,21.765,14.022.853c1.591,0,5.442-.038,5.548-.061.853-.183,4.207-3.049,4.207-3.049l.025-.085a3.591,3.591,0,0,0,1.56-2.963v-16.7A3.6,3.6,0,0,0,180.746,273.887Z" transform="translate(-157.165 -273.887)" fill="#343a7f" fill-rule="evenodd"/>
        <rect id="Rectángulo_35295" data-name="Rectángulo 35295" width="23.899" height="23.899" rx="3" transform="translate(0 2.906)" fill="#37a588"/>
        <path id="Trazado_142126" data-name="Trazado 142126" d="M178.4,296.689l-.411-.064,0-.021a1.349,1.349,0,1,0-.327-2.672.22.22,0,0,1-.006-.023,14.948,14.948,0,0,1-3.238-.419c-.512-.513,1.607-1.587,1.607-1.587s2.877-2.083,2.263-3.992c0,0-.365-1.116-1.493-.056s-1.308.978-3.432,1.777c-2.03.763-4.8,2.317-6.14,4.472h-3.917a1.341,1.341,0,0,0-1.341,1.341v5.792a1.341,1.341,0,0,0,1.341,1.341h4.817c2.387,2.151,7.75,1.07,9.071.486,0,0,.027.023.073-.013a1.045,1.045,0,0,0,.692-1.922c1.364-.049,1.734-1.436.69-2.025C180.307,298.819,180.023,296.938,178.4,296.689Z" transform="translate(-159.053 -281.361)" fill="#343a7f" fill-rule="evenodd"/>
      </g>
      <path id="Trazado_142127" data-name="Trazado 142127" d="M153.922,220.136a6.821,6.821,0,0,1,2.268,4.908s-2.262.819-3.88-2.643a5.62,5.62,0,0,1,.434,3.758s-.782-2.54-1.824-3.133a11.217,11.217,0,0,1-3.631,4.182s-2.1-1.551-1.971-3.725C145.318,223.481,146.9,217.164,153.922,220.136Z" transform="translate(-129.31 -217.954)" fill="#343a7f" fill-rule="evenodd"/>
      <path id="Trazado_142128" data-name="Trazado 142128" d="M126.285,280.08c-.023-.064-.049-.122-.07-.189-.209-.693-.018-11.459,2.1-16.979,1-2.6,4.808-.858,4.419,1.879l-2.178,13.533,8.123,3.962a9.614,9.614,0,0,1,1.53.932,5.009,5.009,0,0,1,.683.537,1.9,1.9,0,0,0,.837.073,21.119,21.119,0,0,1,2.326-.239l1.644.627c0,.629-.575.822-1.525.469l-.809.156,1.475.6s1.9.2,2.359.337c.485.148.283.784-.342.747.732.087.845.872-.091.783.359.186.084.753-.743.538,0,0,.11.239-.2.321a14.443,14.443,0,0,1-1.625.117,18.325,18.325,0,0,1-3.771-1.367s-1.822-.917-1.958-.994c-1.48-.583-7-2.755-10-3.886a2.082,2.082,0,0,1-1.128-.428A1.8,1.8,0,0,1,126.285,280.08Z" transform="translate(-118.708 -241.352)" fill="#efa88f"/>
      <path id="Trazado_142129" data-name="Trazado 142129" d="M126.263,280.015c-.023-.064-.049-.122-.07-.189-.209-.693-.191-11.528,2.1-16.979,1.344-3.194,5.435.017,5.046,2.754L131.6,278.319l3.588,2.206a6.928,6.928,0,0,1-1.355,3.516c-1.888-.737-3.929-1.526-5.382-2.074a2.082,2.082,0,0,1-1.128-.428A1.8,1.8,0,0,1,126.263,280.015Z" transform="translate(-118.686 -241.287)" fill="#9e0861"/>
    </g>
    <g id="Grupo_91660" data-name="Grupo 91660" transform="translate(297.841 189.739)">
      <path id="Trazado_142130" data-name="Trazado 142130" d="M651.9,359.283l-7.72,6.174H618.777l7.764-6.214h.5Z" transform="translate(-618.777 -351.396)" fill="#dd7458"/>
      <path id="Trazado_142131" data-name="Trazado 142131" d="M662.138,359.283l-7.72,6.174H637.277v-6.214Z" transform="translate(-629.012 -351.396)" fill="#dd7458"/>
      <path id="Trazado_142132" data-name="Trazado 142132" d="M642.61,343.458V341.68h-6.876v1.778h-1.541v13.989h21.22V343.458Z" transform="translate(-627.306 -341.68)" fill="#74c1c1"/>
      <path id="Trazado_142133" data-name="Trazado 142133" d="M638.944,345.291v-1.778h-6.876v1.778h-1.541V359.28h21.22V345.291Z" transform="translate(-625.277 -342.694)" fill="#473484"/>
      <path id="Trazado_142134" data-name="Trazado 142134" d="M634.61,347.791v-1.778h-6.876v1.778h-1.541V361.78h21.22V347.791Z" transform="translate(-622.88 -344.077)" fill="#d66741"/>
      <path id="Trazado_142135" data-name="Trazado 142135" d="M675.649,365.455l7.763-6.216v25.384l-7.763,6.216Z" transform="translate(-650.242 -351.394)" fill="#7c2727"/>
      <rect id="Rectángulo_35296" data-name="Rectángulo 35296" width="25.407" height="25.384" transform="translate(0 14.061)" fill="#a04c3c"/>
    </g>
    <g id="Grupo_91664" data-name="Grupo 91664" transform="translate(237.76 126.03)">
      <path id="Trazado_142136" data-name="Trazado 142136" d="M505.475,262.08c.023-.064.05-.122.07-.189.209-.693.018-11.459-2.1-16.979-1-2.6-4.807-.858-4.419,1.879l2.178,13.533-8.122,3.962a9.64,9.64,0,0,0-1.53.932,5.014,5.014,0,0,0-.683.537,1.893,1.893,0,0,1-.837.073,21.127,21.127,0,0,0-2.327-.239l-1.644.627c0,.629.575.822,1.525.469l.809.156-1.474.6s-1.9.2-2.36.337c-.485.148-.283.784.342.747-.732.087-.845.872.09.783-.359.186-.084.753.743.538,0,0-.109.239.2.321a14.447,14.447,0,0,0,1.625.117,18.344,18.344,0,0,0,3.771-1.367s1.822-.917,1.958-.994c1.48-.583,7-2.755,10-3.886a2.082,2.082,0,0,0,1.128-.428A1.8,1.8,0,0,0,505.475,262.08Z" transform="translate(-484.289 -223.725)" fill="#efa88f"/>
      <path id="Trazado_142137" data-name="Trazado 142137" d="M520.665,262.015c.023-.064.05-.122.07-.189.209-.693.191-11.528-2.1-16.979-1.344-3.194-5.435.017-5.046,2.754l1.746,12.718-3.588,2.206a6.932,6.932,0,0,0,1.355,3.516c1.888-.737,3.929-1.527,5.382-2.074a2.082,2.082,0,0,0,1.128-.428A1.8,1.8,0,0,0,520.665,262.015Z" transform="translate(-499.479 -223.66)" fill="#ffecc2"/>
      <path id="Trazado_142138" data-name="Trazado 142138" d="M520.769,199.522a8.283,8.283,0,0,1,2.393-.429c2.268-.128,4.779.29,5.989,1.523.792.807.923,1.852,1.793,2.623.968.858,2.769,1.307,3.269,2.328.311.636.024,1.342.178,2.005a5.831,5.831,0,0,0,1.078,1.755,3.908,3.908,0,0,1,.732,3.148,4.391,4.391,0,0,1-2.454,2.77,14.441,14.441,0,0,1-5.882,1.03,10.335,10.335,0,0,1-3.128-.277c-.62-.187-.7.241-1.186-.07-1.217-.776-3.872,1.34-5.51-.075-2.635-2.275-.869-4.23-1.117-5.138-.444-1.625,1-4.077.54-5.7-.5-1.746.378-3.659,2.273-4.98A4.093,4.093,0,0,1,520.769,199.522Z" transform="translate(-502.15 -199.071)" fill="#9e0861" fill-rule="evenodd"/>
      <path id="Trazado_142139" data-name="Trazado 142139" d="M524.7,237.341s-7.4,3.368-7.278,4.968c.15,1.884,1.653,2.526,2,4.583.119.716-.366,1.981-.293,2.765.283,3.041,1.776,3.836,1.938,5.821.215,2.624-3.432,5.809-2.911,9.715.475,3.554,14.881,2.939,16.558.083,0,0-1.383-8.355-1.487-9.789-.195-2.694,3.1-12.071,2.014-14.636-.63-1.491-7.33-3.387-10.536-3.51" transform="translate(-502.619 -220.244)" fill="#ffecc2" fill-rule="evenodd"/>
      <g id="Grupo_91662" data-name="Grupo 91662" transform="translate(14.801 17.097)">
        <g id="Grupo_91661" data-name="Grupo 91661" clip-path="url(#clip-path-2)">
          <path id="Trazado_142140" data-name="Trazado 142140" d="M535.044,238.483a21.831,21.831,0,0,0-2.079,4.227c-.815,2.634-7.027,2.816-7.528,0a6.765,6.765,0,0,1,.375-3.914s2.051-3.385,10.327.046" transform="translate(-521.789 -237.318)" fill="#efa88f" fill-rule="evenodd"/>
        </g>
      </g>
      <path id="Trazado_142142" data-name="Trazado 142142" d="M528.966,222.6c.031,1.39.171,4.58.149,6.042-.038,2.559,5.181,1.906,4.969-.312-.176-1.845-1.107-4.881-1.351-6.271-.332-1.882-3.807-1.261-3.766.542" transform="translate(-509.006 -211.153)" fill="#efa88f" fill-rule="evenodd"/>
      <path id="Trazado_142143" data-name="Trazado 142143" d="M532.732,222.053c.154.874.578,2.4.916,3.868a2.964,2.964,0,0,1-2.542,2.309,1.752,1.752,0,0,1-2.018-1.681c-.038-1.439-.1-3.065-.122-3.955C528.925,220.792,532.4,220.171,532.732,222.053Z" transform="translate(-509.006 -211.153)" fill="#dd7458" fill-rule="evenodd"/>
      <path id="Trazado_142144" data-name="Trazado 142144" d="M521.1,211.041a11.932,11.932,0,0,0,.13,1.614c.383,2.537,1.617,4.336,3.56,4.307,2.741-.041,5.756-2.416,6.256-6.408.625-4.987-1.624-6.965-4.364-7.084-3.44-.152-4.945,1.821-5.427,5.289-.024.16-.042.327-.063.493-.011.122-.025.246-.035.371A13.12,13.12,0,0,0,521.1,211.041Z" transform="translate(-504.653 -201.5)" fill="#efa88f" fill-rule="evenodd"/>
      <path id="Trazado_142145" data-name="Trazado 142145" d="M531.947,217.091c-.176.006-.309.268-.3.586s.163.569.339.563.309-.268.3-.586-.163-.569-.338-.563" transform="translate(-510.49 -209.041)" fill="#2f1b15" fill-rule="evenodd"/>
      <path id="Trazado_142146" data-name="Trazado 142146" d="M541.534,215.351a3.575,3.575,0,0,0-1.648,2.412c.033.927,1.1,1.173,1.419,1.12a1.824,1.824,0,0,0,1.25-1.4c.449-2.035-.652-2.177-1.022-2.131" transform="translate(-515.048 -208.074)" fill="#efa88f" fill-rule="evenodd"/>
      <path id="Trazado_142147" data-name="Trazado 142147" d="M543.395,216.242a1.939,1.939,0,0,0-1.065,1.6c.024.666-.039,1.116.5.921a1.2,1.2,0,0,0,.79-1.029c.035-.256.026-1.482-.281-1.462" transform="translate(-516.401 -208.571)" fill="#dd7458" fill-rule="evenodd"/>
      <path id="Trazado_142148" data-name="Trazado 142148" d="M524.215,226.9a3.424,3.424,0,0,0,1.511.289,2.56,2.56,0,0,0,1.694-.5.4.4,0,0,0-.164.006s.136-.193.3-.083.054.325.054.325a.363.363,0,0,0-.113-.217c-.18.261-.642.66-1.786.629a2.641,2.641,0,0,1-1.536-.423.015.015,0,0,1,0-.026A.036.036,0,0,1,524.215,226.9Z" transform="translate(-506.354 -214.292)" fill="#2f1b15" fill-rule="evenodd"/>
      <path id="Trazado_142149" data-name="Trazado 142149" d="M534.565,220.761a.816.816,0,1,0,.788-.842A.815.815,0,0,0,534.565,220.761Z" transform="translate(-512.105 -210.605)" fill="#f48282" fill-rule="evenodd"/>
      <path id="Trazado_142150" data-name="Trazado 142150" d="M527.944,405.477l-2.275,3.242s-2.818,1-2.52,1.845,3.39.674,4.906-.188l1.7-1.865a2.292,2.292,0,0,1,.581,1.579.743.743,0,0,0,.9.023,7.792,7.792,0,0,1,.265-2.2,3.516,3.516,0,0,0-.461-2.811C530.487,404.464,527.944,405.477,527.944,405.477Z" transform="translate(-505.776 -312.941)" fill="#473484"/>
      <path id="Trazado_142151" data-name="Trazado 142151" d="M525.656,359.167l-1.727.949a38.558,38.558,0,0,0,1.529,8.969c1.323,3.986,2.924,10.7,2.924,10.7s.683,1.107,3.413-.031c0,0-.408-14.273-2.081-17.611S525.656,359.167,525.656,359.167Z" transform="translate(-506.22 -287.638)" fill="#efa88f"/>
      <path id="Trazado_142152" data-name="Trazado 142152" d="M567.264,397.84l.06,3.96s-1.7,2.463-.959,2.973,3.141-1.443,3.863-3.031l.284-2.509a2.293,2.293,0,0,1,1.4.938.743.743,0,0,0,.746-.512,7.784,7.784,0,0,1-1.078-1.939,3.514,3.514,0,0,0-2.022-2.006C568.73,395.529,567.264,397.84,567.264,397.84Z" transform="translate(-529.596 -307.859)" fill="#473484"/>
      <path id="Trazado_142153" data-name="Trazado 142153" d="M518.044,297.856a17.15,17.15,0,0,0,8.036,2.681c.012,1.747.049,3.494.064,5.242-.042-.717-.085-1.393-.129-2.013-.421,5.9-.121,20.2-.792,22.939-.566,2.316-4.865,1.781-4.917-.329,0,0-2.575-15.449-2.793-20.712A39.758,39.758,0,0,1,518.044,297.856Z" transform="translate(-502.656 -253.725)" fill="#efa88f"/>
      <path id="Trazado_142154" data-name="Trazado 142154" d="M542.634,301.1c1.211,12.927-2.588,28.629-2.588,28.629-.084,2.109-4.916.783-4.839-1.619.005-.153-2.141-14.855-2.737-26.024C535.287,302.319,540.081,302.177,542.634,301.1Z" transform="translate(-510.946 -255.518)" fill="#efa88f"/>
      <path id="Trazado_142155" data-name="Trazado 142155" d="M539.9,357.765l-.9,2.13a41.754,41.754,0,0,0,5.38,7.432c3.076,3.251,7.686,8.989,7.686,8.989s1.141.769,3.088-1.471c0,0-7.081-13.468-10.17-15.951S539.9,357.765,539.9,357.765Z" transform="translate(-514.562 -286.666)" fill="#efa88f"/>
      <path id="Trazado_142156" data-name="Trazado 142156" d="M523.064,217.386c-.176.006-.309.268-.3.586s.163.569.339.563.309-.268.3-.586-.163-.569-.338-.563" transform="translate(-505.576 -209.204)" fill="#2f1b15" fill-rule="evenodd"/>
      <path id="Trazado_142157" data-name="Trazado 142157" d="M538.549,288.6" transform="translate(-514.309 -248.604)" fill="#efa88f" fill-rule="evenodd"/>
      <path id="Trazado_142158" data-name="Trazado 142158" d="M521.1,220.43a11.519,11.519,0,0,0,.13,1.613.814.814,0,0,0-.13-1.613Z" transform="translate(-504.656 -210.888)" fill="#f48282" fill-rule="evenodd"/>
      <path id="Trazado_142159" data-name="Trazado 142159" d="M526.131,216.092l.393,1.38-.5,2.361.466.293.944-.031-1.131-.416.4-2.219Z" transform="translate(-507.377 -208.488)" fill="#dd7458" fill-rule="evenodd"/>
      <path id="Trazado_142160" data-name="Trazado 142160" d="M541.994,223.148a.42.42,0,1,0,.406-.434A.42.42,0,0,0,541.994,223.148Z" transform="translate(-516.214 -212.152)" fill="#c63970" fill-rule="evenodd"/>
      <path id="Trazado_142161" data-name="Trazado 142161" d="M531.767,299.779l3.574,21.667s-14.966,5.584-23.231-.893l2.345-21A58.447,58.447,0,0,0,531.767,299.779Z" transform="translate(-499.681 -254.665)" fill="#473484"/>
      <path id="Trazado_142162" data-name="Trazado 142162" d="M530.086,214.818l.11.632.817-.039a3.427,3.427,0,0,1,1.155.142l.662.2-.856-.618a1.5,1.5,0,0,0-.835-.284Z" transform="translate(-509.627 -207.783)" fill="#9e0861" fill-rule="evenodd"/>
      <path id="Trazado_142163" data-name="Trazado 142163" d="M521.3,215.689a3.337,3.337,0,0,1,.668-.019l.815.055.124-.628-1.056.008a1.468,1.468,0,0,0-.488.09C521.343,215.356,521.325,215.522,521.3,215.689Z" transform="translate(-504.768 -207.938)" fill="#9e0861" fill-rule="evenodd"/>
      <g id="Grupo_91663" data-name="Grupo 91663" transform="translate(1.217 28.028)">
        <path id="Trazado_142164" data-name="Trazado 142164" d="M490.611,261.809h16.7a3.583,3.583,0,0,1,1.294.243,8.815,8.815,0,0,1,4.193,3.11v.244l-.2.243-.223,21.765-14.022.854c-1.591,0-5.442-.038-5.548-.061-.854-.183-4.207-3.048-4.207-3.048l-.025-.085a3.592,3.592,0,0,1-1.56-2.963v-16.7A3.6,3.6,0,0,1,490.611,261.809Z" transform="translate(-487.014 -261.809)" fill="#343a7f" fill-rule="evenodd"/>
        <rect id="Rectángulo_35297" data-name="Rectángulo 35297" width="23.899" height="23.899" rx="3" transform="translate(27.177 26.805) rotate(180)" fill="#37a588"/>
        <path id="Trazado_142165" data-name="Trazado 142165" d="M514.535,288.731l-6.49-2.2-5.492,4.1.088-6.852-5.595-3.957,6.544-2.034,2.034-6.544,3.957,5.595,6.852-.088-4.1,5.492Z" transform="translate(-492.564 -267.028)" fill="#f2bf1d" fill-rule="evenodd"/>
      </g>
      <path id="Trazado_142166" data-name="Trazado 142166" d="M522.772,202.136a6.823,6.823,0,0,0-2.268,4.908s2.262.819,3.88-2.643a5.618,5.618,0,0,0-.434,3.758s.781-2.54,1.823-3.133a11.222,11.222,0,0,0,3.631,4.182s2.1-1.551,1.971-3.725C531.376,205.481,529.8,199.164,522.772,202.136Z" transform="translate(-504.325 -200.327)" fill="#9e0861" fill-rule="evenodd"/>
      <path id="Trazado_142167" data-name="Trazado 142167" d="M537.475,262.08c.023-.064.05-.122.07-.189.209-.693.018-11.459-2.1-16.979-1-2.6-4.807-.858-4.419,1.879l2.178,13.533-8.122,3.962a9.641,9.641,0,0,0-1.53.932,5.008,5.008,0,0,0-.683.537,1.893,1.893,0,0,1-.837.073,21.127,21.127,0,0,0-2.327-.239l-1.644.627c0,.629.575.822,1.525.469l.809.156-1.474.6s-1.9.2-2.36.337c-.485.148-.283.784.342.747-.732.087-.845.872.09.783-.359.186-.084.753.743.538,0,0-.109.239.2.321a14.447,14.447,0,0,0,1.625.117,18.346,18.346,0,0,0,3.771-1.367s1.822-.917,1.958-.994c1.48-.583,7-2.755,10-3.886a2.082,2.082,0,0,0,1.128-.428A1.8,1.8,0,0,0,537.475,262.08Z" transform="translate(-501.993 -223.725)" fill="#efa88f"/>
      <path id="Trazado_142168" data-name="Trazado 142168" d="M552.665,262.015c.023-.064.05-.122.07-.189.209-.693.191-11.528-2.1-16.979-1.344-3.194-5.435.017-5.046,2.754l1.746,12.718-3.588,2.206a6.932,6.932,0,0,0,1.355,3.516c1.888-.737,3.929-1.527,5.382-2.074a2.082,2.082,0,0,0,1.128-.428A1.8,1.8,0,0,0,552.665,262.015Z" transform="translate(-517.183 -223.66)" fill="#ffecc2"/>
    </g>
  </g>
</svg>
