<svg xmlns="http://www.w3.org/2000/svg" xmlns:xlink="http://www.w3.org/1999/xlink" width="622.975" height="620.843" viewBox="0 0 622.975 620.843">
  <defs>
    <linearGradient id="linear-gradient" x1="-0.05" y1="0.546" x2="0.954" y2="0.546" gradientUnits="objectBoundingBox">
      <stop offset="0" stop-color="#f0ad65"/>
      <stop offset="1" stop-color="#ff615b"/>
    </linearGradient>
  </defs>
  <g id="Grupo_91947" data-name="Grupo 91947" transform="translate(-495 -3332.063)">
    <g id="Grupo_91668" data-name="Grupo 91668" transform="translate(550.625 3421.332)" style="isolation: isolate">
      <path id="Trazado_142200" data-name="Trazado 142200" d="M341.763,585.94A249.828,249.828,0,0,1,216.81,552.565l-8.659-5A250.6,250.6,0,0,1,83.2,331.143v-10A250.6,250.6,0,0,1,208.15,104.717l8.66-5a250.6,250.6,0,0,1,249.906,0l8.66,5A250.6,250.6,0,0,1,600.328,321.141v10A250.6,250.6,0,0,1,475.377,547.566l-8.662,5A249.883,249.883,0,0,1,341.763,585.94Zm0-450a180.224,180.224,0,0,0-90.138,24.075l-8.66,5a180.775,180.775,0,0,0-90.138,156.122v10a180.776,180.776,0,0,0,90.138,156.122l8.659,5a180.777,180.777,0,0,0,180.278,0l8.662-5A180.772,180.772,0,0,0,530.7,331.143v-10a180.774,180.774,0,0,0-90.137-156.122l-8.66-5A180.272,180.272,0,0,0,341.763,135.943Z" transform="translate(-83.197 -66.342)" fill="url(#linear-gradient)"/>
    </g>
    <g id="Grupo_91946" data-name="Grupo 91946" transform="translate(-14.73 -14.73)">
      <circle id="Elipse_4130" data-name="Elipse 4130" cx="113.243" cy="113.243" r="113.243" transform="translate(711.245 3346.793)" fill="#ff615b"/>
      <circle id="Elipse_4131" data-name="Elipse 4131" cx="95.141" cy="95.141" r="95.141" transform="translate(729.347 3555.177) rotate(-90)" fill="none" stroke="#fff" stroke-miterlimit="10" stroke-width="3"/>
      <path id="Trazado_142890" data-name="Trazado 142890" d="M16.519-15.623H10.758V0H6.13V-15.623H.475V-19.2H16.519ZM14.963-7.264a8.419,8.419,0,0,1,.831-3.8,5.94,5.94,0,0,1,2.386-2.564,7.187,7.187,0,0,1,3.652-.9,6.559,6.559,0,0,1,5.049,1.984,7.614,7.614,0,0,1,1.846,5.4v.158a7.387,7.387,0,0,1-1.852,5.293A6.576,6.576,0,0,1,21.858.264a6.651,6.651,0,0,1-4.891-1.826,7.142,7.142,0,0,1-1.991-4.95Zm4.443.277a5.308,5.308,0,0,0,.62,2.9,2.064,2.064,0,0,0,1.833.923q2.373,0,2.426-3.652v-.448q0-3.836-2.452-3.836-2.228,0-2.413,3.309ZM35.859-17.811v3.546h2.347v3.085H35.859v6.526a1.666,1.666,0,0,0,.29,1.121,1.556,1.556,0,0,0,1.147.316A6.518,6.518,0,0,0,38.4-3.3V-.119a8.2,8.2,0,0,1-2.5.382A4.654,4.654,0,0,1,32.511-.817,4.431,4.431,0,0,1,31.417-4.1v-7.08H29.6v-3.085h1.819v-3.546ZM47.988,0a5.016,5.016,0,0,1-.422-1.279A4.131,4.131,0,0,1,44.139.264,5.061,5.061,0,0,1,40.711-.956,3.882,3.882,0,0,1,39.3-4.021a3.989,3.989,0,0,1,1.714-3.507A8.731,8.731,0,0,1,46-8.714h1.371V-9.47q0-1.974-1.7-1.974A1.39,1.39,0,0,0,44.086-9.88H39.643a3.983,3.983,0,0,1,1.76-3.358,7.4,7.4,0,0,1,4.489-1.29A6.485,6.485,0,0,1,50.2-13.2a4.629,4.629,0,0,1,1.622,3.652V-3.23a6.467,6.467,0,0,0,.606,3.006V0ZM45.207-2.9a2.478,2.478,0,0,0,1.378-.356,2.231,2.231,0,0,0,.784-.8V-6.341H46.077q-2.32,0-2.32,2.083a1.272,1.272,0,0,0,.409.982A1.479,1.479,0,0,0,45.207-2.9ZM58.97,0H54.514V-20.25H58.97Zm7.422,0H61.937V-14.265h4.456Zm-4.72-17.956a2,2,0,0,1,.686-1.565,2.577,2.577,0,0,1,1.78-.61,2.577,2.577,0,0,1,1.78.61,2,2,0,0,1,.686,1.565,2,2,0,0,1-.686,1.565,2.577,2.577,0,0,1-1.78.61,2.577,2.577,0,0,1-1.78-.61A2,2,0,0,1,61.673-17.956Zm6.9,10.718a8.714,8.714,0,0,1,1.463-5.339,4.817,4.817,0,0,1,4.087-1.951,4.1,4.1,0,0,1,3.217,1.5V-20.25h4.456V0H77.8l-.224-1.529A4.207,4.207,0,0,1,74.092.264a4.808,4.808,0,0,1-4.034-1.951A8.99,8.99,0,0,1,68.568-7.238Zm4.443.277q0,3.8,2.215,3.8A2.187,2.187,0,0,0,77.335-4.4V-9.835A2.128,2.128,0,0,0,75.252-11.1q-2.057,0-2.228,3.322ZM92.351,0a5.016,5.016,0,0,1-.422-1.279A4.131,4.131,0,0,1,88.5.264,5.061,5.061,0,0,1,85.074-.956a3.882,3.882,0,0,1-1.411-3.065,3.989,3.989,0,0,1,1.714-3.507A8.731,8.731,0,0,1,90.36-8.714h1.371V-9.47q0-1.974-1.7-1.974A1.39,1.39,0,0,0,88.449-9.88H84.006a3.983,3.983,0,0,1,1.76-3.358,7.4,7.4,0,0,1,4.489-1.29A6.485,6.485,0,0,1,94.566-13.2a4.629,4.629,0,0,1,1.622,3.652V-3.23a6.467,6.467,0,0,0,.606,3.006V0ZM89.569-2.9a2.478,2.478,0,0,0,1.378-.356,2.231,2.231,0,0,0,.784-.8V-6.341H90.439q-2.32,0-2.32,2.083a1.272,1.272,0,0,0,.409.982A1.479,1.479,0,0,0,89.569-2.9Zm8.517-4.337a8.714,8.714,0,0,1,1.463-5.339,4.817,4.817,0,0,1,4.087-1.951,4.1,4.1,0,0,1,3.217,1.5V-20.25h4.456V0h-3.995l-.224-1.529A4.207,4.207,0,0,1,103.61.264a4.808,4.808,0,0,1-4.034-1.951A8.99,8.99,0,0,1,98.086-7.238Zm4.443.277q0,3.8,2.215,3.8A2.187,2.187,0,0,0,106.853-4.4V-9.835A2.128,2.128,0,0,0,104.77-11.1q-2.057,0-2.228,3.322Z" transform="translate(767.731 3469.73)" fill="#fff"/>
    </g>
    <g id="Grupo_91930" data-name="Grupo 91930" transform="translate(66.756 -538.706)">
      <circle id="Elipse_4140" data-name="Elipse 4140" cx="95" cy="95" r="95" transform="translate(428.244 4031.806)" fill="#80dcab"/>
      <circle id="Elipse_4141" data-name="Elipse 4141" cx="79.253" cy="79.253" r="79.253" transform="translate(443.992 4206.059) rotate(-90)" fill="none" stroke="#fff" stroke-miterlimit="10" stroke-width="3"/>
      <path id="Trazado_142891" data-name="Trazado 142891" d="M-38.678-7.242h-6.469v4.078h7.641V0H-49.26V-17.062h11.777v3.176h-7.664v3.6h6.469Zm7.8-1.945,1.84-3.492h4.1L-28.271-6.5l3.5,6.5h-4.125l-1.992-3.75L-32.842,0H-36.99l3.516-6.5L-36.8-12.68h4.148ZM-16.518,0a4.459,4.459,0,0,1-.375-1.137A3.672,3.672,0,0,1-19.939.234,4.5,4.5,0,0,1-22.986-.85,3.45,3.45,0,0,1-24.24-3.574a3.546,3.546,0,0,1,1.523-3.117,7.761,7.761,0,0,1,4.43-1.055h1.219v-.671q0-1.755-1.512-1.755a1.236,1.236,0,0,0-1.406,1.39h-3.949a3.54,3.54,0,0,1,1.564-2.985,6.575,6.575,0,0,1,3.99-1.147,5.764,5.764,0,0,1,3.832,1.184,4.115,4.115,0,0,1,1.441,3.246v5.613A5.748,5.748,0,0,0-12.568-.2V0ZM-18.99-2.578a2.2,2.2,0,0,0,1.225-.316,1.983,1.983,0,0,0,.7-.715V-5.637h-1.148q-2.062,0-2.062,1.852a1.131,1.131,0,0,0,.363.873A1.315,1.315,0,0,0-18.99-2.578Zm13.43-.234a1.756,1.756,0,0,0,1.289-.451,1.654,1.654,0,0,0,.445-1.26h3.7A4.384,4.384,0,0,1-1.617-1.1,5.558,5.558,0,0,1-5.467.234,5.627,5.627,0,0,1-9.826-1.5,6.834,6.834,0,0,1-11.42-6.3v-.164a7.723,7.723,0,0,1,.709-3.393,5.162,5.162,0,0,1,2.045-2.262A6.1,6.1,0,0,1-5.5-12.914a5.488,5.488,0,0,1,3.926,1.371A4.863,4.863,0,0,1-.123-7.828h-3.7a2.168,2.168,0,0,0-.48-1.512A1.658,1.658,0,0,0-5.6-9.867q-1.535,0-1.793,1.957A13.809,13.809,0,0,0-7.471-6.2a5.424,5.424,0,0,0,.457,2.648A1.582,1.582,0,0,0-5.561-2.812ZM6.146-15.832v3.152H8.232v2.742H6.146v5.8a1.481,1.481,0,0,0,.258,1,1.383,1.383,0,0,0,1.02.281,5.793,5.793,0,0,0,.984-.07V-.105a7.288,7.288,0,0,1-2.227.34A4.137,4.137,0,0,1,3.17-.727,3.939,3.939,0,0,1,2.2-3.645V-9.937H.58V-12.68H2.2v-3.152ZM13.951,0H9.99V-12.68h3.961Zm-4.2-15.961a1.778,1.778,0,0,1,.609-1.391,2.29,2.29,0,0,1,1.582-.542,2.29,2.29,0,0,1,1.582.542,1.778,1.778,0,0,1,.609,1.391,1.778,1.778,0,0,1-.609,1.391,2.29,2.29,0,0,1-1.582.542,2.29,2.29,0,0,1-1.582-.542A1.778,1.778,0,0,1,9.756-15.961Zm11.227.129v3.152h2.086v2.742H20.982v5.8a1.481,1.481,0,0,0,.258,1,1.383,1.383,0,0,0,1.02.281,5.793,5.793,0,0,0,.984-.07V-.105a7.288,7.288,0,0,1-2.227.34,4.137,4.137,0,0,1-3.012-.961,3.939,3.939,0,0,1-.973-2.918V-9.937H15.416V-12.68h1.617v-3.152ZM32.174-1.371A4.072,4.072,0,0,1,28.787.234,3.993,3.993,0,0,1,25.629-.979a5.1,5.1,0,0,1-1.072-3.486V-12.68h3.949v8.238a1.419,1.419,0,0,0,1.582,1.629,2.064,2.064,0,0,0,1.934-.973V-12.68h3.973V0h-3.7Zm5.484-5.062a7.746,7.746,0,0,1,1.3-4.746,4.282,4.282,0,0,1,3.633-1.734,3.641,3.641,0,0,1,2.859,1.336V-18h3.961V0H45.861l-.2-1.359A3.739,3.739,0,0,1,42.568.234,4.274,4.274,0,0,1,38.982-1.5,7.991,7.991,0,0,1,37.658-6.434Zm3.949.246q0,3.375,1.969,3.375a1.944,1.944,0,0,0,1.875-1.1V-8.742A1.892,1.892,0,0,0,43.6-9.867q-1.828,0-1.98,2.953Zm-77.227,17.3H-40.74V25h-4.113V11.113h-5.027V7.938h14.262Zm6.645,14.121a6.518,6.518,0,0,1-4.723-1.74,6.009,6.009,0,0,1-1.8-4.529v-.328a7.787,7.787,0,0,1,.721-3.434,5.274,5.274,0,0,1,2.1-2.3,6.35,6.35,0,0,1,3.281-.814,5.489,5.489,0,0,1,4.219,1.658,6.516,6.516,0,0,1,1.547,4.623V19.9h-7.852a2.846,2.846,0,0,0,.926,1.676,2.755,2.755,0,0,0,1.852.609,3.549,3.549,0,0,0,2.93-1.312l1.8,2.133a5.045,5.045,0,0,1-2.092,1.623A7.069,7.069,0,0,1-28.975,25.234Zm-.445-10.1q-1.734,0-2.062,2.3H-27.5v-.3a1.956,1.956,0,0,0-.48-1.471A1.912,1.912,0,0,0-29.42,15.133Zm11.109-2.812.129,1.488a4.36,4.36,0,0,1,3.621-1.723A3.21,3.21,0,0,1-11.314,14a4.22,4.22,0,0,1,3.727-1.91q3.855,0,3.961,4.664V25H-7.588V17a2.417,2.417,0,0,0-.328-1.418,1.4,1.4,0,0,0-1.2-.445,1.871,1.871,0,0,0-1.746,1.043l.012.164V25h-3.961V17.02a2.541,2.541,0,0,0-.316-1.441,1.393,1.393,0,0,0-1.207-.445,1.894,1.894,0,0,0-1.734,1.043V25h-3.949V12.32ZM5.771,25A4.459,4.459,0,0,1,5.4,23.863,3.672,3.672,0,0,1,2.35,25.234,4.5,4.5,0,0,1-.7,24.15a3.45,3.45,0,0,1-1.254-2.725A3.546,3.546,0,0,1-.428,18.309,7.761,7.761,0,0,1,4,17.254H5.221v-.671q0-1.755-1.512-1.755A1.236,1.236,0,0,0,2.3,16.218H-1.646A3.54,3.54,0,0,1-.082,13.233a6.575,6.575,0,0,1,3.99-1.147A5.764,5.764,0,0,1,7.74,13.27a4.115,4.115,0,0,1,1.441,3.246v5.613A5.748,5.748,0,0,0,9.721,24.8V25ZM3.3,22.422a2.2,2.2,0,0,0,1.225-.316,1.983,1.983,0,0,0,.7-.715V19.363H4.072q-2.062,0-2.062,1.852a1.131,1.131,0,0,0,.363.873A1.315,1.315,0,0,0,3.3,22.422ZM4.283,7H8.455L5.2,10.68l-3.223-.006ZM15.967,9.168V12.32h2.086v2.742H15.967v5.8a1.481,1.481,0,0,0,.258,1,1.383,1.383,0,0,0,1.02.281,5.793,5.793,0,0,0,.984-.07v2.824a7.288,7.288,0,0,1-2.227.34,4.137,4.137,0,0,1-3.012-.961,3.939,3.939,0,0,1-.973-2.918V15.063H10.4V12.32h1.617V9.168ZM23.771,25H19.811V12.32h3.961Zm-4.2-15.961a1.778,1.778,0,0,1,.609-1.391,2.579,2.579,0,0,1,3.164,0,1.778,1.778,0,0,1,.609,1.391,1.778,1.778,0,0,1-.609,1.391,2.579,2.579,0,0,1-3.164,0A1.778,1.778,0,0,1,19.576,9.039ZM31.564,22.188a1.756,1.756,0,0,0,1.289-.451,1.654,1.654,0,0,0,.445-1.26H37A4.384,4.384,0,0,1,35.508,23.9a5.558,5.558,0,0,1-3.85,1.336A5.627,5.627,0,0,1,27.3,23.5a6.834,6.834,0,0,1-1.594-4.8v-.164a7.723,7.723,0,0,1,.709-3.393,5.162,5.162,0,0,1,2.045-2.262,6.1,6.1,0,0,1,3.164-.791,5.488,5.488,0,0,1,3.926,1.371A4.863,4.863,0,0,1,37,17.172H33.3a2.168,2.168,0,0,0-.48-1.512,1.658,1.658,0,0,0-1.289-.527q-1.535,0-1.793,1.957a13.809,13.809,0,0,0-.082,1.711,5.424,5.424,0,0,0,.457,2.648A1.582,1.582,0,0,0,31.564,22.188ZM45.814,25a4.459,4.459,0,0,1-.375-1.137,3.672,3.672,0,0,1-3.047,1.371,4.5,4.5,0,0,1-3.047-1.084,3.45,3.45,0,0,1-1.254-2.725,3.546,3.546,0,0,1,1.523-3.117,7.761,7.761,0,0,1,4.43-1.055h1.219v-.671q0-1.755-1.512-1.755a1.236,1.236,0,0,0-1.406,1.39H38.4a3.54,3.54,0,0,1,1.564-2.985,6.575,6.575,0,0,1,3.99-1.147,5.764,5.764,0,0,1,3.832,1.184,4.115,4.115,0,0,1,1.441,3.246v5.613a5.748,5.748,0,0,0,.539,2.672V25Zm-2.473-2.578a2.2,2.2,0,0,0,1.225-.316,1.983,1.983,0,0,0,.7-.715V19.363H44.115q-2.062,0-2.062,1.852a1.131,1.131,0,0,0,.363.873A1.315,1.315,0,0,0,43.342,22.422Z" transform="translate(517.913 4131.062)" fill="#12263f"/>
    </g>
    <g id="Grupo_91932" data-name="Grupo 91932" transform="translate(42.122 -594.9)">
      <circle id="Elipse_4145" data-name="Elipse 4145" cx="95" cy="95" r="95" transform="translate(526.756 4357.806)" fill="#80dcab"/>
      <circle id="Elipse_4144" data-name="Elipse 4144" cx="79.253" cy="79.253" r="79.253" transform="translate(542.504 4532.059) rotate(-90)" fill="none" stroke="#fff" stroke-miterlimit="10" stroke-width="3"/>
      <path id="Trazado_142892" data-name="Trazado 142892" d="M-38.678-7.242h-6.469v4.078h7.641V0H-49.26V-17.062h11.777v3.176h-7.664v3.6h6.469Zm7.8-1.945,1.84-3.492h4.1L-28.271-6.5l3.5,6.5h-4.125l-1.992-3.75L-32.842,0H-36.99l3.516-6.5L-36.8-12.68h4.148ZM-16.518,0a4.459,4.459,0,0,1-.375-1.137A3.672,3.672,0,0,1-19.939.234,4.5,4.5,0,0,1-22.986-.85,3.45,3.45,0,0,1-24.24-3.574a3.546,3.546,0,0,1,1.523-3.117,7.761,7.761,0,0,1,4.43-1.055h1.219v-.671q0-1.755-1.512-1.755a1.236,1.236,0,0,0-1.406,1.39h-3.949a3.54,3.54,0,0,1,1.564-2.985,6.575,6.575,0,0,1,3.99-1.147,5.764,5.764,0,0,1,3.832,1.184,4.115,4.115,0,0,1,1.441,3.246v5.613A5.748,5.748,0,0,0-12.568-.2V0ZM-18.99-2.578a2.2,2.2,0,0,0,1.225-.316,1.983,1.983,0,0,0,.7-.715V-5.637h-1.148q-2.062,0-2.062,1.852a1.131,1.131,0,0,0,.363.873A1.315,1.315,0,0,0-18.99-2.578Zm13.43-.234a1.756,1.756,0,0,0,1.289-.451,1.654,1.654,0,0,0,.445-1.26h3.7A4.384,4.384,0,0,1-1.617-1.1,5.558,5.558,0,0,1-5.467.234,5.627,5.627,0,0,1-9.826-1.5,6.834,6.834,0,0,1-11.42-6.3v-.164a7.723,7.723,0,0,1,.709-3.393,5.162,5.162,0,0,1,2.045-2.262A6.1,6.1,0,0,1-5.5-12.914a5.488,5.488,0,0,1,3.926,1.371A4.863,4.863,0,0,1-.123-7.828h-3.7a2.168,2.168,0,0,0-.48-1.512A1.658,1.658,0,0,0-5.6-9.867q-1.535,0-1.793,1.957A13.809,13.809,0,0,0-7.471-6.2a5.424,5.424,0,0,0,.457,2.648A1.582,1.582,0,0,0-5.561-2.812ZM6.146-15.832v3.152H8.232v2.742H6.146v5.8a1.481,1.481,0,0,0,.258,1,1.383,1.383,0,0,0,1.02.281,5.793,5.793,0,0,0,.984-.07V-.105a7.288,7.288,0,0,1-2.227.34A4.137,4.137,0,0,1,3.17-.727,3.939,3.939,0,0,1,2.2-3.645V-9.937H.58V-12.68H2.2v-3.152ZM13.951,0H9.99V-12.68h3.961Zm-4.2-15.961a1.778,1.778,0,0,1,.609-1.391,2.29,2.29,0,0,1,1.582-.542,2.29,2.29,0,0,1,1.582.542,1.778,1.778,0,0,1,.609,1.391,1.778,1.778,0,0,1-.609,1.391,2.29,2.29,0,0,1-1.582.542,2.29,2.29,0,0,1-1.582-.542A1.778,1.778,0,0,1,9.756-15.961Zm11.227.129v3.152h2.086v2.742H20.982v5.8a1.481,1.481,0,0,0,.258,1,1.383,1.383,0,0,0,1.02.281,5.793,5.793,0,0,0,.984-.07V-.105a7.288,7.288,0,0,1-2.227.34,4.137,4.137,0,0,1-3.012-.961,3.939,3.939,0,0,1-.973-2.918V-9.937H15.416V-12.68h1.617v-3.152ZM32.174-1.371A4.072,4.072,0,0,1,28.787.234,3.993,3.993,0,0,1,25.629-.979a5.1,5.1,0,0,1-1.072-3.486V-12.68h3.949v8.238a1.419,1.419,0,0,0,1.582,1.629,2.064,2.064,0,0,0,1.934-.973V-12.68h3.973V0h-3.7Zm5.484-5.062a7.746,7.746,0,0,1,1.3-4.746,4.282,4.282,0,0,1,3.633-1.734,3.641,3.641,0,0,1,2.859,1.336V-18h3.961V0H45.861l-.2-1.359A3.739,3.739,0,0,1,42.568.234,4.274,4.274,0,0,1,38.982-1.5,7.991,7.991,0,0,1,37.658-6.434Zm3.949.246q0,3.375,1.969,3.375a1.944,1.944,0,0,0,1.875-1.1V-8.742A1.892,1.892,0,0,0,43.6-9.867q-1.828,0-1.98,2.953ZM-42.814,9.168V12.32h2.086v2.742h-2.086v5.8a1.481,1.481,0,0,0,.258,1,1.383,1.383,0,0,0,1.02.281,5.793,5.793,0,0,0,.984-.07v2.824a7.288,7.288,0,0,1-2.227.34,4.137,4.137,0,0,1-3.012-.961,3.939,3.939,0,0,1-.973-2.918V15.063h-1.617V12.32h1.617V9.168Zm9.773,16.066a6.518,6.518,0,0,1-4.723-1.74,6.009,6.009,0,0,1-1.8-4.529v-.328a7.787,7.787,0,0,1,.721-3.434,5.274,5.274,0,0,1,2.1-2.3,6.35,6.35,0,0,1,3.281-.814,5.489,5.489,0,0,1,4.219,1.658A6.516,6.516,0,0,1-27.7,18.367V19.9h-7.852a2.846,2.846,0,0,0,.926,1.676,2.755,2.755,0,0,0,1.852.609,3.549,3.549,0,0,0,2.93-1.312l1.8,2.133a5.045,5.045,0,0,1-2.092,1.623A7.069,7.069,0,0,1-33.041,25.234Zm-.445-10.1q-1.734,0-2.062,2.3h3.984v-.3a1.956,1.956,0,0,0-.48-1.471A1.912,1.912,0,0,0-33.486,15.133Zm11.109-2.812.129,1.488a4.36,4.36,0,0,1,3.621-1.723A3.21,3.21,0,0,1-15.381,14a4.22,4.22,0,0,1,3.727-1.91q3.855,0,3.961,4.664V25h-3.961V17a2.417,2.417,0,0,0-.328-1.418,1.4,1.4,0,0,0-1.2-.445,1.871,1.871,0,0,0-1.746,1.043l.012.164V25h-3.961V17.02a2.541,2.541,0,0,0-.316-1.441,1.393,1.393,0,0,0-1.207-.445,1.894,1.894,0,0,0-1.734,1.043V25H-26.08V12.32ZM6.334,18.754A7.646,7.646,0,0,1,5,23.471a4.264,4.264,0,0,1-3.592,1.764,3.655,3.655,0,0,1-2.871-1.277v5.918H-5.408V12.32h3.691l.117,1.172a3.656,3.656,0,0,1,2.988-1.406,4.3,4.3,0,0,1,3.645,1.729,7.741,7.741,0,0,1,1.3,4.752Zm-3.949-.246q0-3.375-1.969-3.375a1.859,1.859,0,0,0-1.875,1.008v4.992a1.919,1.919,0,0,0,1.9,1.055q1.887,0,1.945-3.258Zm5.191.035a7.484,7.484,0,0,1,.738-3.381,5.28,5.28,0,0,1,2.121-2.279,6.388,6.388,0,0,1,3.246-.8A5.83,5.83,0,0,1,18.17,13.85a6.768,6.768,0,0,1,1.641,4.8v.141a6.566,6.566,0,0,1-1.646,4.705,5.846,5.846,0,0,1-4.459,1.74,5.912,5.912,0,0,1-4.348-1.623,6.348,6.348,0,0,1-1.77-4.4Zm3.949.246a4.718,4.718,0,0,0,.551,2.578,1.835,1.835,0,0,0,1.629.82q2.109,0,2.156-3.246v-.4q0-3.41-2.18-3.41-1.98,0-2.145,2.941Zm17.7-2.895-1.3-.094a2.336,2.336,0,0,0-2.391,1.172V25H21.58V12.32h3.7l.129,1.629a3.058,3.058,0,0,1,2.777-1.863,3.851,3.851,0,0,1,1.1.141ZM37.436,25a4.459,4.459,0,0,1-.375-1.137,3.672,3.672,0,0,1-3.047,1.371,4.5,4.5,0,0,1-3.047-1.084,3.45,3.45,0,0,1-1.254-2.725,3.546,3.546,0,0,1,1.523-3.117,7.761,7.761,0,0,1,4.43-1.055h1.219v-.671q0-1.755-1.512-1.755a1.236,1.236,0,0,0-1.406,1.39H30.018a3.54,3.54,0,0,1,1.564-2.985,6.575,6.575,0,0,1,3.99-1.147A5.764,5.764,0,0,1,39.4,13.27a4.115,4.115,0,0,1,1.441,3.246v5.613a5.748,5.748,0,0,0,.539,2.672V25Zm-2.473-2.578a2.2,2.2,0,0,0,1.225-.316,1.983,1.983,0,0,0,.7-.715V19.363H35.736q-2.062,0-2.062,1.852a1.131,1.131,0,0,0,.363.873A1.315,1.315,0,0,0,34.963,22.422ZM47.2,25H43.236V7H47.2Z" transform="translate(621.757 4449.757)" fill="#12263f"/>
    </g>
    <g id="Grupo_91933" data-name="Grupo 91933" transform="translate(-36.635 -594.9)">
      <circle id="Elipse_4147" data-name="Elipse 4147" cx="95" cy="95" r="95" transform="translate(870.732 4357.806)" fill="#80dcab"/>
      <circle id="Elipse_4146" data-name="Elipse 4146" cx="79.253" cy="79.253" r="79.253" transform="translate(886.48 4532.059) rotate(-90)" fill="none" stroke="#fff" stroke-miterlimit="10" stroke-width="3"/>
      <path id="Trazado_142893" data-name="Trazado 142893" d="M-54.949-7.242h-6.469v4.078h7.641V0H-65.531V-17.062h11.777v3.176h-7.664v3.6h6.469Zm7.8-1.945,1.84-3.492h4.1L-44.543-6.5l3.5,6.5h-4.125l-1.992-3.75L-49.113,0h-4.148l3.516-6.5-3.328-6.176h4.148ZM-32.789,0a4.459,4.459,0,0,1-.375-1.137A3.672,3.672,0,0,1-36.211.234,4.5,4.5,0,0,1-39.258-.85a3.45,3.45,0,0,1-1.254-2.725,3.546,3.546,0,0,1,1.523-3.117,7.761,7.761,0,0,1,4.43-1.055h1.219v-.671q0-1.755-1.512-1.755a1.236,1.236,0,0,0-1.406,1.39h-3.949a3.54,3.54,0,0,1,1.564-2.985,6.575,6.575,0,0,1,3.99-1.147A5.764,5.764,0,0,1-30.82-11.73a4.115,4.115,0,0,1,1.441,3.246v5.613A5.748,5.748,0,0,0-28.84-.2V0Zm-2.473-2.578a2.2,2.2,0,0,0,1.225-.316,1.983,1.983,0,0,0,.7-.715V-5.637h-1.148q-2.062,0-2.062,1.852a1.131,1.131,0,0,0,.363.873A1.315,1.315,0,0,0-35.262-2.578Zm13.43-.234a1.756,1.756,0,0,0,1.289-.451,1.654,1.654,0,0,0,.445-1.26h3.7A4.384,4.384,0,0,1-17.889-1.1,5.558,5.558,0,0,1-21.738.234,5.627,5.627,0,0,1-26.1-1.5a6.834,6.834,0,0,1-1.594-4.8v-.164a7.723,7.723,0,0,1,.709-3.393,5.162,5.162,0,0,1,2.045-2.262,6.1,6.1,0,0,1,3.164-.791,5.488,5.488,0,0,1,3.926,1.371,4.863,4.863,0,0,1,1.453,3.715h-3.7a2.168,2.168,0,0,0-.48-1.512,1.658,1.658,0,0,0-1.289-.527q-1.535,0-1.793,1.957A13.809,13.809,0,0,0-23.742-6.2a5.424,5.424,0,0,0,.457,2.648A1.582,1.582,0,0,0-21.832-2.812Zm11.707-13.02v3.152h2.086v2.742h-2.086v5.8a1.481,1.481,0,0,0,.258,1,1.383,1.383,0,0,0,1.02.281,5.793,5.793,0,0,0,.984-.07V-.105a7.288,7.288,0,0,1-2.227.34A4.137,4.137,0,0,1-13.1-.727a3.939,3.939,0,0,1-.973-2.918V-9.937h-1.617V-12.68h1.617v-3.152ZM-2.32,0H-6.281V-12.68H-2.32Zm-4.2-15.961a1.778,1.778,0,0,1,.609-1.391,2.29,2.29,0,0,1,1.582-.542,2.29,2.29,0,0,1,1.582.542,1.778,1.778,0,0,1,.609,1.391,1.778,1.778,0,0,1-.609,1.391,2.29,2.29,0,0,1-1.582.542,2.29,2.29,0,0,1-1.582-.542A1.778,1.778,0,0,1-6.516-15.961Zm11.227.129v3.152H6.8v2.742H4.711v5.8a1.481,1.481,0,0,0,.258,1,1.383,1.383,0,0,0,1.02.281,5.793,5.793,0,0,0,.984-.07V-.105a7.288,7.288,0,0,1-2.227.34A4.137,4.137,0,0,1,1.734-.727,3.939,3.939,0,0,1,.762-3.645V-9.937H-.855V-12.68H.762v-3.152ZM15.9-1.371A4.072,4.072,0,0,1,12.516.234,3.993,3.993,0,0,1,9.357-.979,5.1,5.1,0,0,1,8.285-4.465V-12.68h3.949v8.238a1.419,1.419,0,0,0,1.582,1.629,2.064,2.064,0,0,0,1.934-.973V-12.68h3.973V0h-3.7Zm5.484-5.062a7.746,7.746,0,0,1,1.3-4.746,4.282,4.282,0,0,1,3.633-1.734,3.641,3.641,0,0,1,2.859,1.336V-18h3.961V0H29.59l-.2-1.359A3.739,3.739,0,0,1,26.3.234,4.274,4.274,0,0,1,22.711-1.5,7.991,7.991,0,0,1,21.387-6.434Zm3.949.246q0,3.375,1.969,3.375a1.944,1.944,0,0,0,1.875-1.1V-8.742a1.892,1.892,0,0,0-1.852-1.125q-1.828,0-1.98,2.953Zm15.527-.246a7.746,7.746,0,0,1,1.3-4.746A4.282,4.282,0,0,1,45.8-12.914a3.641,3.641,0,0,1,2.859,1.336V-18h3.961V0H49.066l-.2-1.359A3.739,3.739,0,0,1,45.773.234,4.274,4.274,0,0,1,42.188-1.5,7.991,7.991,0,0,1,40.863-6.434Zm3.949.246q0,3.375,1.969,3.375a1.944,1.944,0,0,0,1.875-1.1V-8.742A1.892,1.892,0,0,0,46.8-9.867q-1.828,0-1.98,2.953ZM61,.234a6.518,6.518,0,0,1-4.723-1.74,6.009,6.009,0,0,1-1.8-4.529v-.328A7.787,7.787,0,0,1,55.189-9.8a5.274,5.274,0,0,1,2.1-2.3,6.35,6.35,0,0,1,3.281-.814,5.489,5.489,0,0,1,4.219,1.658A6.516,6.516,0,0,1,66.34-6.633V-5.1H58.488a2.846,2.846,0,0,0,.926,1.676,2.755,2.755,0,0,0,1.852.609A3.549,3.549,0,0,0,64.2-4.125L66-1.992A5.045,5.045,0,0,1,63.908-.369,7.069,7.069,0,0,1,61,.234Zm-.445-10.1q-1.734,0-2.062,2.3h3.984v-.3a1.956,1.956,0,0,0-.48-1.471A1.912,1.912,0,0,0,60.551-9.867ZM-33.1,18.754a7.646,7.646,0,0,1-1.33,4.717,4.264,4.264,0,0,1-3.592,1.764,3.655,3.655,0,0,1-2.871-1.277v5.918h-3.949V12.32h3.691l.117,1.172a3.656,3.656,0,0,1,2.988-1.406A4.3,4.3,0,0,1-34.4,13.814a7.741,7.741,0,0,1,1.3,4.752Zm-3.949-.246q0-3.375-1.969-3.375a1.859,1.859,0,0,0-1.875,1.008v4.992a1.919,1.919,0,0,0,1.9,1.055q1.887,0,1.945-3.258Zm5.191.035a7.484,7.484,0,0,1,.738-3.381A5.28,5.28,0,0,1-29,12.883a6.388,6.388,0,0,1,3.246-.8,5.83,5.83,0,0,1,4.488,1.764,6.768,6.768,0,0,1,1.641,4.8v.141a6.566,6.566,0,0,1-1.646,4.705,5.846,5.846,0,0,1-4.459,1.74,5.912,5.912,0,0,1-4.348-1.623,6.348,6.348,0,0,1-1.77-4.4Zm3.949.246a4.718,4.718,0,0,0,.551,2.578,1.835,1.835,0,0,0,1.629.82q2.109,0,2.156-3.246v-.4q0-3.41-2.18-3.41-1.98,0-2.145,2.941Zm16.664,2.648a.912.912,0,0,0-.527-.809,8.021,8.021,0,0,0-2-.633,9.138,9.138,0,0,1-2.437-.861,4.083,4.083,0,0,1-1.465-1.295,3.092,3.092,0,0,1-.5-1.746,3.5,3.5,0,0,1,1.441-2.877,5.938,5.938,0,0,1,3.773-1.131,6.579,6.579,0,0,1,4.031,1.137,3.555,3.555,0,0,1,1.523,2.988h-3.961q0-1.523-1.605-1.523a1.591,1.591,0,0,0-1.043.346,1.07,1.07,0,0,0-.422.861.982.982,0,0,0,.516.855,4.872,4.872,0,0,0,1.646.539,14.228,14.228,0,0,1,1.986.5q2.859.984,2.859,3.527a3.321,3.321,0,0,1-1.541,2.824,6.758,6.758,0,0,1-3.99,1.09,6.9,6.9,0,0,1-2.906-.586,4.86,4.86,0,0,1-1.992-1.594,3.609,3.609,0,0,1-.715-2.121h3.691a1.526,1.526,0,0,0,.586,1.283,2.41,2.41,0,0,0,1.441.4,1.9,1.9,0,0,0,1.213-.328A1.05,1.05,0,0,0-11.244,21.438ZM-1.424,25H-5.385V12.32h3.961Zm-4.2-15.961A1.778,1.778,0,0,1-5.01,7.648a2.29,2.29,0,0,1,1.582-.542,2.29,2.29,0,0,1,1.582.542,1.778,1.778,0,0,1,.609,1.391,1.778,1.778,0,0,1-.609,1.391,2.29,2.29,0,0,1-1.582.542A2.29,2.29,0,0,1-5.01,10.43,1.778,1.778,0,0,1-5.619,9.039ZM6.369,22.188a1.756,1.756,0,0,0,1.289-.451,1.654,1.654,0,0,0,.445-1.26h3.7A4.384,4.384,0,0,1,10.313,23.9a5.558,5.558,0,0,1-3.85,1.336A5.627,5.627,0,0,1,2.1,23.5,6.834,6.834,0,0,1,.51,18.7v-.164a7.723,7.723,0,0,1,.709-3.393,5.162,5.162,0,0,1,2.045-2.262,6.1,6.1,0,0,1,3.164-.791,5.488,5.488,0,0,1,3.926,1.371,4.863,4.863,0,0,1,1.453,3.715H8.1a2.168,2.168,0,0,0-.48-1.512,1.658,1.658,0,0,0-1.289-.527q-1.535,0-1.793,1.957A13.809,13.809,0,0,0,4.459,18.8a5.424,5.424,0,0,0,.457,2.648A1.582,1.582,0,0,0,6.369,22.188ZM17.643,25H13.682V12.32h3.961Zm-4.2-15.961a1.778,1.778,0,0,1,.609-1.391,2.29,2.29,0,0,1,1.582-.542,2.29,2.29,0,0,1,1.582.542,1.778,1.778,0,0,1,.609,1.391,1.778,1.778,0,0,1-.609,1.391,2.29,2.29,0,0,1-1.582.542,2.29,2.29,0,0,1-1.582-.542A1.778,1.778,0,0,1,13.447,9.039Zm6.129,9.5a7.484,7.484,0,0,1,.738-3.381,5.28,5.28,0,0,1,2.121-2.279,6.388,6.388,0,0,1,3.246-.8A5.83,5.83,0,0,1,30.17,13.85a6.768,6.768,0,0,1,1.641,4.8v.141a6.566,6.566,0,0,1-1.646,4.705,5.846,5.846,0,0,1-4.459,1.74,5.912,5.912,0,0,1-4.348-1.623,6.348,6.348,0,0,1-1.77-4.4Zm3.949.246a4.718,4.718,0,0,0,.551,2.578,1.835,1.835,0,0,0,1.629.82q2.109,0,2.156-3.246v-.4q0-3.41-2.18-3.41-1.98,0-2.145,2.941ZM26.221,7h4.172l-3.258,3.68-3.223-.006Zm10.957,5.32.129,1.488a4.3,4.3,0,0,1,3.621-1.723,3.618,3.618,0,0,1,2.959,1.184A5.635,5.635,0,0,1,44.9,16.832V25H40.939V17a2.14,2.14,0,0,0-.387-1.412,1.789,1.789,0,0,0-1.406-.451,1.883,1.883,0,0,0-1.723.914V25H33.475V12.32Z" transform="translate(966.621 4449.757)" fill="#12263f"/>
    </g>
    <g id="Grupo_91931" data-name="Grupo 91931" transform="translate(-41.27 -538.706)">
      <circle id="Elipse_4143" data-name="Elipse 4143" cx="95" cy="95" r="95" transform="translate(969.245 4031.806)" fill="#80dcab"/>
      <circle id="Elipse_4142" data-name="Elipse 4142" cx="79.253" cy="79.253" r="79.253" transform="translate(984.992 4206.059) rotate(-90)" fill="none" stroke="#fff" stroke-miterlimit="10" stroke-width="3"/>
      <path id="Trazado_142894" data-name="Trazado 142894" d="M-50.6-5.3a5.712,5.712,0,0,1-.881,2.884A5.316,5.316,0,0,1-53.743-.473a7.7,7.7,0,0,1-3.325.688,6.142,6.142,0,0,1-4.855-2.009A8.294,8.294,0,0,1-63.7-7.466v-.773a9.467,9.467,0,0,1,.8-4.023,6.064,6.064,0,0,1,2.3-2.664,6.429,6.429,0,0,1,3.48-.94,6.741,6.741,0,0,1,4.576,1.5,5.921,5.921,0,0,1,1.966,4.13h-3.76a2.8,2.8,0,0,0-.72-2.052,2.96,2.96,0,0,0-2.062-.623,2.252,2.252,0,0,0-2.062,1.053A6.766,6.766,0,0,0-59.861-8.5v1.106a7.487,7.487,0,0,0,.628,3.577,2.3,2.3,0,0,0,2.165,1.074,2.9,2.9,0,0,0,1.987-.612A2.6,2.6,0,0,0-54.35-5.3Zm1.16-.623a6.86,6.86,0,0,1,.677-3.1,4.84,4.84,0,0,1,1.944-2.089,5.856,5.856,0,0,1,2.976-.73,5.344,5.344,0,0,1,4.114,1.617,6.2,6.2,0,0,1,1.5,4.4v.129A6.019,6.019,0,0,1-39.735-1.38a5.359,5.359,0,0,1-4.087,1.6,5.42,5.42,0,0,1-3.985-1.488A5.819,5.819,0,0,1-49.43-5.307Zm3.62.226a4.325,4.325,0,0,0,.5,2.363,1.682,1.682,0,0,0,1.493.752q1.934,0,1.977-2.976v-.365q0-3.126-2-3.126-1.815,0-1.966,2.7Zm12.515-5.93.118,1.364a3.942,3.942,0,0,1,3.319-1.579,3.316,3.316,0,0,1,2.712,1.085,5.165,5.165,0,0,1,.929,3.266V0h-3.631V-7.337a1.961,1.961,0,0,0-.354-1.294A1.64,1.64,0,0,0-31.5-9.045a1.726,1.726,0,0,0-1.579.838V0H-36.7V-11.623Zm15.168,8.357a.836.836,0,0,0-.483-.741,7.353,7.353,0,0,0-1.837-.58,8.376,8.376,0,0,1-2.234-.79,3.743,3.743,0,0,1-1.343-1.187,2.834,2.834,0,0,1-.462-1.6A3.212,3.212,0,0,1-23.176-10.8a5.443,5.443,0,0,1,3.459-1.037,6.03,6.03,0,0,1,3.7,1.042,3.258,3.258,0,0,1,1.4,2.739h-3.631q0-1.4-1.472-1.4a1.459,1.459,0,0,0-.956.317.981.981,0,0,0-.387.79.9.9,0,0,0,.473.784,4.466,4.466,0,0,0,1.509.494,13.043,13.043,0,0,1,1.821.462q2.621.9,2.621,3.233A3.044,3.044,0,0,1-16.06-.784a6.2,6.2,0,0,1-3.658,1,6.322,6.322,0,0,1-2.664-.537,4.455,4.455,0,0,1-1.826-1.461,3.308,3.308,0,0,1-.655-1.944h3.384a1.4,1.4,0,0,0,.537,1.176,2.209,2.209,0,0,0,1.321.371,1.738,1.738,0,0,0,1.112-.3A.962.962,0,0,0-18.138-3.266Zm9,3.266h-3.631V-11.623h3.631Zm-3.846-14.631a1.63,1.63,0,0,1,.559-1.275,2.1,2.1,0,0,1,1.45-.5,2.1,2.1,0,0,1,1.45.5,1.63,1.63,0,0,1,.559,1.275,1.63,1.63,0,0,1-.559,1.275,2.1,2.1,0,0,1-1.45.5,2.1,2.1,0,0,1-1.45-.5A1.63,1.63,0,0,1-12.982-14.631ZM-.822-3.266a.836.836,0,0,0-.483-.741,7.353,7.353,0,0,0-1.837-.58,8.376,8.376,0,0,1-2.234-.79A3.743,3.743,0,0,1-6.719-6.563a2.834,2.834,0,0,1-.462-1.6A3.212,3.212,0,0,1-5.86-10.8,5.443,5.443,0,0,1-2.4-11.838a6.03,6.03,0,0,1,3.7,1.042,3.258,3.258,0,0,1,1.4,2.739H-.94q0-1.4-1.472-1.4a1.459,1.459,0,0,0-.956.317.981.981,0,0,0-.387.79.9.9,0,0,0,.473.784,4.466,4.466,0,0,0,1.509.494,13.043,13.043,0,0,1,1.821.462q2.621.9,2.621,3.233A3.044,3.044,0,0,1,1.257-.784,6.2,6.2,0,0,1-2.4.215,6.322,6.322,0,0,1-5.065-.322,4.455,4.455,0,0,1-6.891-1.783a3.308,3.308,0,0,1-.655-1.944h3.384a1.4,1.4,0,0,0,.537,1.176A2.209,2.209,0,0,0-2.3-2.181a1.738,1.738,0,0,0,1.112-.3A.962.962,0,0,0-.822-3.266Zm9.4-11.247v2.89H10.49v2.514H8.578v5.317a1.358,1.358,0,0,0,.236.913,1.268,1.268,0,0,0,.935.258,5.311,5.311,0,0,0,.9-.064V-.1A6.681,6.681,0,0,1,8.61.215,3.792,3.792,0,0,1,5.849-.666a3.61,3.61,0,0,1-.892-2.675V-9.109H3.475v-2.514H4.958v-2.89ZM17.537.215a5.975,5.975,0,0,1-4.329-1.6,5.509,5.509,0,0,1-1.654-4.152v-.3a7.138,7.138,0,0,1,.661-3.147,4.834,4.834,0,0,1,1.928-2.111,5.821,5.821,0,0,1,3.008-.747,5.031,5.031,0,0,1,3.867,1.52A5.973,5.973,0,0,1,22.435-6.08v1.407h-7.2a2.609,2.609,0,0,0,.849,1.536,2.525,2.525,0,0,0,1.7.559,3.254,3.254,0,0,0,2.686-1.2l1.654,1.955A4.624,4.624,0,0,1,20.206-.338,6.48,6.48,0,0,1,17.537.215Zm-.408-9.26q-1.59,0-1.891,2.105H18.89v-.279a1.793,1.793,0,0,0-.44-1.348A1.753,1.753,0,0,0,17.128-9.045Zm10.087-2.578.118,1.364a3.942,3.942,0,0,1,3.319-1.579,3.316,3.316,0,0,1,2.712,1.085,5.165,5.165,0,0,1,.929,3.266V0H30.664V-7.337a1.961,1.961,0,0,0-.354-1.294,1.64,1.64,0,0,0-1.289-.414,1.726,1.726,0,0,0-1.579.838V0h-3.62V-11.623Zm14,9.045a1.61,1.61,0,0,0,1.182-.414A1.517,1.517,0,0,0,42.8-4.146H46.2a4.018,4.018,0,0,1-1.37,3.137A5.1,5.1,0,0,1,41.3.215a5.158,5.158,0,0,1-4-1.59,6.264,6.264,0,0,1-1.461-4.4v-.15a7.08,7.08,0,0,1,.65-3.11,4.732,4.732,0,0,1,1.875-2.073,5.589,5.589,0,0,1,2.9-.725,5.03,5.03,0,0,1,3.6,1.257A4.458,4.458,0,0,1,46.2-7.176H42.8a1.987,1.987,0,0,0-.44-1.386,1.52,1.52,0,0,0-1.182-.483q-1.407,0-1.644,1.794a12.659,12.659,0,0,0-.075,1.568,4.972,4.972,0,0,0,.419,2.428A1.45,1.45,0,0,0,41.212-2.578ZM51.546,0H47.916V-11.623h3.631ZM47.7-14.631a1.63,1.63,0,0,1,.559-1.275,2.1,2.1,0,0,1,1.45-.5,2.1,2.1,0,0,1,1.45.5,1.63,1.63,0,0,1,.559,1.275,1.63,1.63,0,0,1-.559,1.275,2.1,2.1,0,0,1-1.45.5,2.1,2.1,0,0,1-1.45-.5A1.63,1.63,0,0,1,47.7-14.631ZM60.323,0a4.088,4.088,0,0,1-.344-1.042A3.366,3.366,0,0,1,57.186.215a4.124,4.124,0,0,1-2.793-.994,3.163,3.163,0,0,1-1.149-2.5,3.251,3.251,0,0,1,1.4-2.857A7.114,7.114,0,0,1,58.7-7.1h1.117v-.615q0-1.608-1.386-1.608A1.133,1.133,0,0,0,57.143-8.05h-3.62a3.245,3.245,0,0,1,1.434-2.736,6.027,6.027,0,0,1,3.658-1.051,5.284,5.284,0,0,1,3.513,1.085,3.772,3.772,0,0,1,1.321,2.976v5.146a5.269,5.269,0,0,0,.494,2.449V0ZM58.056-2.363a2.019,2.019,0,0,0,1.123-.29,1.818,1.818,0,0,0,.639-.655V-5.167H58.765q-1.891,0-1.891,1.7a1.036,1.036,0,0,0,.333.8A1.205,1.205,0,0,0,58.056-2.363ZM-28.091,20.1h6.563V23H-31.861V7.359h3.771Zm7.53-3.019a6.86,6.86,0,0,1,.677-3.1,4.84,4.84,0,0,1,1.944-2.089,5.856,5.856,0,0,1,2.976-.73,5.344,5.344,0,0,1,4.114,1.617,6.2,6.2,0,0,1,1.5,4.4v.129a6.019,6.019,0,0,1-1.509,4.313,5.359,5.359,0,0,1-4.087,1.6,5.42,5.42,0,0,1-3.985-1.488,5.819,5.819,0,0,1-1.622-4.034Zm3.62.226a4.325,4.325,0,0,0,.5,2.363,1.682,1.682,0,0,0,1.493.752q1.934,0,1.977-2.976v-.365q0-3.126-2-3.126-1.815,0-1.966,2.7ZM-14.47,6.5h3.824l-2.986,3.373-2.954-.005Zm6.295,10.6a7.848,7.848,0,0,1,.58-3.115A4.67,4.67,0,0,1-5.93,11.9a4.389,4.389,0,0,1,2.524-.736A3.49,3.49,0,0,1-.569,12.387l.129-1.01H2.847V22.56a4.9,4.9,0,0,1-.714,2.669,4.584,4.584,0,0,1-2.068,1.74,7.6,7.6,0,0,1-3.137.607,6.557,6.557,0,0,1-2.476-.483A4.47,4.47,0,0,1-7.38,25.836l1.515-2.127A3.319,3.319,0,0,0-3.2,24.9,2.156,2.156,0,0,0-.795,22.431v-.365a3.4,3.4,0,0,1-2.632,1.149,4.2,4.2,0,0,1-3.437-1.627,6.743,6.743,0,0,1-1.311-4.356Zm3.631.226a4.135,4.135,0,0,0,.537,2.261,1.7,1.7,0,0,0,1.5.833,1.923,1.923,0,0,0,1.708-.784V14.75a1.875,1.875,0,0,0-1.687-.795A1.706,1.706,0,0,0-4,14.82,4.715,4.715,0,0,0-4.544,17.328ZM8.723,23H5.092V11.377H8.723ZM4.877,8.369a1.63,1.63,0,0,1,.559-1.275,2.1,2.1,0,0,1,1.45-.5,2.1,2.1,0,0,1,1.45.5,1.63,1.63,0,0,1,.559,1.275,1.63,1.63,0,0,1-.559,1.275,2.1,2.1,0,0,1-1.45.5,2.1,2.1,0,0,1-1.45-.5A1.63,1.63,0,0,1,4.877,8.369ZM15.866,20.422a1.61,1.61,0,0,0,1.182-.414,1.517,1.517,0,0,0,.408-1.155h3.395a4.018,4.018,0,0,1-1.37,3.137,5.1,5.1,0,0,1-3.529,1.225,5.158,5.158,0,0,1-4-1.59,6.264,6.264,0,0,1-1.461-4.4v-.15a7.08,7.08,0,0,1,.65-3.11,4.732,4.732,0,0,1,1.875-2.073,5.589,5.589,0,0,1,2.9-.725,5.03,5.03,0,0,1,3.6,1.257,4.458,4.458,0,0,1,1.332,3.405H17.456a1.987,1.987,0,0,0-.44-1.386,1.52,1.52,0,0,0-1.182-.483q-1.407,0-1.644,1.794a12.659,12.659,0,0,0-.075,1.568,4.972,4.972,0,0,0,.419,2.428A1.45,1.45,0,0,0,15.866,20.422ZM28.929,23a4.087,4.087,0,0,1-.344-1.042,3.366,3.366,0,0,1-2.793,1.257A4.124,4.124,0,0,1,23,22.221a3.163,3.163,0,0,1-1.149-2.5,3.251,3.251,0,0,1,1.4-2.857,7.114,7.114,0,0,1,4.061-.967h1.117v-.615q0-1.608-1.386-1.608a1.133,1.133,0,0,0-1.289,1.274h-3.62a3.245,3.245,0,0,1,1.434-2.736,6.027,6.027,0,0,1,3.658-1.051,5.284,5.284,0,0,1,3.513,1.085,3.772,3.772,0,0,1,1.321,2.976v5.146a5.269,5.269,0,0,0,.494,2.449V23Zm-2.267-2.363a2.019,2.019,0,0,0,1.123-.29,1.818,1.818,0,0,0,.639-.655V17.833H27.371q-1.891,0-1.891,1.7a1.036,1.036,0,0,0,.333.8A1.205,1.205,0,0,0,26.662,20.637Z" transform="translate(1061.757 4129.062)" fill="#12263f"/>
    </g>
    <path id="Trazado_142889" data-name="Trazado 142889" d="M-61.306,0V-15.641h5.038a7.411,7.411,0,0,1,3.728.94,6.607,6.607,0,0,1,2.583,2.653,8.011,8.011,0,0,1,.94,3.84v.72a8.057,8.057,0,0,1-.908,3.851A6.635,6.635,0,0,1-52.481-.972,7.248,7.248,0,0,1-56.16,0Zm3.771-12.729V-2.9h1.311a2.933,2.933,0,0,0,2.492-1.155,5.659,5.659,0,0,0,.87-3.432v-.677a5.613,5.613,0,0,0-.87-3.416,2.984,2.984,0,0,0-2.535-1.149ZM-41.626.215a5.975,5.975,0,0,1-4.329-1.6,5.509,5.509,0,0,1-1.654-4.152v-.3a7.138,7.138,0,0,1,.661-3.147,4.834,4.834,0,0,1,1.928-2.111,5.821,5.821,0,0,1,3.008-.747,5.031,5.031,0,0,1,3.867,1.52A5.973,5.973,0,0,1-36.728-6.08v1.407h-7.2a2.609,2.609,0,0,0,.849,1.536,2.525,2.525,0,0,0,1.7.559,3.254,3.254,0,0,0,2.686-1.2l1.654,1.955A4.624,4.624,0,0,1-38.957-.338,6.48,6.48,0,0,1-41.626.215Zm-.408-9.26q-1.59,0-1.891,2.105h3.652v-.279a1.793,1.793,0,0,0-.44-1.348A1.753,1.753,0,0,0-42.034-9.045Zm10.087-2.578.118,1.364a3.942,3.942,0,0,1,3.319-1.579A3.316,3.316,0,0,1-25.8-10.753a5.165,5.165,0,0,1,.929,3.266V0H-28.5V-7.337a1.961,1.961,0,0,0-.354-1.294,1.64,1.64,0,0,0-1.289-.414,1.726,1.726,0,0,0-1.579.838V0h-3.62V-11.623Zm13.3-2.89v2.89h1.912v2.514h-1.912v5.317a1.358,1.358,0,0,0,.236.913,1.268,1.268,0,0,0,.935.258,5.311,5.311,0,0,0,.9-.064V-.1a6.681,6.681,0,0,1-2.041.312,3.792,3.792,0,0,1-2.761-.881,3.61,3.61,0,0,1-.892-2.675V-9.109h-1.482v-2.514h1.482v-2.89ZM-8.282-8.347l-1.192-.086a2.142,2.142,0,0,0-2.191,1.074V0h-3.62V-11.623h3.395l.118,1.493a2.8,2.8,0,0,1,2.546-1.708,3.53,3.53,0,0,1,1.01.129Zm.462,2.428a6.86,6.86,0,0,1,.677-3.1A4.84,4.84,0,0,1-5.2-11.107a5.856,5.856,0,0,1,2.976-.73,5.344,5.344,0,0,1,4.114,1.617,6.2,6.2,0,0,1,1.5,4.4v.129A6.019,6.019,0,0,1,1.885-1.38,5.359,5.359,0,0,1-2.2.215,5.42,5.42,0,0,1-6.187-1.273,5.819,5.819,0,0,1-7.81-5.307Zm3.62.226A4.325,4.325,0,0,0-3.7-3.33,1.682,1.682,0,0,0-2.2-2.578q1.934,0,1.977-2.976v-.365q0-3.126-2-3.126-1.815,0-1.966,2.7Zm14.212-.2A7.1,7.1,0,0,1,11.2-10.248a3.925,3.925,0,0,1,3.33-1.59,3.338,3.338,0,0,1,2.621,1.225V-16.5h3.631V0H17.531l-.183-1.246A3.428,3.428,0,0,1,14.513.215a3.918,3.918,0,0,1-3.287-1.59A7.325,7.325,0,0,1,10.012-5.9Zm3.62.226q0,3.094,1.8,3.094a1.782,1.782,0,0,0,1.719-1.01V-8.014a1.734,1.734,0,0,0-1.7-1.031q-1.676,0-1.815,2.707ZM28.467.215a5.975,5.975,0,0,1-4.329-1.6,5.509,5.509,0,0,1-1.654-4.152v-.3a7.138,7.138,0,0,1,.661-3.147,4.834,4.834,0,0,1,1.928-2.111,5.821,5.821,0,0,1,3.008-.747,5.031,5.031,0,0,1,3.867,1.52A5.973,5.973,0,0,1,33.365-6.08v1.407h-7.2a2.609,2.609,0,0,0,.849,1.536,2.525,2.525,0,0,0,1.7.559,3.254,3.254,0,0,0,2.686-1.2l1.654,1.955A4.624,4.624,0,0,1,31.136-.338,6.48,6.48,0,0,1,28.467.215Zm-.408-9.26q-1.59,0-1.891,2.105H29.82v-.279a1.793,1.793,0,0,0-.44-1.348A1.753,1.753,0,0,0,28.059-9.045ZM44.118,0H40.487V-16.5h3.631Zm8.776,0a4.088,4.088,0,0,1-.344-1.042A3.366,3.366,0,0,1,49.758.215a4.124,4.124,0,0,1-2.793-.994,3.163,3.163,0,0,1-1.149-2.5,3.251,3.251,0,0,1,1.4-2.857A7.114,7.114,0,0,1,51.272-7.1H52.39v-.615q0-1.608-1.386-1.608A1.133,1.133,0,0,0,49.715-8.05h-3.62a3.245,3.245,0,0,1,1.434-2.736,6.027,6.027,0,0,1,3.658-1.051A5.284,5.284,0,0,1,54.7-10.753a3.772,3.772,0,0,1,1.321,2.976v5.146a5.269,5.269,0,0,0,.494,2.449V0ZM50.628-2.363a2.019,2.019,0,0,0,1.123-.29,1.818,1.818,0,0,0,.639-.655V-5.167H51.337q-1.891,0-1.891,1.7a1.036,1.036,0,0,0,.333.8A1.205,1.205,0,0,0,50.628-2.363ZM-83.016,11.377l.118,1.364a3.942,3.942,0,0,1,3.319-1.579,3.316,3.316,0,0,1,2.712,1.085,5.165,5.165,0,0,1,.929,3.266V23h-3.631V15.663a1.961,1.961,0,0,0-.354-1.294,1.64,1.64,0,0,0-1.289-.414,1.726,1.726,0,0,0-1.579.838V23h-3.62V11.377Zm8.626,5.7a6.86,6.86,0,0,1,.677-3.1,4.84,4.84,0,0,1,1.944-2.089,5.856,5.856,0,0,1,2.976-.73,5.344,5.344,0,0,1,4.114,1.617,6.2,6.2,0,0,1,1.5,4.4v.129a6.019,6.019,0,0,1-1.509,4.313,5.359,5.359,0,0,1-4.087,1.6,5.42,5.42,0,0,1-3.985-1.488,5.819,5.819,0,0,1-1.622-4.034Zm3.62.226a4.325,4.325,0,0,0,.5,2.363,1.682,1.682,0,0,0,1.493.752q1.934,0,1.977-2.976v-.365q0-3.126-2-3.126-1.815,0-1.966,2.7Zm16.221-2.653-1.192-.086a2.142,2.142,0,0,0-2.191,1.074V23h-3.62V11.377h3.395l.118,1.493a2.8,2.8,0,0,1,2.546-1.708,3.53,3.53,0,0,1,1.01.129Zm4.727-3.276.118,1.364a4,4,0,0,1,3.319-1.579,2.942,2.942,0,0,1,2.976,1.751,3.868,3.868,0,0,1,3.416-1.751q3.534,0,3.631,4.275V23h-3.631V15.663a2.216,2.216,0,0,0-.3-1.3,1.28,1.28,0,0,0-1.1-.408,1.715,1.715,0,0,0-1.6.956l.011.15V23H-46.61V15.685a2.329,2.329,0,0,0-.29-1.321,1.277,1.277,0,0,0-1.106-.408,1.736,1.736,0,0,0-1.59.956V23h-3.62V11.377ZM-27.747,23a4.087,4.087,0,0,1-.344-1.042,3.366,3.366,0,0,1-2.793,1.257,4.124,4.124,0,0,1-2.793-.994,3.163,3.163,0,0,1-1.149-2.5,3.251,3.251,0,0,1,1.4-2.857,7.114,7.114,0,0,1,4.061-.967h1.117v-.615q0-1.608-1.386-1.608a1.133,1.133,0,0,0-1.289,1.274h-3.62a3.245,3.245,0,0,1,1.434-2.736,6.027,6.027,0,0,1,3.658-1.051,5.284,5.284,0,0,1,3.513,1.085,3.772,3.772,0,0,1,1.321,2.976v5.146a5.269,5.269,0,0,0,.494,2.449V23Zm-2.267-2.363a2.019,2.019,0,0,0,1.123-.29,1.818,1.818,0,0,0,.639-.655V17.833H-29.3q-1.891,0-1.891,1.7a1.036,1.036,0,0,0,.333.8A1.205,1.205,0,0,0-30.014,20.637ZM-3.91,23H-7.659L-13.2,13.268V23h-3.771V7.359H-13.2l5.532,9.732V7.359h3.76ZM10.441,10.271H5.747V23H1.977V10.271H-2.632V7.359H10.441ZM24.385,17.7a5.712,5.712,0,0,1-.881,2.884,5.316,5.316,0,0,1-2.261,1.939,7.7,7.7,0,0,1-3.325.688,6.142,6.142,0,0,1-4.855-2.009,8.294,8.294,0,0,1-1.772-5.672v-.773a9.467,9.467,0,0,1,.8-4.023,6.064,6.064,0,0,1,2.3-2.664,6.429,6.429,0,0,1,3.48-.94,6.741,6.741,0,0,1,4.576,1.5,5.921,5.921,0,0,1,1.966,4.13h-3.76a2.8,2.8,0,0,0-.72-2.052,2.96,2.96,0,0,0-2.062-.623,2.252,2.252,0,0,0-2.062,1.053,6.766,6.766,0,0,0-.687,3.362v1.106a7.487,7.487,0,0,0,.628,3.577,2.3,2.3,0,0,0,2.165,1.074,2.9,2.9,0,0,0,1.987-.612,2.6,2.6,0,0,0,.73-1.944Zm7.251-2.344.956-8h9.142v2.793h-6.2l-.354,3.128a4.27,4.27,0,0,1,1.015-.4,5.107,5.107,0,0,1,4.813,1.208,5.56,5.56,0,0,1,1.251,3.873,5.55,5.55,0,0,1-.671,2.723A4.615,4.615,0,0,1,39.7,22.56a5.952,5.952,0,0,1-2.868.655,6.4,6.4,0,0,1-2.761-.606,4.953,4.953,0,0,1-2.02-1.664,4.043,4.043,0,0,1-.72-2.388h3.631a2.054,2.054,0,0,0,.548,1.361,1.739,1.739,0,0,0,1.3.5q1.826,0,1.826-2.7,0-2.5-2.234-2.5a2.23,2.23,0,0,0-1.891.815Zm23.386,1.248A7.468,7.468,0,0,1,53.6,21.5a4.919,4.919,0,0,1-4.012,1.719,4.945,4.945,0,0,1-4.039-1.729,7.457,7.457,0,0,1-1.429-4.877V13.751a7.468,7.468,0,0,1,1.423-4.888,4.931,4.931,0,0,1,4.023-1.719,4.933,4.933,0,0,1,4.028,1.729,7.475,7.475,0,0,1,1.429,4.888ZM51.4,13.289a5.578,5.578,0,0,0-.44-2.519,1.472,1.472,0,0,0-1.4-.833,1.437,1.437,0,0,0-1.359.773,5.255,5.255,0,0,0-.457,2.342v4a5.62,5.62,0,0,0,.44,2.562,1.478,1.478,0,0,0,1.4.811,1.458,1.458,0,0,0,1.364-.79,5.366,5.366,0,0,0,.451-2.476Zm15.061,3.6h1.59v2.793h-1.59V23h-3.62V19.681H56.794l-.215-2.213L62.842,7.392V7.359h3.62Zm-6.435,0h2.814V12.075l-.226.365ZM72.95,13.665h1.708a1.776,1.776,0,0,0,2.03-1.987,1.718,1.718,0,0,0-.483-1.262,1.833,1.833,0,0,0-1.364-.489,1.962,1.962,0,0,0-1.251.419,1.278,1.278,0,0,0-.532,1.042h-3.62a3.706,3.706,0,0,1,.688-2.2,4.54,4.54,0,0,1,1.907-1.509,6.519,6.519,0,0,1,2.68-.542,6.405,6.405,0,0,1,4.1,1.192A3.964,3.964,0,0,1,80.309,11.6a3.3,3.3,0,0,1-.618,1.907,4.4,4.4,0,0,1-1.8,1.456,4.205,4.205,0,0,1,1.955,1.37,3.607,3.607,0,0,1,.709,2.272,4.036,4.036,0,0,1-1.611,3.352,6.688,6.688,0,0,1-4.232,1.257,6.936,6.936,0,0,1-2.852-.585,4.468,4.468,0,0,1-1.993-1.622,4.217,4.217,0,0,1-.677-2.358h3.642a1.63,1.63,0,0,0,.58,1.246,2.048,2.048,0,0,0,1.429.526,2.145,2.145,0,0,0,1.525-.532,1.777,1.777,0,0,0,.569-1.359,2.078,2.078,0,0,0-.591-1.676,2.47,2.47,0,0,0-1.633-.494H72.95ZM83.714,27.211l-1.826-.859.365-.73a5.958,5.958,0,0,0,.784-2.664V20.271h2.9L85.927,22.6a5.827,5.827,0,0,1-.634,2.514A6.387,6.387,0,0,1,83.714,27.211ZM-77.849,42.734a.836.836,0,0,0-.483-.741,7.353,7.353,0,0,0-1.837-.58,8.376,8.376,0,0,1-2.234-.79,3.743,3.743,0,0,1-1.343-1.187,2.834,2.834,0,0,1-.462-1.6A3.212,3.212,0,0,1-82.887,35.2a5.443,5.443,0,0,1,3.459-1.037,6.03,6.03,0,0,1,3.7,1.042,3.258,3.258,0,0,1,1.4,2.739h-3.631q0-1.4-1.472-1.4a1.459,1.459,0,0,0-.956.317.981.981,0,0,0-.387.79.9.9,0,0,0,.473.784,4.466,4.466,0,0,0,1.509.494,13.043,13.043,0,0,1,1.821.462q2.621.9,2.621,3.233a3.044,3.044,0,0,1-1.413,2.589,6.2,6.2,0,0,1-3.658,1,6.322,6.322,0,0,1-2.664-.537,4.455,4.455,0,0,1-1.826-1.461,3.308,3.308,0,0,1-.655-1.944h3.384a1.4,1.4,0,0,0,.537,1.176,2.209,2.209,0,0,0,1.321.371,1.738,1.738,0,0,0,1.112-.3A.962.962,0,0,0-77.849,42.734Zm10.807,3.48a5.975,5.975,0,0,1-4.329-1.6,5.509,5.509,0,0,1-1.654-4.152v-.3a7.138,7.138,0,0,1,.661-3.147,4.834,4.834,0,0,1,1.928-2.111,5.821,5.821,0,0,1,3.008-.747,5.031,5.031,0,0,1,3.867,1.52,5.973,5.973,0,0,1,1.418,4.238v1.407h-7.2a2.609,2.609,0,0,0,.849,1.536,2.525,2.525,0,0,0,1.7.559,3.254,3.254,0,0,0,2.686-1.2l1.654,1.955a4.624,4.624,0,0,1-1.917,1.488A6.48,6.48,0,0,1-67.042,46.215Zm-.408-9.26q-1.59,0-1.891,2.105h3.652v-.279a1.793,1.793,0,0,0-.44-1.348A1.753,1.753,0,0,0-67.45,36.955ZM-55.666,40.1a7.1,7.1,0,0,1,1.192-4.351,3.925,3.925,0,0,1,3.33-1.59,3.338,3.338,0,0,1,2.621,1.225V29.5h3.631V46h-3.255l-.183-1.246a3.428,3.428,0,0,1-2.836,1.461,3.918,3.918,0,0,1-3.287-1.59A7.325,7.325,0,0,1-55.666,40.1Zm3.62.226q0,3.094,1.8,3.094a1.782,1.782,0,0,0,1.719-1.01V37.986a1.734,1.734,0,0,0-1.7-1.031q-1.676,0-1.815,2.707Zm14.835,5.887a5.975,5.975,0,0,1-4.329-1.6,5.509,5.509,0,0,1-1.654-4.152v-.3a7.138,7.138,0,0,1,.661-3.147,4.834,4.834,0,0,1,1.928-2.111,5.821,5.821,0,0,1,3.008-.747,5.031,5.031,0,0,1,3.867,1.52,5.973,5.973,0,0,1,1.418,4.238v1.407h-7.2a2.609,2.609,0,0,0,.849,1.536,2.525,2.525,0,0,0,1.7.559,3.254,3.254,0,0,0,2.686-1.2l1.654,1.955a4.624,4.624,0,0,1-1.917,1.488A6.48,6.48,0,0,1-37.211,46.215Zm-.408-9.26q-1.59,0-1.891,2.105h3.652v-.279a1.793,1.793,0,0,0-.44-1.348A1.753,1.753,0,0,0-37.619,36.955ZM-30.014,46V36.891H-31.7V34.377h1.687V33.99a4.438,4.438,0,0,1,1.525-3.556,6.1,6.1,0,0,1,3.964-1.16,14.066,14.066,0,0,1,3.781.623l-.494,2.857-.6-.161a9.572,9.572,0,0,0-2.471-.312q-2.073,0-2.073,1.891v.2h2.277v2.514h-2.277V46Zm10.936,0H-22.72V34.377h3.642Zm5.532-11.623.118,1.364a3.942,3.942,0,0,1,3.319-1.579A3.316,3.316,0,0,1-7.4,35.247a5.165,5.165,0,0,1,.929,3.266V46H-10.1V38.663a1.961,1.961,0,0,0-.354-1.294,1.64,1.64,0,0,0-1.289-.414,1.726,1.726,0,0,0-1.579.838V46h-3.62V34.377ZM1.16,46.215a5.975,5.975,0,0,1-4.329-1.6,5.509,5.509,0,0,1-1.654-4.152v-.3a7.138,7.138,0,0,1,.661-3.147,4.834,4.834,0,0,1,1.928-2.111,5.821,5.821,0,0,1,3.008-.747,5.031,5.031,0,0,1,3.867,1.52A5.973,5.973,0,0,1,6.059,39.92v1.407h-7.2A2.609,2.609,0,0,0-.29,42.863a2.525,2.525,0,0,0,1.7.559,3.254,3.254,0,0,0,2.686-1.2l1.654,1.955A4.624,4.624,0,0,1,3.83,45.662,6.48,6.48,0,0,1,1.16,46.215Zm-.408-9.26q-1.59,0-1.891,2.105H2.514v-.279a1.793,1.793,0,0,0-.44-1.348A1.753,1.753,0,0,0,.752,36.955Zm10.087-2.578.118,1.364a3.942,3.942,0,0,1,3.319-1.579,3.316,3.316,0,0,1,2.712,1.085,5.165,5.165,0,0,1,.929,3.266V46H14.287V38.663a1.961,1.961,0,0,0-.354-1.294,1.64,1.64,0,0,0-1.289-.414,1.726,1.726,0,0,0-1.579.838V46H7.444V34.377Zm19.476,9.045a1.61,1.61,0,0,0,1.182-.414,1.517,1.517,0,0,0,.408-1.155H35.3a4.018,4.018,0,0,1-1.37,3.137A5.1,5.1,0,0,1,30.4,46.215a5.158,5.158,0,0,1-4-1.59,6.264,6.264,0,0,1-1.461-4.4v-.15a7.08,7.08,0,0,1,.65-3.11,4.732,4.732,0,0,1,1.875-2.073,5.589,5.589,0,0,1,2.9-.725,5.03,5.03,0,0,1,3.6,1.257A4.458,4.458,0,0,1,35.3,38.824H31.9a1.987,1.987,0,0,0-.44-1.386,1.52,1.52,0,0,0-1.182-.483q-1.407,0-1.644,1.794a12.658,12.658,0,0,0-.075,1.568,4.972,4.972,0,0,0,.419,2.428A1.45,1.45,0,0,0,30.314,43.422Zm6.059-3.341a6.86,6.86,0,0,1,.677-3.1,4.84,4.84,0,0,1,1.944-2.089,5.856,5.856,0,0,1,2.976-.73,5.344,5.344,0,0,1,4.114,1.617,6.2,6.2,0,0,1,1.5,4.4v.129a6.019,6.019,0,0,1-1.509,4.313,5.359,5.359,0,0,1-4.087,1.6,5.42,5.42,0,0,1-3.985-1.488,5.819,5.819,0,0,1-1.622-4.034Zm3.62.226a4.325,4.325,0,0,0,.5,2.363,1.682,1.682,0,0,0,1.493.752q1.934,0,1.977-2.976v-.365q0-3.126-2-3.126-1.815,0-1.966,2.7ZM52.6,34.377l.118,1.364a4,4,0,0,1,3.319-1.579,2.942,2.942,0,0,1,2.976,1.751,3.868,3.868,0,0,1,3.416-1.751q3.534,0,3.631,4.275V46H62.434V38.663a2.216,2.216,0,0,0-.3-1.3,1.28,1.28,0,0,0-1.1-.408,1.715,1.715,0,0,0-1.6.956l.011.15V46H55.816V38.685a2.329,2.329,0,0,0-.29-1.321,1.277,1.277,0,0,0-1.106-.408,1.736,1.736,0,0,0-1.59.956V46H49.21V34.377Zm15.071,5.7a6.86,6.86,0,0,1,.677-3.1A4.84,4.84,0,0,1,70.3,34.893a5.856,5.856,0,0,1,2.976-.73,5.344,5.344,0,0,1,4.114,1.617,6.2,6.2,0,0,1,1.5,4.4v.129a6.019,6.019,0,0,1-1.509,4.313,5.359,5.359,0,0,1-4.087,1.6,5.42,5.42,0,0,1-3.985-1.488,5.819,5.819,0,0,1-1.622-4.034Zm3.62.226a4.325,4.325,0,0,0,.5,2.363,1.682,1.682,0,0,0,1.493.752q1.934,0,1.977-2.976v-.365q0-3.126-2-3.126-1.815,0-1.966,2.7ZM-102.25,69.215a5.975,5.975,0,0,1-4.329-1.6,5.509,5.509,0,0,1-1.654-4.152v-.3a7.138,7.138,0,0,1,.661-3.147,4.834,4.834,0,0,1,1.928-2.111,5.821,5.821,0,0,1,3.008-.747,5.031,5.031,0,0,1,3.867,1.52,5.973,5.973,0,0,1,1.418,4.238v1.407h-7.2a2.609,2.609,0,0,0,.849,1.536,2.525,2.525,0,0,0,1.7.559,3.254,3.254,0,0,0,2.686-1.2l1.654,1.955a4.624,4.624,0,0,1-1.917,1.488A6.48,6.48,0,0,1-102.25,69.215Zm-.408-9.26q-1.59,0-1.891,2.105h3.652v-.279a1.793,1.793,0,0,0-.44-1.348A1.753,1.753,0,0,0-102.658,59.955ZM-92.077,69h-3.631V52.5h3.631Zm7.853.215a5.975,5.975,0,0,1-4.329-1.6,5.509,5.509,0,0,1-1.654-4.152v-.3a7.138,7.138,0,0,1,.661-3.147,4.834,4.834,0,0,1,1.928-2.111,5.821,5.821,0,0,1,3.008-.747,5.031,5.031,0,0,1,3.867,1.52,5.973,5.973,0,0,1,1.418,4.238v1.407h-7.2a2.609,2.609,0,0,0,.849,1.536,2.525,2.525,0,0,0,1.7.559,3.254,3.254,0,0,0,2.686-1.2l1.654,1.955a4.624,4.624,0,0,1-1.917,1.488A6.48,6.48,0,0,1-84.224,69.215Zm-.408-9.26q-1.59,0-1.891,2.105h3.652v-.279a1.793,1.793,0,0,0-.44-1.348A1.753,1.753,0,0,0-84.632,59.955Zm10.184-2.578.118,1.364a4,4,0,0,1,3.319-1.579,2.942,2.942,0,0,1,2.976,1.751,3.868,3.868,0,0,1,3.416-1.751q3.534,0,3.631,4.275V69H-64.62V61.663a2.216,2.216,0,0,0-.3-1.3,1.28,1.28,0,0,0-1.1-.408,1.715,1.715,0,0,0-1.6.956l.011.15V69h-3.631V61.685a2.329,2.329,0,0,0-.29-1.321,1.277,1.277,0,0,0-1.106-.408,1.736,1.736,0,0,0-1.59.956V69h-3.62V57.377ZM-53.3,69.215a5.975,5.975,0,0,1-4.329-1.6,5.509,5.509,0,0,1-1.654-4.152v-.3a7.138,7.138,0,0,1,.661-3.147,4.834,4.834,0,0,1,1.928-2.111,5.821,5.821,0,0,1,3.008-.747,5.031,5.031,0,0,1,3.867,1.52A5.973,5.973,0,0,1-48.4,62.92v1.407h-7.2a2.609,2.609,0,0,0,.849,1.536,2.525,2.525,0,0,0,1.7.559,3.254,3.254,0,0,0,2.686-1.2l1.654,1.955a4.624,4.624,0,0,1-1.917,1.488A6.48,6.48,0,0,1-53.3,69.215Zm-.408-9.26q-1.59,0-1.891,2.105h3.652v-.279a1.793,1.793,0,0,0-.44-1.348A1.753,1.753,0,0,0-53.706,59.955Zm10.087-2.578.118,1.364a3.942,3.942,0,0,1,3.319-1.579,3.316,3.316,0,0,1,2.712,1.085,5.165,5.165,0,0,1,.929,3.266V69H-40.17V61.663a1.961,1.961,0,0,0-.354-1.294,1.64,1.64,0,0,0-1.289-.414,1.726,1.726,0,0,0-1.579.838V69h-3.62V57.377Zm13.3-2.89v2.89h1.912v2.514H-30.32v5.317a1.358,1.358,0,0,0,.236.913,1.268,1.268,0,0,0,.935.258,5.311,5.311,0,0,0,.9-.064V68.9a6.681,6.681,0,0,1-2.041.312,3.792,3.792,0,0,1-2.761-.881,3.61,3.61,0,0,1-.892-2.675V59.891h-1.482V57.377h1.482v-2.89Zm2.557,8.594a6.86,6.86,0,0,1,.677-3.1,4.84,4.84,0,0,1,1.944-2.089,5.856,5.856,0,0,1,2.976-.73,5.344,5.344,0,0,1,4.114,1.617,6.2,6.2,0,0,1,1.5,4.4v.129a6.019,6.019,0,0,1-1.509,4.313,5.359,5.359,0,0,1-4.087,1.6,5.42,5.42,0,0,1-3.985-1.488,5.819,5.819,0,0,1-1.622-4.034Zm3.62.226a4.325,4.325,0,0,0,.5,2.363,1.682,1.682,0,0,0,1.493.752q1.934,0,1.977-2.976v-.365q0-3.126-2-3.126-1.815,0-1.966,2.7Zm15.275,2.428a.836.836,0,0,0-.483-.741,7.353,7.353,0,0,0-1.837-.58,8.376,8.376,0,0,1-2.234-.79,3.743,3.743,0,0,1-1.343-1.187,2.834,2.834,0,0,1-.462-1.6A3.212,3.212,0,0,1-13.906,58.2a5.443,5.443,0,0,1,3.459-1.037,6.03,6.03,0,0,1,3.7,1.042,3.258,3.258,0,0,1,1.4,2.739H-8.986q0-1.4-1.472-1.4a1.459,1.459,0,0,0-.956.317.981.981,0,0,0-.387.79.9.9,0,0,0,.473.784,4.466,4.466,0,0,0,1.509.494A13.043,13.043,0,0,1-8,62.394q2.621.9,2.621,3.233a3.044,3.044,0,0,1-1.413,2.589,6.2,6.2,0,0,1-3.658,1,6.322,6.322,0,0,1-2.664-.537,4.455,4.455,0,0,1-1.826-1.461,3.308,3.308,0,0,1-.655-1.944h3.384a1.4,1.4,0,0,0,.537,1.176,2.209,2.209,0,0,0,1.321.371,1.738,1.738,0,0,0,1.112-.3A.962.962,0,0,0-8.868,65.734ZM1.337,63.1A7.1,7.1,0,0,1,2.53,58.752a3.925,3.925,0,0,1,3.33-1.59,3.338,3.338,0,0,1,2.621,1.225V52.5h3.631V69H8.857l-.183-1.246a3.428,3.428,0,0,1-2.836,1.461,3.918,3.918,0,0,1-3.287-1.59A7.325,7.325,0,0,1,1.337,63.1Zm3.62.226q0,3.094,1.8,3.094a1.782,1.782,0,0,0,1.719-1.01V60.986a1.734,1.734,0,0,0-1.7-1.031q-1.676,0-1.815,2.707Zm14.835,5.887a5.975,5.975,0,0,1-4.329-1.6,5.509,5.509,0,0,1-1.654-4.152v-.3a7.138,7.138,0,0,1,.661-3.147A4.834,4.834,0,0,1,16.4,57.909a5.821,5.821,0,0,1,3.008-.747,5.031,5.031,0,0,1,3.867,1.52,5.973,5.973,0,0,1,1.418,4.238v1.407h-7.2a2.609,2.609,0,0,0,.849,1.536,2.525,2.525,0,0,0,1.7.559,3.254,3.254,0,0,0,2.686-1.2l1.654,1.955a4.624,4.624,0,0,1-1.917,1.488A6.48,6.48,0,0,1,19.792,69.215Zm-.408-9.26q-1.59,0-1.891,2.105h3.652v-.279a1.793,1.793,0,0,0-.44-1.348A1.753,1.753,0,0,0,19.384,59.955ZM36.54,66.422a1.61,1.61,0,0,0,1.182-.414,1.517,1.517,0,0,0,.408-1.155h3.395a4.018,4.018,0,0,1-1.37,3.137,5.1,5.1,0,0,1-3.529,1.225,5.158,5.158,0,0,1-4-1.59,6.264,6.264,0,0,1-1.461-4.4v-.15a7.08,7.08,0,0,1,.65-3.11,4.732,4.732,0,0,1,1.875-2.073,5.589,5.589,0,0,1,2.9-.725,5.03,5.03,0,0,1,3.6,1.257,4.458,4.458,0,0,1,1.332,3.405H38.129a1.987,1.987,0,0,0-.44-1.386,1.52,1.52,0,0,0-1.182-.483q-1.407,0-1.644,1.794a12.659,12.659,0,0,0-.075,1.568,4.972,4.972,0,0,0,.419,2.428A1.45,1.45,0,0,0,36.54,66.422ZM49.6,69a4.088,4.088,0,0,1-.344-1.042,3.366,3.366,0,0,1-2.793,1.257,4.124,4.124,0,0,1-2.793-.994,3.163,3.163,0,0,1-1.149-2.5,3.251,3.251,0,0,1,1.4-2.857A7.114,7.114,0,0,1,47.98,61.9H49.1v-.615q0-1.608-1.386-1.608a1.133,1.133,0,0,0-1.289,1.274H42.8a3.245,3.245,0,0,1,1.434-2.736,6.027,6.027,0,0,1,3.658-1.051,5.284,5.284,0,0,1,3.513,1.085,3.772,3.772,0,0,1,1.321,2.976v5.146a5.269,5.269,0,0,0,.494,2.449V69Zm-2.267-2.363a2.019,2.019,0,0,0,1.123-.29,1.818,1.818,0,0,0,.639-.655V63.833H48.044q-1.891,0-1.891,1.7a1.036,1.036,0,0,0,.333.8A1.205,1.205,0,0,0,47.335,66.637ZM58.55,69H54.919V52.5H58.55ZM64.6,69H60.967V57.377H64.6ZM60.752,54.369a1.63,1.63,0,0,1,.559-1.275,2.364,2.364,0,0,1,2.9,0,1.735,1.735,0,0,1,0,2.551,2.364,2.364,0,0,1-2.9,0A1.63,1.63,0,0,1,60.752,54.369ZM66.371,63.1a7.1,7.1,0,0,1,1.192-4.351,3.925,3.925,0,0,1,3.33-1.59,3.338,3.338,0,0,1,2.621,1.225V52.5h3.631V69H73.89l-.183-1.246a3.428,3.428,0,0,1-2.836,1.461,3.918,3.918,0,0,1-3.287-1.59A7.325,7.325,0,0,1,66.371,63.1Zm3.62.226q0,3.094,1.8,3.094a1.782,1.782,0,0,0,1.719-1.01V60.986a1.734,1.734,0,0,0-1.7-1.031q-1.676,0-1.815,2.707ZM85.75,69a4.087,4.087,0,0,1-.344-1.042,3.366,3.366,0,0,1-2.793,1.257,4.124,4.124,0,0,1-2.793-.994,3.163,3.163,0,0,1-1.149-2.5,3.251,3.251,0,0,1,1.4-2.857,7.114,7.114,0,0,1,4.061-.967h1.117v-.615q0-1.608-1.386-1.608A1.133,1.133,0,0,0,82.57,60.95H78.95a3.245,3.245,0,0,1,1.434-2.736,6.027,6.027,0,0,1,3.658-1.051,5.284,5.284,0,0,1,3.513,1.085,3.772,3.772,0,0,1,1.321,2.976v5.146a5.269,5.269,0,0,0,.494,2.449V69Zm-2.267-2.363a2.019,2.019,0,0,0,1.123-.29,1.818,1.818,0,0,0,.639-.655V63.833H84.192q-1.891,0-1.891,1.7a1.036,1.036,0,0,0,.333.8A1.205,1.205,0,0,0,83.483,66.637ZM90.422,63.1a7.1,7.1,0,0,1,1.192-4.351,3.925,3.925,0,0,1,3.33-1.59,3.338,3.338,0,0,1,2.621,1.225V52.5H101.2V69H97.942l-.183-1.246a3.428,3.428,0,0,1-2.836,1.461,3.918,3.918,0,0,1-3.287-1.59A7.325,7.325,0,0,1,90.422,63.1Zm3.62.226q0,3.094,1.8,3.094a1.782,1.782,0,0,0,1.719-1.01V60.986a1.734,1.734,0,0,0-1.7-1.031q-1.676,0-1.815,2.707Zm11.451,2.159a2.061,2.061,0,0,1,1.429.51,1.781,1.781,0,0,1,0,2.61,2.254,2.254,0,0,1-2.863-.005,1.78,1.78,0,0,1,0-2.6A2.043,2.043,0,0,1,105.494,65.487Z" transform="translate(809.757 3645.533)" fill="#12263f"/>
  </g>
</svg>
