<svg xmlns="http://www.w3.org/2000/svg" width="116" height="116" viewBox="0 0 116 116">
  <g id="Grupo_91934" data-name="Grupo 91934" transform="translate(-391 -5691)">
    <circle id="Elipse_4103" data-name="Elipse 4103" cx="58" cy="58" r="58" transform="translate(391 5691)" fill="#f0ad65"/>
    <g id="Grupo_91672" data-name="Grupo 91672" transform="translate(411.554 5713.011)">
      <path id="Trazado_142211" data-name="Trazado 142211" d="M580.119,243.861a.941.941,0,0,1-.761-1.062c.006-2.486-.034-4.973.015-7.458a3.986,3.986,0,0,1,4.259-4.024q20.852-.006,41.7.012a1.368,1.368,0,0,0,1.286-.676,8.85,8.85,0,0,1,14.479.02,1.348,1.348,0,0,0,1.3.654c2.432-.027,4.87.086,7.3-.038,2.7-.137,4.686,1.7,4.678,4.718-.054,19.54-.028,39.081-.031,58.621a8.448,8.448,0,0,1-.079,1.277,3.98,3.98,0,0,1-3.78,3.406c-.24.013-.481.009-.721.009q-32.922,0-65.844.007a4.55,4.55,0,0,1-3.068-.928,4.3,4.3,0,0,1-1.5-3.554q.014-20.569.006-41.139c0-1.31.011-2.62,0-3.93a1.008,1.008,0,0,1,.764-1.149c.64-.2.886.191,1.006.71a5.663,5.663,0,0,1,.055,1.279q0,21.65,0,43.3a8.909,8.909,0,0,0,.066,1.52,2.269,2.269,0,0,0,2.165,2.008c.32.03.641.02.962.02h64.874c.321,0,.642.007.962-.018a2.294,2.294,0,0,0,2.274-2.166,8.014,8.014,0,0,0,.041-1.04q0-28.906,0-57.813a7.685,7.685,0,0,0-.05-1.121,2.278,2.278,0,0,0-2.391-2.118c-2.031-.036-4.063.027-6.091-.031-.418.078-1.038-.255-1.221.231a3.017,3.017,0,0,0,.209,1.625c.047.2.273.229.462.24a7.017,7.017,0,0,0,1.034-.015c1.205-.018,2.408-.015,3.611-.008,1.569.01,1.891.332,1.909,1.871,0,.187,0,.374,0,.561q0,27.625,0,55.251c0,2.338-.167,2.5-2.51,2.5h-44.91a11.719,11.719,0,0,1-1.282-.028c-.619-.068-1.072-.328-1.135-1.02.044-.69.483-.968,1.1-1.045a10.427,10.427,0,0,1,1.282-.032H646.32c1.55,0,1.551,0,1.551-1.533q0-26.454,0-52.909c0-1.491,0-1.49-1.514-1.494-.641,0-1.283.011-1.922-.012-1.56-.11-1.555-.108-2.1,1.317a41.637,41.637,0,0,1-4.969,8.581,37.8,37.8,0,0,1-2.517,3.321c-.749.866-1.258.9-1.96.016a51.6,51.6,0,0,1-7.41-11.671q-.047-.111-.09-.223c-.552-1.438-.552-1.438-2.092-1.347-11.871.036-23.74.006-35.608.02-2.019,0-1.849-.2-1.849,1.86q0,26.262,0,52.523c0,1.55,0,1.549,1.518,1.551,2.272,0,4.545-.016,6.817.009,1.034.011,1.29.212,1.516,1.054-.271.826-.554,1.04-1.544,1.054-1.87.026-3.741.007-5.612.009-1.015,0-2.031.012-3.046,0-1.351-.021-1.743-.425-1.773-1.8-.005-.24,0-.481,0-.721q0-27.614,0-55.229c0-2.267.165-2.437,2.394-2.436q18.558.008,37.114.006c1.562.1,1.549.1,1.757-1.443.06-.445-.044-.662-.515-.641-.238.011-.476,0-.717,0-.429.039-.856.024-1.284.024h-37.9c-.374,0-.748-.012-1.121.012a2.241,2.241,0,0,0-2.166,1.9,11.777,11.777,0,0,0-.086,2.238c-.013,1.816.027,3.633-.02,5.448C581.139,243.684,580.866,243.932,580.119,243.861Z" transform="translate(-579.349 -226.905)"/>
      <path id="Trazado_142212" data-name="Trazado 142212" d="M580.161,271.993c.5.083.857.308.834.873-.021.521-.364.726-.835.78a.825.825,0,0,1-.74-.783C579.4,272.378,579.721,272.119,580.161,271.993Z" transform="translate(-579.391 -253.479)" fill="#080808"/>
      <path id="Trazado_142213" data-name="Trazado 142213" d="M609.227,308.948H607.67c-.816-.749-.816-.749-1.651,0H604.46c-.126-.657-.564-.815-1.176-.811-2.646.017-5.292-.025-7.937.028-.744.015-.861-.223-.861-.9q.027-27.377.012-54.754c0-.462-.077-.845.657-.843q18.56.036,37.12.02c.08,0,.159.014.239.021a.652.652,0,0,1,.364.494A34.49,34.49,0,0,0,638.088,262c1.291,1.87,2.706,3.647,4.139,5.409.466.574.623.591,1.052.061a65.373,65.373,0,0,0,8.133-11.976,22.242,22.242,0,0,0,1.2-3.055c.088-.273.1-.594.43-.725,1.149-.008,2.3,0,3.446-.034.482-.016.576.179.569.609-.022,1.39-.008,2.779-.008,4.169q0,25.377.02,50.754c0,.788-.207.953-.969.952q-22.773-.036-45.546-.023C609.927,308.139,609.354,308.159,609.227,308.948Z" transform="translate(-588.272 -241.501)" fill="#13be6d"/>
      <path id="Trazado_142214" data-name="Trazado 142214" d="M701.171,230.838c5.34-.257,9.106,4.957,7.339,9.378a37.617,37.617,0,0,1-4.07,7.235c-.784,1.144-1.631,2.246-2.438,3.374-.218.305-.379.4-.647.034a54.905,54.905,0,0,1-6.346-10.156,7.086,7.086,0,0,1,5.015-9.694C700.466,230.919,700.918,230.875,701.171,230.838Z" transform="translate(-647.158 -229.217)" fill="#fb5d3d"/>
      <path id="Trazado_142215" data-name="Trazado 142215" d="M707.627,251.735c-1.514,5.258-4.7,9.552-7.963,13.8-.582.758-1.192,1.495-1.771,2.255-.37.486-.681.476-1.063,0a80.5,80.5,0,0,1-7.068-9.925,26.436,26.436,0,0,1-2.664-6.13.754.754,0,0,1,.079-.011c1.373-.048,1.359-.043,1.809,1.2a38.316,38.316,0,0,0,5.021,8.8c.825,1.18,1.71,2.32,2.607,3.447.534.671.969.676,1.5,0a52.8,52.8,0,0,0,7.379-11.572c.084-.2.154-.4.225-.6C706.184,251.666,706.184,251.666,707.627,251.735Z" transform="translate(-642.856 -241.524)" fill="#139b6e"/>
      <path id="Trazado_142216" data-name="Trazado 142216" d="M622.57,390.025c.085-.461.312-.793.822-.795s.729.346.83.794c-.106.443-.339.784-.831.783S622.656,390.483,622.57,390.025Z" transform="translate(-604.823 -322.577)" fill="#030504"/>
      <path id="Trazado_142217" data-name="Trazado 142217" d="M646.576,289.58c-.034.522.333,1.03.053,1.56a3.148,3.148,0,0,0-.508,1.56,11.5,11.5,0,0,1-10,10.437,10.869,10.869,0,0,1-9.969-3.606,18.667,18.667,0,0,0-9.488-5.657,16.337,16.337,0,0,1-12.33-14.114,15.925,15.925,0,0,1,4.611-13.481,16.37,16.37,0,0,1,19-3.315,16,16,0,0,1,8.87,10.961,18.49,18.49,0,0,0,4.247,7.981,25.371,25.371,0,0,1,2.649,2.666,5.734,5.734,0,0,1,.469.648,2.409,2.409,0,0,0,1.433,1.3,6.792,6.792,0,0,1,.517,1.448C645.732,288.925,645.732,288.925,646.576,289.58Z" transform="translate(-594.002 -247.168)" fill="#72c1e8"/>
      <path id="Trazado_142218" data-name="Trazado 142218" d="M643.62,284.5a1.044,1.044,0,0,1-1.25-.607,11.084,11.084,0,0,0-2.343-2.825,17.82,17.82,0,0,1-5.379-9c-1.81-6.788-6.194-10.953-13.077-12.323a16.325,16.325,0,0,0-6.8,31.912,19.567,19.567,0,0,1,9.638,5.832,11.364,11.364,0,0,0,18.488-2.938,10.921,10.921,0,0,0,1.051-4.323c.02-.519.106-.962.695-1.109.731.017.931.43.924,1.107a12.777,12.777,0,0,1-9.526,11.913,12.411,12.411,0,0,1-13.093-3.846,17.142,17.142,0,0,0-8.7-5.109,17.938,17.938,0,1,1,21.823-22.04,17.112,17.112,0,0,0,5.389,9.067,11.717,11.717,0,0,1,2.3,2.861A1.011,1.011,0,0,1,643.62,284.5Z" transform="translate(-592.016 -245.151)"/>
      <path id="Trazado_142219" data-name="Trazado 142219" d="M713.166,361.639c-1.094,0-2.188-.006-3.282,0-.538,0-.985-.122-1.009-.754-.026-.689.468-.837,1.02-.84q3.242-.014,6.484,0c.565,0,1.041.2,1.016.857-.023.623-.494.742-1.027.737C715.3,361.633,714.234,361.639,713.166,361.639Z" transform="translate(-655.69 -305.374)" fill="#000201"/>
      <path id="Trazado_142220" data-name="Trazado 142220" d="M713.108,369.279c1.095,0,2.189.007,3.284,0,.551-.005.995.174,1,.773.009.642-.455.836-1.035.835q-3.243-.005-6.487,0c-.535,0-.981-.156-.991-.784-.01-.675.441-.829,1.022-.822C710.972,369.288,712.04,369.279,713.108,369.279Z" transform="translate(-655.695 -310.816)"/>
      <path id="Trazado_142221" data-name="Trazado 142221" d="M705.989,327.873c-.441-.036-.833-.161-.948-.652a.827.827,0,0,1,.5-.958c.491-.035.914.082,1.048.614C706.711,327.378,706.351,327.637,705.989,327.873Z" transform="translate(-653.415 -285.461)" fill="#020505"/>
      <path id="Trazado_142222" data-name="Trazado 142222" d="M705.656,237.65a4.488,4.488,0,1,1-4.493,4.477A4.49,4.49,0,0,1,705.656,237.65Z" transform="translate(-651.145 -233.238)"/>
      <path id="Trazado_142223" data-name="Trazado 142223" d="M626.471,271.159a12.271,12.271,0,0,1,12.1,9.233,23.109,23.109,0,0,0,6.886,11.588,7.513,7.513,0,0,1-3.907,12.96,7.337,7.337,0,0,1-7.077-2.663,20.148,20.148,0,0,0-8.34-5.638c-.976-.353-1.984-.619-2.986-.9a12.529,12.529,0,0,1,1.24-24.415A15.637,15.637,0,0,1,626.471,271.159Z" transform="translate(-599.777 -252.987)"/>
      <path id="Trazado_142224" data-name="Trazado 142224" d="M710.838,244.471a2.885,2.885,0,1,1-5.769-.115,2.885,2.885,0,0,1,5.769.115Z" transform="translate(-653.447 -235.539)" fill="#eee"/>
      <path id="Trazado_142225" data-name="Trazado 142225" d="M628.559,275.064c5.267.033,9.52,3.163,10.77,8.026a24.654,24.654,0,0,0,7.424,12.454,5.92,5.92,0,1,1-8.392,8.344,24.543,24.543,0,0,0-12.381-7.4,10.867,10.867,0,0,1-8.051-11.471,11.05,11.05,0,0,1,9.358-9.868A11.887,11.887,0,0,1,628.559,275.064Z" transform="translate(-602.073 -255.289)" fill="#efbf20"/>
      <path id="Trazado_142226" data-name="Trazado 142226" d="M633.967,283.755a7.175,7.175,0,0,1,7,5.411,27.4,27.4,0,0,0,5.915,11.567,31.612,31.612,0,0,0,2.315,2.328,2.378,2.378,0,0,1,.238,3.539,2.337,2.337,0,0,1-3.54-.188A27.008,27.008,0,0,0,632,298.175a7.333,7.333,0,0,1,1.963-14.42Z" transform="translate(-607.158 -260.411)"/>
      <path id="Trazado_142227" data-name="Trazado 142227" d="M636.259,287.66a5.688,5.688,0,0,1,5.586,4.518,28.455,28.455,0,0,0,4.788,10.226,28.976,28.976,0,0,0,3.852,4.179c.389.351.533.768.117,1.179s-.819.288-1.181-.108c-.163-.177-.326-.354-.489-.53a26.984,26.984,0,0,0-5.4-4.508,28.8,28.8,0,0,0-8.513-3.6,5.736,5.736,0,0,1-.49-11.088A5.019,5.019,0,0,1,636.259,287.66Z" transform="translate(-609.487 -262.711)" fill="#fb5d3d"/>
    </g>
  </g>
</svg>
